<svg width="24" height="21" viewBox="0 0 24 21" fill="none" xmlns="http://www.w3.org/2000/svg">
<path opacity="0.2" d="M22.6572 5.03125L20.1543 14.043C20.0631 14.3713 19.8671 14.6609 19.5962 14.8675C19.3252 15.0741 18.9941 15.1865 18.6533 15.1875H9.00098C8.65954 15.1874 8.32755 15.0754 8.05578 14.8687C7.78401 14.662 7.58743 14.372 7.49609 14.043L4.99219 5.03125H22.6572Z" fill="#A1A78F"/>
<path d="M10.1562 19.0938C10.1562 19.4028 10.0646 19.7049 9.89292 19.9618C9.72123 20.2188 9.4772 20.4191 9.19169 20.5373C8.90618 20.6556 8.59202 20.6865 8.28892 20.6262C7.98583 20.5659 7.70742 20.4171 7.4889 20.1986C7.27038 19.9801 7.12156 19.7017 7.06127 19.3986C7.00098 19.0955 7.03193 18.7813 7.15019 18.4958C7.26845 18.2103 7.46872 17.9663 7.72567 17.7946C7.98262 17.6229 8.28472 17.5312 8.59375 17.5312C9.00815 17.5312 9.40558 17.6959 9.6986 17.9889C9.99163 18.2819 10.1562 18.6793 10.1562 19.0938ZM18.75 17.5312C18.441 17.5312 18.1389 17.6229 17.8819 17.7946C17.625 17.9663 17.4247 18.2103 17.3064 18.4958C17.1882 18.7813 17.1572 19.0955 17.2175 19.3986C17.2778 19.7017 17.4266 19.9801 17.6451 20.1986C17.8637 20.4171 18.1421 20.5659 18.4452 20.6262C18.7483 20.6865 19.0624 20.6556 19.3479 20.5373C19.6335 20.4191 19.8775 20.2188 20.0492 19.9618C20.2209 19.7049 20.3125 19.4028 20.3125 19.0938C20.3125 18.6793 20.1479 18.2819 19.8549 17.9889C19.5618 17.6959 19.1644 17.5312 18.75 17.5312ZM23.4092 5.24023L20.9053 14.252C20.7676 14.7442 20.4732 15.1782 20.0666 15.488C19.66 15.7978 19.1635 15.9666 18.6523 15.9688H9C8.48734 15.9685 7.98881 15.8006 7.58047 15.4907C7.17212 15.1807 6.87636 14.7457 6.73828 14.252L3.3125 1.90625H1.5625C1.3553 1.90625 1.15659 1.82394 1.01007 1.67743C0.86356 1.53091 0.78125 1.3322 0.78125 1.125C0.78125 0.9178 0.86356 0.719086 1.01007 0.572573C1.15659 0.42606 1.3553 0.34375 1.5625 0.34375H3.90625C4.07705 0.343717 4.24316 0.39966 4.37914 0.503014C4.51512 0.606368 4.61349 0.751438 4.65918 0.916016L5.58496 4.25H22.6562C22.7767 4.24998 22.8955 4.2778 23.0034 4.3313C23.1113 4.38479 23.2054 4.46251 23.2783 4.55839C23.3512 4.65426 23.4009 4.76569 23.4236 4.88397C23.4463 5.00225 23.4414 5.12418 23.4092 5.24023ZM21.6279 5.8125H6.01953L8.24707 13.834C8.29276 13.9986 8.39113 14.1436 8.52711 14.247C8.66309 14.3503 8.8292 14.4063 9 14.4062H18.6523C18.8231 14.4063 18.9893 14.3503 19.1252 14.247C19.2612 14.1436 19.3596 13.9986 19.4053 13.834L21.6279 5.8125Z" fill="#A1A78F"/>
</svg>
