<svg width="293" height="294" viewBox="0 0 293 294" fill="none" xmlns="http://www.w3.org/2000/svg">
<path d="M79.0056 87.3129C77.6013 56.64 90.0258 25.6055 112.173 4.38477C148.644 51.0436 152.335 120.771 121 171.031C143.214 150.814 173.132 140.679 202.983 137.466C232.834 134.253 262.965 137.466 292.776 140.974C282.826 165.046 260.972 183.308 236.164 191.181C211.355 199.053 183.978 197.031 159.571 187.967C133.652 178.341 110.702 161.11 83.8872 154.416C57.0589 147.722 22.6074 156.679 14.4492 183.121C49.877 194.206 89.6246 190.658 122.538 173.468C100.217 180.456 84.3686 201.195 77.0931 223.447C69.8177 245.685 69.7508 269.57 69.7642 292.973C82.1485 296.079 95.5493 290.563 104.523 281.472C113.497 272.382 118.686 260.212 122.351 247.961C130.71 219.993 134.762 191.971 117.269 167.617C98.7323 141.777 80.557 121.159 79.0056 87.3129Z" fill="#E7E9E1"/>
<path d="M98.1527 1.70434C133.272 47.4323 137.061 114.98 107.409 164.411C106.295 163.84 105.179 163.272 104.061 162.71C101.932 159.745 99.8134 156.853 97.7271 154.006C81.6099 132.009 67.4467 112.679 66.0905 83.0914C64.7164 53.0773 76.7136 22.7021 98.1527 1.70434ZM69.7309 151.21C81.2318 154.082 92.0332 158.913 102.722 164.275C103.87 165.889 104.922 167.519 105.884 169.164C102.189 170.512 98.6814 172.231 95.3696 174.265C65.8116 186.011 32.24 187.564 1.79845 178.289C5.96947 165.971 16.1294 157.625 28.5936 153.107C41.3825 148.47 56.4989 147.909 69.7309 151.21ZM64.1296 219.582C69.8678 202.032 80.9561 185.526 96.2799 176.055C99.9309 174.599 103.521 172.989 107.038 171.226C118.924 193.426 115.001 218.329 107.479 243.499C103.831 255.694 98.6998 267.677 89.8975 276.594C81.2816 285.322 68.5892 290.599 56.8497 288.006C56.8393 264.833 56.993 241.395 64.1295 219.582L64.1296 219.582ZM114.413 168.037C112.912 167.255 111.409 166.474 109.903 165.695C131.676 146.924 160.415 137.381 189.176 134.285C218.46 131.132 248.037 134.189 277.421 137.636C267.371 160.8 246.089 178.391 221.947 186.052C197.385 193.846 170.239 191.854 146.005 182.854C135.139 178.818 124.8 173.44 114.413 168.037Z" stroke="#959B84" stroke-width="2"/>
</svg>
