<svg width="21" height="20" viewBox="0 0 21 20" fill="none" xmlns="http://www.w3.org/2000/svg">
<path opacity="0.2" d="M16.75 7.37891C16.75 8.61504 16.3834 9.82341 15.6967 10.8512C15.0099 11.879 14.0338 12.6801 12.8918 13.1532C11.7497 13.6262 10.4931 13.75 9.28069 13.5088C8.06831 13.2677 6.95466 12.6724 6.08059 11.7983C5.20651 10.9242 4.61125 9.8106 4.37009 8.59822C4.12894 7.38584 4.25271 6.12917 4.72576 4.98714C5.1988 3.8451 5.99988 2.86898 7.02769 2.18222C8.0555 1.49546 9.26387 1.12891 10.5 1.12891C12.1576 1.12891 13.7473 1.78739 14.9194 2.95949C16.0915 4.13159 16.75 5.7213 16.75 7.37891Z" fill="#A1A78F"/>
<path d="M20.545 18.7058C19.0577 16.1345 16.7657 14.2907 14.0909 13.4167C15.4139 12.6291 16.4419 11.4289 17.0168 10.0005C17.5918 8.5721 17.682 6.99445 17.2735 5.50984C16.8651 4.02523 15.9806 2.71574 14.7559 1.78247C13.5312 0.849196 12.034 0.34375 10.4942 0.34375C8.9544 0.34375 7.45719 0.849196 6.23248 1.78247C5.00777 2.71574 4.12327 4.02523 3.71482 5.50984C3.30637 6.99445 3.39655 8.5721 3.97151 10.0005C4.54647 11.4289 5.57442 12.6291 6.8975 13.4167C4.22269 14.2898 1.9307 16.1335 0.443395 18.7058C0.388853 18.7947 0.352675 18.8937 0.336997 18.9968C0.321319 19.1 0.326458 19.2052 0.35211 19.3063C0.377762 19.4074 0.423409 19.5024 0.486356 19.5856C0.549303 19.6688 0.628275 19.7385 0.718615 19.7907C0.808954 19.8429 0.908829 19.8765 1.01235 19.8894C1.11587 19.9024 1.22093 19.8945 1.32135 19.8662C1.42176 19.8379 1.51549 19.7897 1.597 19.7246C1.67851 19.6595 1.74615 19.5787 1.79593 19.487C3.63578 16.3073 6.88773 14.4089 10.4942 14.4089C14.1006 14.4089 17.3526 16.3073 19.1924 19.487C19.2422 19.5787 19.3098 19.6595 19.3914 19.7246C19.4729 19.7897 19.5666 19.8379 19.667 19.8662C19.7674 19.8945 19.8725 19.9024 19.976 19.8894C20.0795 19.8765 20.1794 19.8429 20.2697 19.7907C20.3601 19.7385 20.4391 19.6688 20.502 19.5856C20.5649 19.5024 20.6106 19.4074 20.6362 19.3063C20.6619 19.2052 20.667 19.1 20.6514 18.9968C20.6357 18.8937 20.5995 18.7947 20.545 18.7058ZM5.02543 7.37766C5.02543 6.29604 5.34616 5.23871 5.94708 4.33938C6.54799 3.44005 7.40209 2.73911 8.40138 2.32519C9.40066 1.91127 10.5002 1.80297 11.5611 2.01399C12.6219 2.225 13.5963 2.74585 14.3612 3.51067C15.126 4.27548 15.6468 5.24992 15.8578 6.31076C16.0689 7.37159 15.9606 8.47117 15.5466 9.47046C15.1327 10.4697 14.4318 11.3238 13.5325 11.9248C12.6331 12.5257 11.5758 12.8464 10.4942 12.8464C9.04425 12.8449 7.65415 12.2682 6.6289 11.2429C5.60365 10.2177 5.02698 8.82758 5.02543 7.37766Z" fill="#A1A78F"/>
</svg>
