<svg width="124" height="119" viewBox="0 0 124 119" fill="none" xmlns="http://www.w3.org/2000/svg">
<path d="M112.684 8.75062C112.684 8.75062 58.4143 0.17067 66.9743 54.0507C121.334 62.5307 112.684 8.75062 112.684 8.75062Z" fill="#E7E9E1"/>
<path d="M18.1461 0.500622C18.1461 0.500622 72.4161 -8.07933 63.8561 45.8007C9.4861 54.2907 18.1461 0.500622 18.1461 0.500622Z" fill="#E7E9E1"/>
<path d="M110.357 3.41077C110.357 3.41077 53.9669 -5.57923 62.8569 50.9108C119.347 59.8008 110.357 3.41077 110.357 3.41077Z" stroke="#959B84" stroke-width="2" stroke-miterlimit="10" stroke-linecap="round" stroke-linejoin="round"/>
<path d="M95.6154 18.1406L62.8555 50.9006" stroke="#959B84" stroke-width="2" stroke-miterlimit="10" stroke-linecap="round" stroke-linejoin="round"/>
<path d="M13.4576 3.41077C13.4576 3.41077 69.8477 -5.57923 60.9577 50.9108C4.46766 59.8008 13.4576 3.41077 13.4576 3.41077Z" stroke="#959B84" stroke-width="2" stroke-miterlimit="10" stroke-linecap="round" stroke-linejoin="round"/>
<path d="M30.0977 20.0508L60.9577 50.9008" stroke="#959B84" stroke-width="2" stroke-miterlimit="10" stroke-linecap="round" stroke-linejoin="round"/>
<path d="M65.4286 74.8906C64.5086 69.6406 63.5686 61.6206 63.1986 49.8906H60.6086C60.1686 64.0906 58.8786 72.8506 57.8086 77.8406C57.8186 77.8506 62.4086 76.4606 65.4286 74.8906Z" stroke="#959B84" stroke-width="2" stroke-miterlimit="10" stroke-linecap="round" stroke-linejoin="round"/>
<path d="M36.3161 85.9817L18.3561 75.1217C12.7661 71.6817 5.44608 73.4216 2.00608 79.0016C0.0460789 82.1916 1.03608 86.3616 4.22608 88.3316L19.3461 97.6817L39.3861 110.022C54.7461 119.482 75.8161 119.792 90.8461 112.272C90.8461 112.272 104.986 104.372 122.816 106.772V71.1117L109.246 63.5916C94.0961 55.1316 74.7461 69.5116 74.7461 69.5116C67.3761 74.3716 61.1461 77.5016 52.5661 79.1416C49.3761 79.7516 45.4361 79.7016 42.5161 81.0016C38.8861 82.6116 35.9461 85.3616 35.0261 89.3316C34.3861 92.1216 35.5961 95.6117 37.9961 97.2317C41.2561 99.4317 46.1561 98.6616 49.7761 98.1916C58.7261 97.0416 67.5161 94.6116 75.8861 91.2816C75.9961 91.2416 76.1061 91.1916 76.2161 91.1516" stroke="#959B84" stroke-width="2" stroke-miterlimit="10" stroke-linecap="round" stroke-linejoin="round"/>
<path d="M43.3142 80.6622L23.8142 69.2322C18.8742 66.1922 12.4042 67.7222 9.35423 72.6622L8.82422 73.8123" stroke="#959B84" stroke-width="2" stroke-miterlimit="10" stroke-linecap="round" stroke-linejoin="round"/>
<path d="M54.5873 78.7317L32.2773 65.5617C27.8073 62.8117 22.0873 63.8017 18.7773 67.6817" stroke="#959B84" stroke-width="2" stroke-miterlimit="10" stroke-linecap="round" stroke-linejoin="round"/>
</svg>
