<svg width="20" height="20" viewBox="0 0 254 254" fill="none" xmlns="http://www.w3.org/2000/svg">
<path opacity="0.2" d="M128 129.09V232C126.656 231.994 125.336 231.65 124.16 231L36.16 182.82C34.9034 182.132 33.8545 181.12 33.1228 179.889C32.391 178.657 32.0033 177.252 32 175.82V80.1797C32.0032 79.0593 32.2417 77.9521 32.7 76.9297L128 129.09Z" fill="#A1A78F"/>
<path d="M223.68 66.1502L135.68 18.0002C133.329 16.701 130.686 16.0195 128 16.0195C125.314 16.0195 122.671 16.701 120.32 18.0002L32.32 66.1702C29.8069 67.5452 27.709 69.5698 26.2455 72.0324C24.782 74.4951 24.0065 77.3055 24 80.1702V175.81C24.0065 178.675 24.782 181.485 26.2455 183.948C27.709 186.411 29.8069 188.435 32.32 189.81L120.32 237.98C122.671 239.279 125.314 239.961 128 239.961C130.686 239.961 133.329 239.279 135.68 237.98L223.68 189.81C226.193 188.435 228.291 186.411 229.754 183.948C231.218 181.485 231.993 178.675 232 175.81V80.1802C231.999 77.3104 231.226 74.4937 229.762 72.0253C228.298 69.5569 226.198 67.5277 223.68 66.1502ZM128 32.0002L208.34 76.0002L178.57 92.3002L98.22 48.3002L128 32.0002ZM128 120L47.66 76.0002L81.56 57.4402L161.9 101.44L128 120ZM40 90.0002L120 133.78V219.57L40 175.82V90.0002ZM216 175.78L136 219.57V133.82L168 116.31V152C168 154.122 168.843 156.157 170.343 157.657C171.843 159.157 173.878 160 176 160C178.122 160 180.157 159.157 181.657 157.657C183.157 156.157 184 154.122 184 152V107.55L216 90.0002V175.77V175.78Z" fill="#A1A78F"/>
</svg>
