<svg width="20" height="20" viewBox="0 0 254 254" fill="none" xmlns="http://www.w3.org/2000/svg">
<path opacity="0.2" d="M224 56V200C224 204.243 222.314 208.313 219.314 211.314C216.313 214.314 212.243 216 208 216H48V40H208C212.243 40 216.313 41.6857 219.314 44.6863C222.314 47.6869 224 51.7565 224 56Z" fill="#A1A78F"/>
<path d="M120 216C120 218.122 119.157 220.157 117.657 221.657C116.157 223.157 114.122 224 112 224H48C45.8783 224 43.8434 223.157 42.3431 221.657C40.8429 220.157 40 218.122 40 216V40C40 37.8783 40.8429 35.8434 42.3431 34.3431C43.8434 32.8429 45.8783 32 48 32H112C114.122 32 116.157 32.8429 117.657 34.3431C119.157 35.8434 120 37.8783 120 40C120 42.1217 119.157 44.1566 117.657 45.6569C116.157 47.1571 114.122 48 112 48H56V208H112C114.122 208 116.157 208.843 117.657 210.343C119.157 211.843 120 213.878 120 216ZM229.66 122.34L189.66 82.34C188.159 80.8389 186.123 79.9956 184 79.9956C181.877 79.9956 179.841 80.8389 178.34 82.34C176.839 83.8411 175.996 85.8771 175.996 88C175.996 90.1229 176.839 92.1589 178.34 93.66L204.69 120H112C109.878 120 107.843 120.843 106.343 122.343C104.843 123.843 104 125.878 104 128C104 130.122 104.843 132.157 106.343 133.657C107.843 135.157 109.878 136 112 136H204.69L178.34 162.34C176.839 163.841 175.996 165.877 175.996 168C175.996 170.123 176.839 172.159 178.34 173.66C179.841 175.161 181.877 176.004 184 176.004C186.123 176.004 188.159 175.161 189.66 173.66L229.66 133.66C230.404 132.917 230.994 132.035 231.396 131.064C231.799 130.092 232.006 129.051 232.006 128C232.006 126.949 231.799 125.908 231.396 124.936C230.994 123.965 230.404 123.083 229.66 122.34Z" fill="#A1A78F"/>
</svg>
