<svg width="20" height="20" viewBox="0 0 254 254" fill="none" xmlns="http://www.w3.org/2000/svg">
<path opacity="0.2" d="M128 24C106.783 24 86.4344 32.4285 71.4315 47.4315C56.4285 62.4344 48 82.7827 48 104C48 176 128 232 128 232C128 232 208 176 208 104C208 82.7827 199.571 62.4344 184.569 47.4315C169.566 32.4285 149.217 24 128 24ZM128 136C121.671 136 115.484 134.123 110.222 130.607C104.959 127.091 100.858 122.093 98.4359 116.246C96.0138 110.399 95.3801 103.965 96.6149 97.7571C97.8496 91.5497 100.897 85.8479 105.373 81.3726C109.848 76.8973 115.55 73.8496 121.757 72.6149C127.965 71.3801 134.399 72.0138 140.246 74.4359C146.093 76.8579 151.091 80.9594 154.607 86.2218C158.123 91.4841 160 97.671 160 104C160 112.487 156.629 120.626 150.627 126.627C144.626 132.629 136.487 136 128 136Z" fill="#A1A78F"/>
<path d="M128 64C120.089 64 112.355 66.346 105.777 70.7412C99.1992 75.1365 94.0723 81.3836 91.0448 88.6927C88.0173 96.0017 87.2252 104.044 88.7686 111.804C90.312 119.563 94.1216 126.69 99.7157 132.284C105.31 137.878 112.437 141.688 120.196 143.231C127.956 144.775 135.998 143.983 143.307 140.955C150.616 137.928 156.864 132.801 161.259 126.223C165.654 119.645 168 111.911 168 104C168 93.3913 163.786 83.2172 156.284 75.7157C148.783 68.2143 138.609 64 128 64ZM128 128C123.253 128 118.613 126.592 114.666 123.955C110.72 121.318 107.643 117.57 105.827 113.184C104.01 108.799 103.535 103.973 104.461 99.3178C105.387 94.6623 107.673 90.3859 111.029 87.0294C114.386 83.673 118.662 81.3872 123.318 80.4612C127.973 79.5351 132.799 80.0104 137.184 81.8269C141.57 83.6434 145.318 86.7195 147.955 90.6663C150.592 94.6131 152 99.2532 152 104C152 110.365 149.471 116.47 144.971 120.971C140.47 125.471 134.365 128 128 128ZM128 16C104.669 16.0265 82.3013 25.3064 65.8038 41.8038C49.3064 58.3013 40.0265 80.6691 40 104C40 135.4 54.51 168.68 82 200.25C94.3523 214.516 108.255 227.361 123.45 238.55C124.795 239.492 126.398 239.998 128.04 239.998C129.682 239.998 131.285 239.492 132.63 238.55C147.797 227.357 161.673 214.511 174 200.25C201.45 168.68 216 135.4 216 104C215.974 80.6691 206.694 58.3013 190.196 41.8038C173.699 25.3064 151.331 16.0265 128 16ZM128 222C111.47 209 56 161.25 56 104C56 84.9044 63.5857 66.5909 77.0883 53.0883C90.5909 39.5857 108.904 32 128 32C147.096 32 165.409 39.5857 178.912 53.0883C192.414 66.5909 200 84.9044 200 104C200 161.23 144.53 209 128 222Z" fill="#A1A78F"/>
</svg>
