<svg width="46" height="54" viewBox="0 0 46 54" fill="none" xmlns="http://www.w3.org/2000/svg">
<path d="M22.8821 43.8201C23.2721 43.0001 23.6821 42.1801 24.0621 41.3601C25.5121 38.2101 28.0821 36.0501 30.5921 33.8001C32.8121 31.8001 34.8321 29.5901 36.9521 27.4801C37.3721 27.0601 37.7521 26.5301 38.2721 26.3001C38.6721 26.1201 39.2921 26.2201 39.7021 26.4301C39.8521 26.5101 39.8221 27.3201 39.6321 27.6501C38.1221 30.2801 36.5521 32.8901 35.0021 35.5001C34.8421 35.7601 34.7021 36.0301 34.6521 36.3501C37.5521 33.0501 40.1121 29.5301 41.4521 25.2901C41.8921 23.8901 42.0921 22.4101 42.4421 20.9701C42.6021 20.3201 42.7321 19.6001 43.1021 19.0701C43.4221 18.6101 44.1321 18.0401 44.5221 18.1301C44.9621 18.2301 45.4821 19.0101 45.5221 19.5301C45.6121 20.6701 45.5221 21.8501 45.3421 22.9901C44.3221 29.4301 42.1521 35.4701 38.4521 40.8401C37.2821 42.5401 35.5321 43.8801 33.9121 45.2201C30.8521 47.7201 27.6921 50.0901 24.5821 52.5401C23.3921 53.4801 22.2021 53.4701 20.9821 52.5201C17.8121 50.0301 14.6721 47.5001 11.4221 45.1101C8.82208 43.1901 6.79208 40.8701 5.31208 38.0001C2.70208 32.9501 0.782082 27.6901 0.122082 22.0201C0.0220822 21.1501 -0.0679171 20.2501 0.0720829 19.4001C0.152083 18.9101 0.632085 18.2801 1.08209 18.1201C1.39209 18.0101 2.10208 18.5001 2.36208 18.9001C2.74208 19.4801 3.02208 20.2001 3.11208 20.8901C3.77208 26.4301 6.46208 30.9901 9.85208 35.2401C10.1721 35.6401 10.5021 36.0401 11.0421 36.3301C10.8521 36.0001 10.6721 35.6601 10.4821 35.3301C8.97208 32.7901 7.44208 30.2501 5.97208 27.6901C5.77208 27.3501 5.86208 26.8401 5.82208 26.4101C6.34208 26.3801 6.88208 26.2701 7.39208 26.3401C7.66208 26.3701 7.96208 26.6601 8.14208 26.9001C10.5721 30.2901 13.7621 32.9001 16.9221 35.5301C18.9921 37.2501 20.5521 39.3401 21.6921 41.7601C21.7821 41.9401 21.8721 42.1201 21.9821 42.2801C22.0221 42.3301 22.1121 42.3501 22.2521 42.4301C22.7521 38.0901 22.7221 33.8001 21.7021 29.5801C21.5521 28.9601 20.8621 28.3301 20.2521 28.0101C19.2421 27.4601 18.1121 27.1301 17.0121 26.7601C15.0021 26.0901 13.4921 24.8201 12.6221 22.9201C10.1321 17.4401 8.16208 11.8001 7.72208 5.73009C7.71208 5.55009 7.74208 5.36009 7.78208 4.84009C8.26208 6.02009 8.48208 7.00009 9.00208 7.77009C11.1621 10.9401 13.3321 14.0901 15.6421 17.1501C18.1521 20.4801 20.6621 23.7901 21.7621 27.9101C22.1721 29.4401 22.4821 30.9901 22.9421 32.5601C23.2621 25.9601 26.6921 20.8801 30.6821 16.0201C32.4021 13.9201 33.9821 11.7001 35.4821 9.44009C36.3521 8.13009 36.9221 6.64009 37.7721 4.94009C37.6121 6.53009 37.6621 7.93008 37.2921 9.20008C36.0621 13.4501 34.7721 17.6901 33.3221 21.8701C32.4221 24.4501 30.5121 26.0901 27.8421 26.9901C23.0821 28.5901 23.8421 28.1801 23.3421 32.9501C23.0021 36.1201 22.9621 39.3301 22.7721 42.5101C22.7521 42.9301 22.6621 43.3401 22.6121 43.7601C22.7021 43.7801 22.7921 43.8001 22.8821 43.8201Z" fill="#B8C2B1"/>
<path d="M16.0719 5.24C16.1719 3.81 16.2419 2.37 16.3919 0.940002C16.4219 0.610002 16.7319 0.31 16.9219 0C17.1519 0.24 17.4219 0.440001 17.5919 0.720001C18.4219 2.08 19.2219 3.46 20.0219 4.84C22.9319 9.82 24.3419 15.2 24.2519 20.96C24.2419 21.42 23.9819 21.87 23.8419 22.33C23.4119 22.1 22.9019 21.96 22.5519 21.64C17.6819 17.25 16.0219 11.59 16.0719 5.24Z" fill="#B8C2B1"/>
<path d="M25.022 11.55C25.082 8.16996 25.642 5.24995 26.892 2.48995C27.032 2.17995 27.382 1.95995 27.642 1.69995C27.802 1.98995 28.012 2.25995 28.132 2.56995C28.582 3.78995 29.072 5.00996 29.422 6.26996C29.652 7.08996 29.932 8.05995 29.702 8.80995C29.182 10.51 28.392 12.12 27.652 13.74C27.502 14.07 27.112 14.33 26.782 14.53C25.962 15.01 25.382 14.76 25.232 13.81C25.092 12.95 25.072 12.07 25.022 11.55Z" fill="#B8C2B1"/>
</svg>
