<svg width="110" height="141" viewBox="0 0 110 141" fill="none" xmlns="http://www.w3.org/2000/svg">
<path d="M60.6113 107.511C83.1611 107.511 101.441 90.0768 101.441 68.5708C101.441 47.0649 83.1611 29.6309 60.6113 29.6309C38.0615 29.6309 19.7812 47.0649 19.7812 68.5708C19.7812 90.0768 38.0615 107.511 60.6113 107.511Z" fill="#E7E9E1"/>
<path d="M28.5416 92.1793H28.5316C28.5316 92.1793 35.3316 97.3893 39.0416 110.959H70.1116C73.8316 97.3893 80.6216 92.1793 80.6216 92.1793H80.6116C88.8516 84.9393 94.0616 74.3393 94.0616 62.5093C94.0616 40.6993 76.3816 23.0293 54.5816 23.0293C32.7716 23.0293 15.1016 40.7093 15.1016 62.5093C15.1016 74.3393 20.3016 84.9493 28.5416 92.1793Z" stroke="#959B84" stroke-width="2" stroke-miterlimit="10" stroke-linecap="round" stroke-linejoin="round"/>
<path d="M70.2297 110.959H38.9297V130.299H70.2297V110.959Z" stroke="#959B84" stroke-width="2" stroke-miterlimit="10" stroke-linecap="round" stroke-linejoin="round"/>
<path d="M45.832 130.309C45.832 135.139 49.752 139.059 54.582 139.059C59.412 139.059 63.332 135.139 63.332 130.309H45.832Z" stroke="#959B84" stroke-width="2" stroke-miterlimit="10" stroke-linecap="round" stroke-linejoin="round"/>
<path d="M38.9297 120.629H70.2297" stroke="#959B84" stroke-width="2" stroke-miterlimit="10" stroke-linecap="round" stroke-linejoin="round"/>
<path d="M63.3219 110.959C63.3219 110.959 63.4519 79.7592 75.9719 69.9492H54.5719H33.1719C45.7019 79.7592 45.8219 110.959 45.8219 110.959" stroke="#959B84" stroke-width="2" stroke-miterlimit="10" stroke-linecap="round" stroke-linejoin="round"/>
<path d="M54.5781 1V11.75" stroke="#959B84" stroke-width="2" stroke-miterlimit="10" stroke-linecap="round" stroke-linejoin="round"/>
<path d="M23.6484 9.28906L29.0185 18.5991" stroke="#959B84" stroke-width="2" stroke-miterlimit="10" stroke-linecap="round" stroke-linejoin="round"/>
<path d="M1 31.9297L10.32 37.3097" stroke="#959B84" stroke-width="2" stroke-miterlimit="10" stroke-linecap="round" stroke-linejoin="round"/>
<path d="M108.15 31.9297L98.8398 37.3097" stroke="#959B84" stroke-width="2" stroke-miterlimit="10" stroke-linecap="round" stroke-linejoin="round"/>
<path d="M85.5089 9.28906L80.1289 18.5991" stroke="#959B84" stroke-width="2" stroke-miterlimit="10" stroke-linecap="round" stroke-linejoin="round"/>
</svg>
