<svg width="126" height="134" viewBox="0 0 126 134" fill="none" xmlns="http://www.w3.org/2000/svg">
<path d="M125.21 62.41C125.21 62.41 48.4101 50.36 60.5301 126.03C137.46 137.96 125.21 62.41 125.21 62.41Z" fill="#DDDFD2"/>
<path d="M55.21 109.4C25.28 109.4 1.01001 85.13 1.01001 55.2C1.01001 25.27 25.28 1 55.21 1C85.14 1 109.41 25.27 109.41 55.2C109.41 55.66 109.4 56.12 109.39 56.58" stroke="#959B84" stroke-width="2" stroke-miterlimit="10" stroke-linecap="round" stroke-linejoin="round"/>
<path d="M55.21 1V109.4" stroke="#959B84" stroke-width="2" stroke-miterlimit="10" stroke-linecap="round" stroke-linejoin="round"/>
<path d="M43.7101 2.19C43.7101 2.19 1.72007 54.09 43.7101 108.21" stroke="#959B84" stroke-width="2" stroke-miterlimit="10" stroke-linecap="round" stroke-linejoin="round"/>
<path d="M66.7001 2.19C66.7001 2.19 86.8201 27.05 85.2801 60.3" stroke="#959B84" stroke-width="2" stroke-miterlimit="10" stroke-linecap="round" stroke-linejoin="round"/>
<path d="M98.8701 57.28C102.3 56.08 105.78 54.73 109.32 53.2" stroke="#959B84" stroke-width="2" stroke-miterlimit="10" stroke-linecap="round" stroke-linejoin="round"/>
<path d="M1 54.27C1.03 54.25 33.43 71.94 79.76 62.54" stroke="#959B84" stroke-width="2" stroke-miterlimit="10" stroke-linecap="round" stroke-linejoin="round"/>
<path d="M11.78 22.76C11.78 22.76 48.98 42.54 98.63 22.76" stroke="#959B84" stroke-width="2" stroke-miterlimit="10" stroke-linecap="round" stroke-linejoin="round"/>
<path d="M11.78 86.94C11.78 86.94 29.1 96.15 55.88 95.72" stroke="#959B84" stroke-width="2" stroke-miterlimit="10" stroke-linecap="round" stroke-linejoin="round"/>
<path d="M120.65 57.28C120.65 57.28 44.39 45.12 56.42 121.51C132.81 133.55 120.65 57.28 120.65 57.28Z" stroke="#959B84" stroke-width="2" stroke-miterlimit="10" stroke-linecap="round" stroke-linejoin="round"/>
<path d="M103.35 74.58L45.38 132.55" stroke="#959B84" stroke-width="2" stroke-miterlimit="10" stroke-linecap="round" stroke-linejoin="round"/>
</svg>
