<svg width="77" height="87" viewBox="0 0 77 87" fill="none" xmlns="http://www.w3.org/2000/svg">
<path d="M23.681 43.0366C24.4657 43.0129 25.2505 42.9892 26.0352 42.9655C28.114 42.5983 29.6746 43.9546 31.4424 44.6149C31.9251 44.7955 32.7927 44.9022 32.6447 45.6306C32.5114 46.2821 31.7681 46.5042 31.0989 46.5486C30.7584 46.5723 30.3793 46.6286 30.0743 46.516C27.7053 45.6425 25.3837 45.8675 23.0769 46.7411C22.9437 46.7914 22.7838 46.8092 22.6387 46.8003C21.5252 46.7381 21.0337 47.36 20.6102 48.3253C19.3991 51.0763 18.2856 53.9517 15.1319 55.1628C15.1438 56.0808 15.6472 55.9594 16.2069 55.6574C18.6321 54.3426 21.1492 53.1433 23.2576 51.3458C25.8753 49.113 28.8276 49.5543 31.7859 50.0695C33.0829 50.2946 34.3267 50.8276 35.5941 51.2273C35.9494 51.3399 36.4706 51.3043 36.5328 51.7752C36.5979 52.2756 36.0767 52.3526 35.7332 52.4948C33.6308 53.3654 31.3921 53.4572 29.1889 53.3505C27.6461 53.2765 26.6748 53.7325 25.6976 54.9141C24.5131 56.3444 23.0296 57.5318 21.6615 58.8051C20.9241 59.4892 20.3526 60.2887 19.9943 61.2156C19.3843 62.8028 20.3526 64.1235 22.0583 64.0376C23.0858 63.9873 23.9298 63.4809 24.7204 62.862C26.6482 61.3488 28.0933 59.4122 29.4465 57.4134C31.1196 54.9407 33.5627 54.0435 36.3847 53.8658C36.7726 53.8421 37.2583 53.848 37.4656 54.2123C37.7173 54.6594 37.2346 54.917 36.974 55.1569C32.5499 59.2316 29.8907 64.3841 27.6639 69.8742C25.5377 75.1127 22.1974 79.4094 17.1071 82.2048C15.5643 83.0517 14.208 84.2421 12.7807 85.2934C12.4698 85.5214 12.0848 85.8442 12.4046 86.2706C12.7481 86.7266 13.0887 86.3742 13.3937 86.1166C15.4281 84.3872 17.7023 83.0043 19.938 81.5652C24.4717 78.6484 27.0183 74.1976 28.9579 69.4152C31.0249 64.319 33.7018 59.7142 37.6847 55.8735C39.2778 54.3396 39.1772 54.236 37.6492 52.8264C37.8239 52.7317 37.9867 52.6339 38.1585 52.551C39.8523 51.7367 41.2885 50.4426 42.9498 49.652C44.6377 48.8495 46.5714 49.8889 48.4399 49.649C57.1933 48.5119 64.6971 44.8015 71.1703 38.8849C71.351 38.7191 71.5257 38.5414 71.6767 38.346C71.9017 38.0528 72.3252 37.8041 72.0261 37.3362C71.7448 36.892 71.3273 37.043 70.966 37.1763C69.9503 37.5524 68.9227 37.9107 67.9455 38.3697C64.5283 39.9835 60.957 41.0111 57.2111 41.5204C54.3091 41.9143 51.564 42.8678 48.9907 44.2803C48.8693 44.3484 48.7479 44.4165 48.6264 44.4846C48.511 44.6386 48.3718 44.7719 48.1941 44.606C48.1556 44.5675 48.2533 44.381 48.2918 44.2625C48.3896 44.153 48.4873 44.0434 48.585 43.9338C49.657 42.0801 50.8503 40.5284 53.2193 40.0694C59.7429 38.805 65.2745 35.6661 69.7697 30.7445C70.1132 30.327 70.4537 29.9094 70.7972 29.4948C72.4348 27.5167 74.0042 25.4942 74.9192 23.0542C75.0495 22.7107 75.3782 22.2813 74.9311 21.9852C74.4454 21.6624 74.1079 22.0622 73.8177 22.4027C71.9136 24.6414 69.6364 26.4359 67.1667 27.9935C66.1244 28.6509 65.0672 29.2935 63.9686 29.8413C59.9117 31.8698 56.6247 34.9524 53.1009 37.7123C52.9972 37.7685 52.8492 37.8988 52.7959 37.8692C52.5827 37.7508 52.713 37.5909 52.8018 37.4487C53.471 36.2465 54.158 35.0501 54.8095 33.836C55.7008 32.1748 56.8972 30.86 58.3748 29.6281C64.1048 24.8368 68.4697 19.1453 69.3936 11.3958C69.5446 10.1373 69.7963 8.86097 70.4419 7.72386C70.6255 7.39812 70.6639 7.08423 70.4715 6.75554C68.8073 6.81476 67.6524 7.82158 66.5567 8.90243C64.9606 10.4837 63.9035 12.4441 62.8048 14.3718C62.5709 14.7805 62.3429 15.1891 61.9431 15.8939C61.7358 13.5693 62.2007 11.6505 62.3014 9.71381C62.4524 6.74073 62.3103 3.80022 61.5552 0.907099C61.4604 0.542867 61.4456 0.0513015 60.9393 0.00392174C60.3589 -0.0493805 60.2138 0.45107 60.1042 0.871566C59.3224 3.89499 57.9514 6.67262 56.6188 9.47987C54.7059 13.5012 54.8658 17.8128 55.1441 22.1214C55.2359 23.5487 55.2537 24.979 55.3188 26.4063C55.5143 30.7267 53.625 34.3246 51.3626 37.7893C51.2945 37.8929 51.1198 37.9284 50.9717 38.0084C50.5542 37.4428 50.9688 36.9631 51.0991 36.4952C52.2243 32.4887 53.0594 28.4407 52.9321 24.2535C52.8462 21.4521 52.3813 18.7426 50.5157 16.498C50.2018 16.1219 49.9057 15.4112 49.2631 15.6866C48.5583 15.9916 49.0469 16.6372 49.1002 17.1317C49.3638 19.5777 48.8545 21.9585 48.3688 24.3157C47.1399 30.2737 45.9643 36.2642 46.6306 42.3525C46.9445 45.2101 44.9575 46.1784 43.5302 47.7301C43.3584 47.9167 43.0712 48.0203 42.8698 47.8397C42.547 47.5465 42.7899 47.1941 42.8965 46.8832C44.306 42.7227 44.4482 38.4703 43.8144 34.1677C43.6575 33.0957 43.4443 32.0237 43.1482 30.9843C42.5589 28.9174 42.2805 26.8416 42.6329 24.7006C42.6921 24.3364 42.9083 23.8744 42.4197 23.6494C41.9814 23.448 41.6705 23.8182 41.3892 24.0669C39.7961 25.4853 39.1268 27.3716 38.7774 29.4031C38.1703 32.9476 38.5346 36.4863 38.9047 40.0191C39.2186 43.0099 39.5029 46.0067 39.8819 48.9887C40.0478 50.2916 39.3756 50.8957 38.3362 51.3191C38.1674 51.3873 37.8476 51.4731 37.815 51.4198C36.9799 50.0192 35.3483 50.3567 34.1727 49.7142C34.0986 49.6727 34.0631 49.5602 34.0098 49.4802C33.4738 49.4625 32.9645 49.3381 32.4403 49.2256C28.9639 48.4764 25.517 48.0026 22.5024 50.6588C21.8154 51.2629 21.0722 51.8433 20.1838 52.172C20.0861 52.2164 19.9854 52.2608 19.8877 52.3052C19.9291 52.2016 19.9676 52.098 20.0091 51.9943C20.1868 51.5916 20.323 51.1652 20.548 50.792C21.1077 49.8741 21.1936 48.2454 22.0731 48.0529C23.9742 47.6354 25.7835 46.4331 27.886 47.0639C29.2511 47.4725 30.6458 47.8219 32.082 47.3422C32.9882 47.0402 33.6633 46.4835 33.7463 45.4914C33.8232 44.5735 33.0681 44.2388 32.387 43.9605C30.4208 43.155 28.6115 41.9291 26.278 41.8432C26.9532 40.9726 27.6254 40.327 27.8712 39.3824C28.1821 38.1861 28.0103 37.3303 26.6126 37.12C26.4202 37.1585 26.2277 37.2 26.0382 37.2385C22.7009 38.1713 19.0911 38.1772 15.8486 40.4958C16.1151 38.7902 16.0055 37.4961 15.0579 36.4241C14.8684 36.3235 14.6789 36.2228 14.4864 36.1221C13.829 36.1221 13.5773 36.6433 13.296 37.0875C11.9605 39.2018 10.699 41.3546 9.59739 43.6051C8.50469 45.8379 7.5956 48.0736 8.18192 50.6292C8.2293 51.1178 8.27668 51.6064 8.32406 52.095C8.64091 53.3417 8.86301 54.6091 8.47212 55.8676C7.99833 57.3867 7.81177 58.9384 7.74958 60.5197C7.6489 63.0782 7.5038 65.6338 7.39128 68.1893C7.26394 71.0291 6.1594 73.3152 3.70454 74.8758C2.99976 75.3229 2.33349 75.8322 1.66425 76.3356C1.40366 76.534 1.03646 76.771 1.33258 77.1648C1.54283 77.4461 1.86265 77.3484 2.12916 77.1766C5.31544 75.1452 8.20265 72.9273 8.33295 68.6394C8.40994 66.0868 8.65868 63.5372 8.83043 60.9846C8.83931 60.7862 8.84524 60.5878 8.85413 60.3894C8.60834 57.6325 9.71584 55.1865 10.6249 52.6932C10.6457 52.5954 10.6664 52.4977 10.6901 52.403C11.2616 50.0162 11.922 47.6472 12.378 45.2397C12.6741 43.6821 13.521 42.7878 14.824 41.9824C18.339 39.8118 22.2478 38.959 26.2247 38.2512C27.2197 38.0735 27.0716 38.7043 26.8821 39.2018C26.1951 41.017 24.7056 41.778 22.8963 42.0238C21.7266 42.1808 20.551 42.2844 19.3754 42.3762C18.1613 42.4739 17.2907 43.004 16.6422 44.073C15.4192 46.0866 14.1014 48.0411 12.8222 50.0192C12.7985 50.1968 12.7748 50.3715 12.7511 50.5492C13.3049 51.026 13.832 50.8276 14.0392 50.2738C14.3709 49.3884 15.0016 48.7073 15.4399 47.8989C17.8592 43.4304 18.3005 43.1758 23.3879 42.9981C23.4856 42.9951 23.5833 43.0218 23.681 43.0366ZM65.1235 40.863C65.1738 40.5077 65.4433 40.5965 65.6595 40.6113C65.7098 40.6143 65.7542 40.7061 65.7986 40.7594C65.5677 40.786 65.3337 40.8127 65.1028 40.8423C64.3328 41.5796 63.3082 41.8017 62.3577 42.1393C57.7293 43.7798 52.8669 44.6682 48.2741 46.4331C48.2356 46.4479 48.1497 46.3502 48.0401 46.2732C53.0535 42.243 59.429 42.6131 65.1235 40.863ZM49.4763 37.9373C49.4319 38.1653 49.3904 38.3934 49.3342 38.6806C49.0766 38.3341 49.1299 38.0765 49.3549 37.8337C49.4438 34.9761 49.6925 32.1392 50.2759 29.3349C50.3677 28.8908 50.9125 28.1238 50.0923 27.9757C49.4023 27.8514 49.4734 28.7072 49.346 29.1958C48.8633 31.0613 48.662 32.9713 48.5287 34.8873C48.3925 36.8091 48.2237 38.728 47.6611 40.5817C46.8764 32.924 49.7547 25.7222 50.2403 18.1119C53.0298 21.2922 51.9875 31.5677 49.4763 37.9373ZM59.8199 24.0166C59.734 24.0817 59.6452 24.1439 59.5593 24.209C59.5682 24.0876 59.5771 23.9633 59.583 23.8419C61.4456 17.9934 64.3328 12.7698 68.7925 8.03479C68.3779 16.8978 64.2825 23.3148 58.0965 28.6539C58.0935 27.2473 58.0994 27.2532 58.9671 26.4359C61.8424 23.7293 64.1344 20.626 65.4492 16.8652C65.615 16.3914 66.1155 15.7103 65.4611 15.4349C64.6645 15.1003 64.7326 16.0479 64.5757 16.4625C63.4978 19.3052 62.0083 21.8756 59.8199 24.0166ZM56.3878 28.8286C56.3701 25.8229 56.2457 22.8735 55.994 19.9241C55.5765 15.044 56.761 10.543 59.281 6.37057C59.4498 6.08926 59.583 5.68061 59.9354 6.07149C59.3876 9.394 58.2771 12.527 57.9751 15.8258C57.9395 16.2256 57.6701 16.8682 58.2593 16.9629C58.9997 17.0843 58.8516 16.344 58.9079 15.9117C59.3609 12.4056 60.4892 9.04753 61.1584 5.59177C61.5611 13.7559 59.737 21.4551 56.3878 28.8286ZM57.4953 37.7449C57.7234 37.0134 58.2297 36.972 58.588 36.7617C61.1821 35.2485 63.7406 33.682 66.0829 31.7898C66.382 31.5499 66.8084 31.2864 66.4087 30.8541C66.1066 30.5283 65.7957 30.8096 65.5055 31.014C64.1019 32.0119 62.7219 33.0483 61.2739 33.9752C59.8495 34.8873 58.4459 35.8615 56.7758 36.3353C61.1969 31.6566 67.4777 29.7673 72.3163 25.7222C68.4134 30.9607 64.1552 35.7194 57.4953 37.7449ZM29.3666 55.8439C28.0636 57.6236 26.894 59.3767 25.4222 60.9017C24.6316 61.719 23.7728 62.4652 22.7097 62.9035C22.1501 63.1345 21.5341 63.1818 21.0455 62.714C20.4799 62.1691 20.853 61.6242 21.1255 61.1031C21.543 60.3065 22.1412 59.655 22.8252 59.0805C24.1459 57.9701 25.4903 56.8685 26.5416 55.5034C27.2937 54.5291 28.0873 54.1412 29.2718 54.5647C28.7418 55.0681 27.4329 54.612 27.5454 55.5567C27.658 56.4717 28.6085 55.6011 29.3666 55.8439ZM46.6928 48.4941C52.0467 45.6691 57.9632 44.763 63.634 43.0573C58.4104 46.2466 52.9173 48.5682 46.6928 48.4941ZM40.3409 27.6352C39.8257 33.9989 42.778 40.2915 40.8088 46.6759C40.2166 40.3359 38.4487 34.0255 40.3409 27.6352ZM14.3857 37.3332C15.3955 38.9234 15.2178 40.6972 13.9089 41.3901C12.4579 42.1601 11.8094 43.3505 11.4689 44.8725C10.924 47.3156 10.2814 49.7349 9.6803 52.1631C9.22427 50.5611 8.64684 48.8969 9.15025 47.3718C10.3347 43.7798 12.1737 40.481 14.3857 37.3332ZM41.5224 29.258C42.9705 33.759 43.6486 38.3104 42.6596 42.9951C42.8846 38.3608 41.2086 33.8923 41.5224 29.258ZM56.376 36.8713C56.3405 36.7824 56.2724 36.6966 56.2872 36.6285C56.3049 36.5515 56.4145 36.4271 56.453 36.4389C56.6099 36.4774 56.6603 36.6018 56.5655 36.744C56.527 36.8002 56.4441 36.8269 56.376 36.8713ZM64.1522 42.6309C64.2351 42.6664 64.318 42.7049 64.4009 42.7405C64.3151 42.8056 64.2351 42.9033 64.1374 42.927C64.0841 42.9418 63.9982 42.8323 63.9301 42.7789C64.0041 42.7316 64.0782 42.6812 64.1522 42.6309ZM42.7218 48.2099C42.6833 48.1714 42.6507 48.1388 42.6151 48.1032C42.6803 48.0707 42.7454 48.0263 42.8135 48.0114C42.8372 48.0055 42.8787 48.0707 42.9113 48.1032C42.8491 48.1388 42.7839 48.1743 42.7218 48.2099Z" fill="#A1A68F"/>
<path d="M70.4626 6.75555C70.6521 7.08425 70.6166 7.39814 70.433 7.72388C69.7904 8.86099 69.5357 10.1373 69.3847 11.3958C68.4608 19.1454 64.096 24.8339 58.366 29.6281C56.8913 30.863 55.692 32.1777 54.8006 33.836C54.1492 35.0501 53.4622 36.2465 52.7929 37.4487C52.8936 37.5376 52.9943 37.6264 53.095 37.7153C56.6188 34.9554 59.9028 31.8727 63.9627 29.8443C65.0613 29.2935 66.1214 28.6509 67.1608 27.9965C69.6305 26.4389 71.9106 24.6444 73.8118 22.4057C74.102 22.0622 74.4425 21.6624 74.9252 21.9881C75.3694 22.2843 75.0407 22.7136 74.9133 23.0571C74.0013 25.4972 72.4289 27.5168 70.7913 29.4978C70.4478 29.9124 70.1073 30.3329 69.7638 30.7475C70.6107 30.786 71.2829 30.5816 71.6767 29.7051C71.8425 29.335 72.2334 29.0033 72.6036 28.8019C73.3824 28.3755 73.6489 27.8928 73.9065 26.9364C74.1997 25.8525 74.9785 24.6325 75.8224 23.7175C76.391 23.1016 76.5065 22.4264 76.3999 21.8608C76.2755 21.1945 75.5056 21.3841 74.9015 21.3959C73.563 21.4225 72.6421 21.8342 71.653 22.9209C70.353 24.3512 68.5467 25.3462 66.8914 26.4211C66.1747 26.886 65.8372 27.6944 65.0524 28.0824C64.5253 28.343 64.0604 28.6006 63.5896 28.1268C63.175 27.7092 63.3201 27.1999 63.5896 26.7616C64.0634 25.9858 64.8659 25.4084 64.7178 24.2861C64.6586 23.833 65.239 23.6168 65.7306 23.679C66.8025 23.8123 66.9624 23.1934 66.9002 22.3316C66.7936 20.8303 67.1046 19.5451 68.7273 18.9736C69.2574 18.787 69.6364 18.3547 69.4114 17.8483C68.5941 16.0153 69.6749 14.3126 69.9118 12.6218C70.0806 11.4077 70.8387 10.0425 71.3658 8.75735C71.8425 7.59062 71.4724 6.88881 70.4626 6.75555Z" fill="#FBFFF3"/>
<path d="M12.8224 50.0192C14.1017 48.0411 15.4224 46.0867 16.6424 44.073C17.2909 43.004 18.1615 42.471 19.3756 42.3763C20.5513 42.2815 21.7298 42.1808 22.8966 42.0239C24.7059 41.781 26.1954 41.017 26.8824 39.2018C27.0719 38.7043 27.22 38.0736 26.225 38.2513C22.248 38.959 18.3392 39.8118 14.8242 41.9824C13.5243 42.7849 12.6744 43.6822 12.3783 45.2398C11.9193 47.6473 11.2619 50.0162 10.6903 52.403C11.3211 52.3675 11.8837 52.329 11.6527 51.3962C11.4307 50.4841 11.8689 49.9985 12.8224 50.0192Z" fill="#FBFFF3"/>
<path d="M8.83326 60.9846C8.66151 63.5372 8.41277 66.0838 8.33578 68.6394C8.20548 72.9302 5.31828 75.1452 2.13199 77.1766C1.86548 77.3454 1.54566 77.4461 1.33542 77.1648C1.03929 76.7709 1.40648 76.534 1.66707 76.3356C2.33335 75.8322 3.00259 75.3229 3.70737 74.8757C6.16223 73.3152 7.26676 71.0291 7.3941 68.1893C7.50662 65.6337 7.65469 63.0782 7.75241 60.5197C7.8146 58.9384 8.00116 57.3867 8.47496 55.8676C8.8688 54.6061 8.64375 53.3417 8.32689 52.095C7.90936 54.2123 7.07133 56.2733 6.70413 58.3195C6.43762 59.809 6.53238 61.6627 6.67452 63.3625C6.81666 65.0474 7.03579 66.8508 6.22737 68.4972C6.08819 68.7786 6.08524 68.9592 6.18 69.2849C6.5235 70.4546 6.05562 71.2986 4.84448 71.5384C4.00941 71.7043 3.4912 71.9678 3.506 72.9361C3.51489 73.5077 3.16842 73.9193 2.55249 74.0999C2.13199 74.2213 1.66707 74.3931 1.37095 74.6921C0.648408 75.4206 -0.257727 76.2557 0.0680083 77.3365C0.405589 78.4529 1.56639 77.7481 2.35408 77.9169C4.66088 78.4085 5.416 76.386 6.83443 75.3584C8.66151 74.0348 7.91232 71.6065 9.41366 70.1792C9.85488 69.7617 9.71867 68.9148 9.49954 68.21C8.83622 66.0957 9.44624 63.9369 9.38998 61.7989C9.37517 61.3192 9.36036 61.0231 8.83326 60.9846Z" fill="#FBFFF3"/>
<path d="M26.6186 37.1141C28.0163 37.3243 28.188 38.1801 27.8771 39.3765C27.6313 40.3211 26.9591 40.9666 26.284 41.8372C28.6145 41.9231 30.4267 43.1491 32.393 43.9545C33.0741 44.2329 33.8292 44.5675 33.7522 45.4855C33.6663 46.4775 32.9941 47.0342 32.088 47.3363C30.6518 47.816 29.257 47.4665 27.8919 47.0579C25.7894 46.4272 23.9801 47.6294 22.079 48.047C21.1995 48.2394 21.1136 49.8681 20.554 50.7861C20.3289 51.1592 20.1898 51.5856 20.015 51.9884C20.0743 52.0476 20.1305 52.1068 20.1897 52.166C21.0781 51.8373 21.8214 51.2569 22.5054 50.6528C25.52 47.9996 28.9668 48.4734 32.4433 49.2196C32.9675 49.3321 33.4798 49.4565 34.0128 49.4743C33.9684 47.6827 34.6258 45.9089 34.0631 44.0907C33.9032 43.5755 33.7789 43.0099 33.2636 43.0395C31.7267 43.1283 30.9598 41.6862 29.6361 41.3368C29.1208 41.2006 28.6618 40.5906 28.8899 39.7881C29.1179 38.9826 29.032 38.1564 28.7773 37.3302C28.5908 36.7232 28.2473 36.4389 27.6639 36.3264C27.0095 36.205 26.814 36.6521 26.6186 37.1141Z" fill="#FBFFF3"/>
<path d="M15.1287 55.1628C18.2824 53.9517 19.3929 51.0763 20.607 48.3253C21.0334 47.36 21.525 46.7381 22.6354 46.8003C22.7805 46.8092 22.9375 46.7914 23.0737 46.7411C25.3805 45.8645 27.7021 45.6425 30.0711 46.516C30.3761 46.6285 30.7551 46.5723 31.0957 46.5486C31.7649 46.5042 32.5082 46.2821 32.6414 45.6306C32.7895 44.9021 31.9218 44.7955 31.4392 44.6149C29.6743 43.9575 28.1107 42.6013 26.032 42.9655C26.793 43.8864 27.7732 44.4491 28.931 44.683C29.3752 44.7718 29.7809 44.911 30.1421 45.1716C30.3109 45.293 30.4175 45.4707 30.3169 45.6721C30.2073 45.8882 30.0119 45.832 29.8075 45.7905C28.851 45.601 27.8768 45.4825 26.9381 45.2279C26.408 45.0857 25.9875 45.1361 25.5582 45.4233L25.6174 45.4204C23.8347 45.4204 22.1468 46.0304 20.4619 46.4449C19.3751 46.7115 19.7423 48.3253 19.307 49.2907C18.9931 49.9866 19.1027 50.8364 18.0692 51.0082C17.7405 51.0645 17.6724 51.4613 17.6457 51.7248C17.5362 52.7998 16.7603 53.3476 15.9282 53.694C15.1761 54.0139 14.9925 54.4492 15.1287 55.1628Z" fill="#FBFFF3"/>
<path d="M8.18479 50.6262C7.59846 48.0707 8.50756 45.8349 9.60026 43.6022C10.7018 41.3516 11.9663 39.1988 13.2988 37.0845C13.5802 36.6403 13.8319 36.1191 14.4893 36.1191C14.282 35.3729 13.4351 35.4351 13.2278 35.6512C12.295 36.6285 10.7166 37.1822 10.8351 38.9353C10.8647 39.3913 10.7433 39.874 10.4205 40.1523C9.06131 41.3161 8.42761 42.8293 8.15517 44.5379C8.14037 44.6327 8.13444 44.8015 8.09891 44.8074C6.18003 45.1953 7.39414 46.6937 7.06248 47.6383C6.58276 49.0094 7.26384 49.8385 8.18479 50.6262Z" fill="#FBFFF3"/>
<path d="M23.6812 43.0366C23.5834 43.0248 23.4857 42.9981 23.391 43.0011C18.3036 43.1788 17.8623 43.4334 15.443 47.9019C15.0047 48.7103 14.374 49.3914 14.0423 50.2768C13.8351 50.8306 13.308 51.029 12.7542 50.5522C12.6506 51.2481 12.7424 51.8966 13.5656 52.018C14.3622 52.1365 14.6908 51.5827 14.7975 50.878C14.8567 50.4752 14.9722 50.0607 15.2979 49.8445C16.5772 49.0094 17.6817 48.1092 17.2908 46.3265C17.2582 46.1785 17.4093 45.8735 17.5455 45.8231C19.0113 45.2723 19.9915 43.7266 21.7712 43.8006C22.4848 43.8273 23.234 43.771 23.6812 43.0366Z" fill="#FBFFF3"/>
<path d="M15.0637 36.4212C16.0113 37.4902 16.1209 38.7842 15.8543 40.4928C19.0969 38.1712 22.7037 38.1653 26.0439 37.2355C25.9077 36.6284 25.4221 36.7084 24.9897 36.7113C23.1005 36.7202 21.2349 36.6521 19.5203 37.7981C18.9044 38.2097 17.7466 38.876 17.3498 37.3095C16.3518 37.6205 15.9965 36.2761 15.0637 36.4212Z" fill="#FBFFF3"/>
<path d="M10.6277 52.6932C9.71857 55.1865 8.60811 57.6325 8.85685 60.3894C9.95251 59.6876 10.0058 58.358 10.2249 57.3719C10.4766 56.2289 10.7372 55.1303 11.217 54.0642C11.4983 53.4394 11.67 52.785 10.6277 52.6932Z" fill="#FBFFF3"/>
<path d="M25.6265 45.4233C25.6265 45.4233 25.5666 45.4233 25.5666 45.4263C25.5636 45.4263 25.6265 45.4233 25.6265 45.4233Z" fill="#A1A68F"/>
<path d="M56.3879 28.8286C59.7341 21.4521 61.5582 13.7559 61.1585 5.59473C60.4863 9.05345 59.358 12.4085 58.9079 15.9146C58.8517 16.347 58.9997 17.0873 58.2594 16.9659C57.6701 16.8681 57.9396 16.2285 57.9751 15.8288C58.2772 12.527 59.3877 9.39399 59.9355 6.07445C59.5831 5.68356 59.4498 6.09222 59.2811 6.37353C56.764 10.5459 55.5765 15.047 55.9941 19.9271C56.2487 22.8765 56.3702 25.8259 56.3879 28.8286Z" fill="#FBFFF3"/>
<path d="M59.82 24.0166C62.0083 21.8756 63.4978 19.3052 64.5728 16.4625C64.7297 16.0479 64.6616 15.1003 65.4582 15.4349C66.1126 15.7103 65.6121 16.3914 65.4463 16.8652C64.1315 20.626 61.8395 23.7293 58.9642 26.4359C58.0965 27.2532 58.0906 27.2443 58.0936 28.6539C64.2796 23.3148 68.375 16.8978 68.7896 8.03479C64.3299 12.7698 61.4427 17.9934 59.5801 23.8419C59.6719 23.8863 59.7519 23.9455 59.82 24.0166Z" fill="#FBFFF3"/>
<path d="M49.4789 37.9373C51.9871 31.5677 53.0295 21.2952 50.2429 18.1119C49.7573 25.7222 46.879 32.9269 47.6637 40.5817C48.2263 38.728 48.3951 36.8091 48.5313 34.8873C48.6676 32.9684 48.866 31.0614 49.3486 29.1958C49.476 28.7072 49.4019 27.8514 50.0949 27.9757C50.9151 28.1238 50.3732 28.8908 50.2785 29.335C49.6951 32.1392 49.4464 34.9761 49.3575 37.8337C49.396 37.8692 49.4375 37.9018 49.4789 37.9373Z" fill="#FBFFF3"/>
<path d="M57.4955 37.7449C64.1553 35.7194 68.4135 30.9577 72.3135 25.7193C67.4778 29.7673 61.194 31.6536 56.7729 36.3324C58.4431 35.8556 59.8467 34.8814 61.271 33.9723C62.7191 33.0454 64.099 32.009 65.5026 31.011C65.7899 30.8067 66.1008 30.5254 66.4058 30.8511C66.8085 31.2835 66.3792 31.547 66.0801 31.7869C63.7377 33.6791 61.1822 35.2485 58.5852 36.7588C58.2298 36.972 57.7235 37.0134 57.4955 37.7449Z" fill="#FBFFF3"/>
<path d="M29.3667 55.8439C28.6086 55.5981 27.6581 56.4717 27.5455 55.5567C27.4301 54.612 28.7389 55.068 29.2719 54.5646C28.0874 54.1412 27.2909 54.5291 26.5417 55.5034C25.4904 56.8685 24.146 57.973 22.8253 59.0805C22.1413 59.655 21.5431 60.3065 21.1256 61.103C20.8532 61.6242 20.48 62.1691 21.0456 62.7139C21.5342 63.1818 22.1502 63.1344 22.7098 62.9035C23.7729 62.4652 24.6317 61.719 25.4223 60.9017C26.8941 59.3796 28.0638 57.6236 29.3667 55.8439Z" fill="#FBFFF3"/>
<path d="M46.6926 48.4941C52.9171 48.5682 58.4102 46.2436 63.6338 43.0573C57.9601 44.763 52.0465 45.6721 46.6926 48.4941Z" fill="#FBFFF3"/>
<path d="M40.3408 27.6352C38.4485 34.0255 40.2164 40.3359 40.8087 46.6759C42.7779 40.2885 39.8255 33.9989 40.3408 27.6352Z" fill="#FBFFF3"/>
<path d="M14.3858 37.3333C12.1767 40.4781 10.3348 43.7769 9.15031 47.3718C8.6469 48.8998 9.22434 50.564 9.68037 52.1631C10.2815 49.7349 10.9241 47.3126 11.469 44.8726C11.8095 43.3475 12.458 42.1601 13.909 41.3901C15.2179 40.6972 15.3956 38.9264 14.3858 37.3333Z" fill="#FBFFF3"/>
<path d="M65.1235 40.863C59.4261 42.6131 53.0535 42.2429 48.0402 46.2702C48.1497 46.3472 48.2327 46.4449 48.2741 46.4301C52.867 44.6652 57.7293 43.7798 62.3577 42.1363C63.3083 41.7987 64.3329 41.5737 65.1028 40.8393L65.1235 40.863Z" fill="#FBFFF3"/>
<path d="M41.5225 29.2579C41.2086 33.8923 42.8847 38.3608 42.6596 42.9951C43.6487 38.3134 42.9705 33.759 41.5225 29.2579Z" fill="#FBFFF3"/>
<path d="M49.3581 37.8337C49.133 38.0765 49.0797 38.3312 49.3374 38.6806C49.3936 38.3934 49.4351 38.1653 49.4795 37.9373C49.438 37.9018 49.3966 37.8692 49.3581 37.8337Z" fill="#FBFFF3"/>
<path d="M65.1029 40.8423C65.3339 40.8157 65.5679 40.789 65.7988 40.7594C65.7514 40.7091 65.707 40.6143 65.6596 40.6113C65.4405 40.5995 65.171 40.5077 65.1237 40.863L65.1029 40.8423Z" fill="#FBFFF3"/>
<path d="M56.3761 36.8713C56.4412 36.8269 56.5241 36.8002 56.5656 36.741C56.6633 36.5989 56.61 36.4745 56.4531 36.436C56.4116 36.4271 56.302 36.5515 56.2872 36.6255C56.2724 36.6966 56.3405 36.7825 56.3761 36.8713Z" fill="#FBFFF3"/>
<path d="M64.1521 42.6309C64.0781 42.6813 64.0041 42.7316 63.93 42.7819C64.0011 42.8352 64.084 42.9418 64.1373 42.93C64.235 42.9063 64.315 42.8086 64.4009 42.7434C64.318 42.705 64.2351 42.6694 64.1521 42.6309Z" fill="#FBFFF3"/>
<path d="M52.7927 37.4487C52.7039 37.5909 52.5736 37.7537 52.7868 37.8692C52.8431 37.8988 52.9882 37.7685 53.0918 37.7123C52.9941 37.6264 52.8934 37.5376 52.7927 37.4487Z" fill="#FBFFF3"/>
<path d="M48.6206 44.4906C48.742 44.4225 48.8635 44.3544 48.9849 44.2863C48.8486 44.1708 48.7124 44.0553 48.5762 43.9427C48.4785 44.0523 48.3808 44.1619 48.2831 44.2714C48.3985 44.3425 48.5081 44.4165 48.6206 44.4906Z" fill="#FBFFF3"/>
<path d="M48.286 44.2685C48.2504 44.3869 48.1498 44.5735 48.1883 44.612C48.3659 44.7778 48.5051 44.6446 48.6206 44.4906C48.5081 44.4166 48.3985 44.3425 48.286 44.2685Z" fill="#FBFFF3"/>
<path d="M42.7216 48.2098C42.7838 48.1743 42.8489 48.1388 42.9111 48.1032C42.8786 48.0706 42.8371 48.0055 42.8134 48.0114C42.7423 48.0262 42.6802 48.0706 42.615 48.1032C42.6505 48.1388 42.6831 48.1713 42.7216 48.2098Z" fill="#FBFFF3"/>
<path d="M20.0152 51.9943C19.9738 52.098 19.9353 52.2016 19.8938 52.3052C19.9915 52.2608 20.0922 52.2164 20.1899 52.172C20.1307 52.1128 20.0715 52.0535 20.0152 51.9943Z" fill="#FBFFF3"/>
<path d="M59.5859 23.8419C59.577 23.9633 59.5681 24.0876 59.5622 24.2091C59.648 24.1439 59.7369 24.0817 59.8228 24.0166C59.7517 23.9455 59.6717 23.8863 59.5859 23.8419Z" fill="#FBFFF3"/>
</svg>
