<svg width="127" height="118" viewBox="0 0 127 118" fill="none" xmlns="http://www.w3.org/2000/svg">
<path d="M89.0981 10.6906C77.9881 10.7706 67.6081 2.72057 47.6881 9.21057C47.6881 9.21057 29.4381 15.8306 21.5781 42.4206C21.5781 42.4206 48.8981 49.4206 62.5081 42.0206C80.6081 33.5006 89.0381 10.7006 89.0981 10.6906Z" fill="#E7E9E1"/>
<path d="M0 71.3901C5.62 80.9701 3.83998 93.9801 19.42 107.99C19.42 107.99 34.28 120.49 61.24 114C61.24 114 53.64 86.84 40.43 78.76C23.99 67.33 0.04 71.4401 0 71.3901Z" fill="#E7E9E1"/>
<path d="M99.59 117.981C105.07 108.321 117.24 103.351 121.57 82.8606C121.57 82.8606 124.96 63.7406 105.86 43.6406C105.86 43.6406 86.1399 63.8006 85.7399 79.2906C84.0899 99.2206 99.62 117.921 99.59 117.981Z" fill="#E7E9E1"/>
<path d="M92.352 5.01089C81.242 5.09089 70.862 -2.95912 50.942 3.53088C50.942 3.53088 32.692 10.1509 24.832 36.7409C24.832 36.7409 52.152 43.7409 65.762 36.3409C83.862 27.8109 92.282 5.02089 92.352 5.01089Z" stroke="#959B84" stroke-width="2" stroke-miterlimit="10" stroke-linecap="round" stroke-linejoin="round"/>
<path d="M73.1005 14.4316C73.1005 14.4316 31.6605 18.6517 14.4805 50.3017" stroke="#959B84" stroke-width="2" stroke-miterlimit="10" stroke-linecap="round" stroke-linejoin="round"/>
<path d="M3.25 65.7015C8.87 75.2815 7.08998 88.2915 22.67 102.301C22.67 102.301 37.53 114.801 64.49 108.311C64.49 108.311 56.89 81.1515 43.68 73.0715C27.24 61.6515 3.29 65.7515 3.25 65.7015Z" stroke="#959B84" stroke-width="2" stroke-miterlimit="10" stroke-linecap="round" stroke-linejoin="round"/>
<path d="M21.0312 77.6621C21.0312 77.6621 45.4112 111.442 81.4112 110.492" stroke="#959B84" stroke-width="2" stroke-miterlimit="10" stroke-linecap="round" stroke-linejoin="round"/>
<path d="M102.84 112.291C108.32 102.631 120.49 97.6612 124.82 77.1712C124.82 77.1712 128.21 58.0512 109.11 37.9512C109.11 37.9512 89.3899 58.1112 88.9899 73.6012C87.3399 93.5412 102.87 112.231 102.84 112.291Z" stroke="#959B84" stroke-width="2" stroke-miterlimit="10" stroke-linecap="round" stroke-linejoin="round"/>
<path d="M104.311 90.9109C104.311 90.9109 121.371 52.9109 102.551 22.2109" stroke="#959B84" stroke-width="2" stroke-miterlimit="10" stroke-linecap="round" stroke-linejoin="round"/>
</svg>
