<svg width="120" height="118" viewBox="0 0 120 118" fill="none" xmlns="http://www.w3.org/2000/svg">
<path d="M28.2807 97.1197L19.9807 70.4597C18.8907 66.9697 22.5307 63.8797 25.8007 65.5297L47.5207 76.4697C49.9207 77.6797 50.5507 80.8197 48.8107 82.8597L35.3907 98.5897C33.2707 101.06 29.2507 100.23 28.2807 97.1197Z" fill="#E7E9E1"/>
<path d="M105.691 51.6299H78.5408C70.7908 51.6299 64.5007 54.4099 64.5007 62.1599C64.5007 64.6399 64.5008 68.0799 68.8508 70.3699C69.2908 70.5999 69.7808 70.6999 70.2308 70.8899L84.0308 76.9299L95.0308 96.8999C95.8808 99.6299 101.811 103.67 103.811 101.72C112.751 92.4899 118.601 80.2499 119.661 66.6599C119.661 66.6599 118.171 51.6299 105.691 51.6299Z" fill="#E7E9E1"/>
<path d="M115.651 40.7297C111.301 30.0497 103.801 20.9997 94.3008 14.7197H93.7708C80.6708 14.7197 70.0508 25.3397 70.0508 38.4397C70.0508 41.8797 72.8408 44.6597 76.2708 44.6597H109.871C112.491 44.6697 114.731 43.0297 115.651 40.7297Z" fill="#E7E9E1"/>
<path d="M50.2309 6.75982C49.4009 8.20982 48.9209 9.88982 48.9209 11.6898V15.1498C48.9209 19.2698 51.4309 22.8098 55.0009 24.3198C55.0009 24.3198 58.7909 15.7498 68.8309 15.1498V11.6898C68.8309 9.31982 68.0009 7.14982 66.6209 5.43982C65.4209 5.35982 64.2109 5.31982 62.9909 5.31982C58.6009 5.31982 54.3309 5.81982 50.2309 6.75982Z" fill="#E7E9E1"/>
<path d="M6.14062 62.1698C6.14062 63.2398 6.17065 64.2898 6.23065 65.3498L26.2806 56.1298C30.8606 54.0198 34.2306 49.9398 35.4406 45.0498L41.3306 21.1998C42.2606 17.4398 41.8306 13.5198 40.1906 10.0898C20.1506 18.8598 6.14062 38.8798 6.14062 62.1698Z" fill="#E7E9E1"/>
<path d="M61.064 115.752C92.4339 114.575 116.91 88.1858 115.732 56.8104C114.555 25.435 88.1701 0.954488 56.8002 2.13168C25.4303 3.30888 0.954473 29.698 2.13188 61.0734C3.30928 92.4488 29.6941 116.929 61.064 115.752Z" stroke="#959B84" stroke-width="2" stroke-miterlimit="10" stroke-linecap="round" stroke-linejoin="round"/>
<path d="M24.2206 93.8697L15.9207 67.2097C14.8307 63.7197 18.4707 60.6297 21.7407 62.2797L43.4606 73.2197C45.8606 74.4297 46.4906 77.5697 44.7506 79.6097L31.3306 95.3397C29.2106 97.8097 25.1906 96.9797 24.2206 93.8697Z" stroke="#959B84" stroke-width="2" stroke-miterlimit="10" stroke-linecap="round" stroke-linejoin="round"/>
<path d="M101.631 48.3799H74.4807C66.7307 48.3799 60.4407 51.1599 60.4407 58.9099C60.4407 61.3899 60.4407 64.8299 64.7907 67.1199C65.2307 67.3499 65.7207 67.4499 66.1707 67.6399L79.9707 73.6799L90.9707 93.6499C91.8207 96.3799 97.7507 100.42 99.7507 98.4699C108.691 89.2399 114.541 76.9999 115.601 63.4099C115.591 63.4199 114.111 48.3799 101.631 48.3799Z" stroke="#959B84" stroke-width="2" stroke-miterlimit="10" stroke-linecap="round" stroke-linejoin="round"/>
<path d="M111.581 37.4797C107.231 26.7997 99.7307 17.7497 90.2307 11.4697H89.7007C76.6007 11.4697 65.9807 22.0897 65.9807 35.1897C65.9807 38.6297 68.7707 41.4097 72.2007 41.4097H105.801C108.431 41.4197 110.671 39.7797 111.581 37.4797Z" stroke="#959B84" stroke-width="2" stroke-miterlimit="10" stroke-linecap="round" stroke-linejoin="round"/>
<path d="M46.1708 3.50982C45.3408 4.95982 44.8608 6.63982 44.8608 8.43982V11.8998C44.8608 16.0198 47.3708 19.5598 50.9408 21.0698C50.9408 21.0698 54.7308 12.4998 64.7708 11.8998V8.43982C64.7708 6.06982 63.9409 3.89982 62.5609 2.18982C61.3609 2.10982 60.1508 2.06982 58.9308 2.06982C54.5408 2.06982 50.2708 2.56982 46.1708 3.50982Z" stroke="#959B84" stroke-width="2" stroke-miterlimit="10" stroke-linecap="round" stroke-linejoin="round"/>
<path d="M2.08081 58.9198C2.08081 59.9898 2.11084 61.0398 2.17084 62.0998L22.2208 52.8798C26.8008 50.7698 30.1708 46.6898 31.3808 41.7998L37.2708 17.9498C38.2008 14.1898 37.7708 10.2698 36.1308 6.83984C16.0908 15.6198 2.08081 35.6298 2.08081 58.9198Z" stroke="#959B84" stroke-width="2" stroke-miterlimit="10" stroke-linecap="round" stroke-linejoin="round"/>
</svg>
