<svg width="393" height="405" viewBox="0 0 393 405" fill="none" xmlns="http://www.w3.org/2000/svg">
<path d="M39.1596 270.327C29.0439 289.038 30.8257 312.325 38.5842 332.148C45.3033 349.302 56.7184 365.216 72.8851 374.127C89.0517 383.038 110.286 383.816 125.45 373.312C142.322 361.622 148.187 339.817 152.846 319.846C169.254 321.291 174.952 341.762 184.975 354.805C194.2 366.846 208.956 373.442 223.731 376.999C272.008 388.651 326.262 370.274 357.463 331.703C367.374 319.457 375.003 301.524 365.982 288.612C360.266 280.405 349.779 277.311 340.09 274.755C318.095 268.938 296.1 263.139 274.105 257.322C297.993 234.294 323.032 209.247 329.863 176.827C334.596 154.374 329.417 129.864 315.311 111.765C301.204 93.6651 278.207 82.5682 255.266 83.6241C247.285 83.9946 239.192 85.8287 232.473 90.1452C213.708 102.131 210.422 128.975 193.755 143.722C196.984 117.6 183.546 92.3313 167.843 71.1934C148.466 45.1091 119.807 20.2474 87.5483 24.4713C64.9409 27.4354 46.1386 44.8127 36.1713 65.2837C26.2041 85.7547 23.7725 109.042 23.1415 131.81C22.4733 156.078 23.8468 181.181 34.408 203.06C44.5052 223.994 64.7182 229.348 77.1727 244.761C61.5999 248.189 47.0666 255.71 39.1596 270.327Z" fill="#E7E9E1"/>
<path d="M147.147 334.628L146.282 334.552L146.085 335.397C140.793 358.121 134.204 382.448 115.461 395.456C98.6614 407.113 75.0306 406.293 56.9814 396.327C38.9359 386.364 26.1351 368.533 18.5816 349.215C9.85794 326.89 7.91287 300.8 19.1818 279.922C27.9461 263.693 44.0857 255.274 61.5693 251.42L63.1462 251.073L62.1324 249.816C56.3092 242.597 48.9942 237.281 41.711 231.989C40.0447 230.778 38.38 229.568 36.7352 228.337C27.8582 221.694 19.4332 214.356 13.8213 202.701L13.8212 202.701C1.96916 178.107 0.403896 149.834 1.15982 122.333C1.87368 96.5348 4.62519 70.2954 15.8168 47.2716C27.0067 24.2512 48.0607 4.83241 73.2353 1.52617C91.1966 -0.829475 108.206 4.9156 123.496 14.9783C138.791 25.0443 152.311 39.397 163.241 54.1344C180.995 78.0734 196.006 106.467 192.398 135.696L192.074 138.322L194.054 136.567C202.862 128.761 208.417 118.03 213.835 107.562C214.328 106.611 214.819 105.662 215.312 104.717C221.267 93.2959 227.406 82.5187 237.78 75.8811L237.783 75.8797C245.197 71.1086 254.173 69.055 263.102 68.6397C288.745 67.4576 314.485 79.89 330.272 100.179C346.058 120.468 351.866 147.97 346.563 173.17L347.542 173.376L346.563 173.17C338.9 209.601 310.792 237.812 283.698 263.974L282.423 265.205L284.137 265.66C296.592 268.959 309.048 272.254 321.503 275.548C333.958 278.842 346.413 282.137 358.869 285.436L358.869 285.436C369.907 288.354 381.397 291.8 387.629 300.761L387.63 300.762C392.517 307.77 392.938 316.188 390.699 324.661C388.459 333.141 383.575 341.576 378.023 348.446L378.023 348.447C342.928 391.902 281.877 412.617 227.575 399.489L227.575 399.488C210.937 395.476 194.487 388.071 184.242 374.675L184.241 374.674C181.446 371.031 178.942 366.856 176.45 362.572C176.111 361.989 175.772 361.403 175.433 360.817C173.288 357.116 171.125 353.382 168.791 349.957C163.39 342.029 156.902 335.488 147.147 334.628Z" stroke="#959B84" stroke-width="2"/>
</svg>
