<svg width="21" height="21" viewBox="0 0 21 21" fill="none" xmlns="http://www.w3.org/2000/svg">
<path opacity="0.2" d="M16.75 8.9375C16.75 10.4827 16.2918 11.9931 15.4334 13.2779C14.5749 14.5627 13.3548 15.564 11.9272 16.1553C10.4997 16.7466 8.92884 16.9013 7.41336 16.5999C5.89788 16.2984 4.50583 15.5544 3.41323 14.4618C2.32063 13.3692 1.57657 11.9771 1.27512 10.4616C0.973671 8.94617 1.12839 7.37533 1.71969 5.94779C2.311 4.52024 3.31235 3.30009 4.59711 2.44164C5.88187 1.58319 7.39234 1.125 8.9375 1.125C9.96346 1.125 10.9794 1.32708 11.9272 1.71969C12.8751 2.11231 13.7363 2.68777 14.4618 3.41323C15.1872 4.13869 15.7627 4.99993 16.1553 5.94779C16.5479 6.89564 16.75 7.91155 16.75 8.9375Z" fill="#F3F4F0"/>
<path d="M20.4316 19.3222L15.5429 14.4335C16.9626 12.7308 17.6712 10.5463 17.5213 8.33443C17.3714 6.12257 16.3745 4.05366 14.738 2.55811C13.1015 1.06256 10.9514 0.255516 8.73498 0.304872C6.51859 0.354228 4.40656 1.25618 2.83825 2.8231C1.26995 4.39002 0.366125 6.50126 0.31481 8.7176C0.263495 10.9339 1.06864 13.0848 2.56274 14.7226C4.05685 16.3604 6.12488 17.3591 8.33661 17.511C10.5483 17.6629 12.7335 16.9562 14.4374 15.538L19.3261 20.4277C19.3987 20.5002 19.4849 20.5578 19.5797 20.5971C19.6745 20.6364 19.7762 20.6566 19.8788 20.6566C19.9815 20.6566 20.0831 20.6364 20.178 20.5971C20.2728 20.5578 20.359 20.5002 20.4316 20.4277C20.5042 20.3551 20.5617 20.2689 20.601 20.1741C20.6403 20.0792 20.6605 19.9776 20.6605 19.8749C20.6605 19.7723 20.6403 19.6706 20.601 19.5758C20.5617 19.481 20.5042 19.3948 20.4316 19.3222ZM1.91009 8.93743C1.91009 7.54678 2.32247 6.18736 3.09507 5.03107C3.86768 3.87479 4.96581 2.97358 6.2506 2.4414C7.53539 1.90922 8.94914 1.76998 10.3131 2.04128C11.677 2.31258 12.9298 2.98224 13.9132 3.96558C14.8965 4.94892 15.5662 6.20177 15.8375 7.5657C16.1088 8.92963 15.9696 10.3434 15.4374 11.6282C14.9052 12.913 14.004 14.0111 12.8477 14.7837C11.6914 15.5563 10.332 15.9687 8.94134 15.9687C7.07717 15.9666 5.28995 15.2252 3.97178 13.907C2.65362 12.5888 1.91216 10.8016 1.91009 8.93743Z" fill="#F3F4F0"/>
</svg>
