<svg width="171" height="131" viewBox="0 0 171 131" fill="none" xmlns="http://www.w3.org/2000/svg">
<path d="M151.783 14.1138C141.203 17.148 129.154 12.2296 111.873 23.7261C111.873 23.7261 96.22 34.9021 95.7986 62.3687C95.7986 62.3687 123.733 61.7751 134.75 51.0901C149.754 38.141 151.729 14.1393 151.783 14.1138Z" fill="#E7E9E1"/>
<path d="M153.377 7.82866C142.796 10.8628 130.748 5.94445 113.467 17.441C113.467 17.441 97.8138 28.617 97.3923 56.0835C97.3923 56.0835 125.327 55.4899 136.344 44.8049C151.345 31.8463 153.313 7.85684 153.377 7.82866Z" fill="#E7E9E1"/>
<path d="M137.511 21.9429C137.511 21.9429 99.0901 37.0026 91.122 71.779Z" fill="#E7E9E1"/>
<path d="M18.6499 63.1138C29.2306 66.148 41.279 61.2296 58.5602 72.7261C58.5602 72.7261 74.2131 83.9021 74.6345 111.369C74.6345 111.369 46.7003 110.775 35.6829 100.09C20.6789 87.141 18.7045 63.1393 18.6499 63.1138Z" fill="#E7E9E1"/>
<path d="M17.0562 56.8287C27.6368 59.8628 39.6853 54.9444 56.9664 66.441C56.9664 66.441 72.6193 77.617 73.0408 105.084C73.0408 105.084 45.1066 104.49 34.0891 93.8049C19.0878 80.8463 17.1203 56.8568 17.0562 56.8287Z" fill="#E7E9E1"/>
<path d="M32.9217 70.9429C32.9217 70.9429 71.343 86.0026 79.3111 120.779Z" fill="#E7E9E1"/>
<path d="M156.511 4.49433C144.087 8.05715 129.94 2.28182 109.647 15.7814C109.647 15.7814 91.2672 28.9046 90.7724 61.1568C90.7724 61.1568 123.574 60.4598 136.511 47.9131C154.126 32.6966 156.436 4.52742 156.511 4.49433Z" stroke="#959B84" stroke-width="2" stroke-miterlimit="10" stroke-linecap="round" stroke-linejoin="round"/>
<path d="M137.882 21.0674C137.882 21.0674 92.7668 38.751 83.4104 79.5866" stroke="#959B84" stroke-width="2" stroke-miterlimit="10" stroke-linecap="round" stroke-linejoin="round"/>
<path d="M16.8076 50.4258C29.0272 54.637 43.459 49.6137 63.0131 64.1617C63.0131 64.1617 80.6778 78.2333 79.4759 110.467C79.4759 110.467 46.7567 108.046 34.4973 94.8362C17.7068 78.7144 16.8811 50.4628 16.8076 50.4258Z" stroke="#959B84" stroke-width="2" stroke-miterlimit="10" stroke-linecap="round" stroke-linejoin="round"/>
<path d="M34.5384 67.9568C34.5384 67.9568 78.6617 87.9885 85.8577 129.26" stroke="#959B84" stroke-width="2" stroke-miterlimit="10" stroke-linecap="round" stroke-linejoin="round"/>
</svg>
