<svg width="120" height="120" viewBox="0 0 120 120" fill="none" xmlns="http://www.w3.org/2000/svg">
<path d="M41.5625 10.0335C41.5625 10.0335 44.3525 8.01355 47.8125 6.75355C53.0025 4.72355 67.1725 -0.43645 81.0825 10.1436L93.1025 27.7236L101.342 22.9636L92.4825 50.8635L63.8925 44.5935L72.5825 39.5735L65.0225 26.4835C65.0325 26.4835 57.5825 11.2635 41.5625 10.0335Z" fill="#E7E9E1"/>
<path d="M25.1316 107.143C25.1316 107.143 21.9816 105.743 19.1616 103.373C14.8116 99.8928 3.25159 90.2028 5.46159 72.8628L14.6716 53.6628L6.43162 48.9028L35.0216 42.6328L43.8816 70.5328L35.1916 65.5128L27.6316 78.6028C27.6416 78.5928 18.1916 92.6428 25.1316 107.143Z" fill="#E7E9E1"/>
<path d="M119.343 73.7129C119.343 73.7129 119.703 77.1429 119.063 80.7629C118.223 86.2729 115.613 101.123 99.4935 107.883L78.2534 109.503V119.013L58.5234 97.3829L78.2534 75.7529V85.7929H93.3635C93.3635 85.8129 110.263 86.9729 119.343 73.7129Z" fill="#E7E9E1"/>
<path d="M37.707 7.3931C37.707 7.3931 40.517 5.3531 44.017 4.0831C49.257 2.0431 63.5571 -3.1769 77.6071 7.5031L89.747 25.2431L98.067 20.4431L89.1171 48.6031L60.257 42.2731L69.027 37.2031L61.397 23.9931C61.387 24.0031 53.877 8.6431 37.707 7.3931Z" stroke="#959B84" stroke-width="2" stroke-miterlimit="10" stroke-linecap="round" stroke-linejoin="round"/>
<path d="M37.7087 7.39258C35.6487 9.48258 25.4688 25.7126 25.4688 25.7126L45.9688 37.6526L57.6487 18.4326C57.6487 18.4326 50.6987 8.62258 37.7087 7.39258Z" stroke="#959B84" stroke-width="2" stroke-miterlimit="10" stroke-linecap="round" stroke-linejoin="round"/>
<path d="M21.1304 105.413C21.1304 105.413 17.9504 104.003 15.1104 101.603C10.7204 98.093 -0.949601 88.313 1.2804 70.803L10.5804 51.423L2.26038 46.623L31.1204 40.293L40.0604 68.453L31.2904 63.383L23.6604 76.593C23.6604 76.593 14.1204 90.783 21.1304 105.413Z" stroke="#959B84" stroke-width="2" stroke-miterlimit="10" stroke-linecap="round" stroke-linejoin="round"/>
<path d="M21.1289 105.413C23.9689 106.153 43.119 106.853 43.119 106.853L43.2089 83.133L20.7189 82.623C20.7089 82.623 15.6889 93.553 21.1289 105.413Z" stroke="#959B84" stroke-width="2" stroke-miterlimit="10" stroke-linecap="round" stroke-linejoin="round"/>
<path d="M114.579 70.8535C114.579 70.8535 114.939 74.3135 114.289 77.9735C113.439 83.5335 110.809 98.5235 94.5392 105.354L73.1093 106.994V116.594L53.1992 94.7635L73.1093 72.9335V83.0635H88.3593C88.3593 83.0635 105.409 84.2335 114.579 70.8535Z" stroke="#959B84" stroke-width="2" stroke-miterlimit="10" stroke-linecap="round" stroke-linejoin="round"/>
<path d="M114.578 70.8538C113.798 68.0338 104.828 51.0938 104.828 51.0938L84.2383 62.8838L95.0383 82.6138C95.0483 82.6038 107.028 81.4838 114.578 70.8538Z" stroke="#959B84" stroke-width="2" stroke-miterlimit="10" stroke-linecap="round" stroke-linejoin="round"/>
</svg>
