<svg width="2500" height="1407" viewBox="0 0 2500 1407" fill="none" xmlns="http://www.w3.org/2000/svg">
<path d="M1304 1406.91C1305.13 1397.71 1306.15 1388.49 1307.4 1379.31C1309.52 1363.75 1311.84 1348.21 1313.98 1332.65C1315.42 1322.15 1316.22 1311.54 1318.25 1301.16C1319.22 1296.21 1316.93 1293.5 1314.2 1290.83C1302.09 1278.99 1291.32 1265.89 1279.3 1254C1268.14 1242.95 1258.11 1230.87 1247.04 1219.74C1237.48 1210.13 1228.64 1199.82 1219.35 1189.95C1209.62 1179.62 1199.68 1169.5 1189.92 1159.2C1180.1 1148.84 1170.34 1138.41 1160.65 1127.93C1153.02 1119.68 1144.7 1112.04 1137.31 1103.63C1128.34 1093.43 1118.72 1083.86 1109.53 1073.88C1102.01 1065.71 1094.17 1057.84 1086.59 1049.72C1077.62 1040.11 1068.78 1030.37 1059.87 1020.71C1057.4 1018.03 1054.9 1015.38 1052.33 1012.8C1037.66 998.09 1023.43 982.93 1009.32 967.72C993.1 950.23 976.38 933.2 960.38 915.52C946.26 899.92 931.42 885.01 917.19 869.52C900.62 851.49 883.17 834.29 866.99 815.86C858.5 806.18 849.09 797.24 840.28 787.78C828.36 774.99 816.15 762.46 804.28 749.62C799.55 744.5 792.81 744.04 787.06 741.39C777.2 736.84 766.9 733.21 756.73 729.35C736.81 721.79 716.8 714.46 696.92 706.78C681.95 701 667.34 694.25 652.19 689.02C640.84 685.1 630.06 679.85 618.71 675.96C603.14 670.63 587.88 664.42 572.56 658.37C557.52 652.43 542.49 646.4 527.36 640.77C518.95 637.64 510.97 633.21 501.9 631.37C496.95 630.36 492.08 627.32 487.12 625.32C476.75 621.13 466.23 617.42 455.71 613.64C445.29 609.9 435.22 605.15 424.83 601.31C416.36 598.18 408.25 594.17 399.46 591.72C392.55 589.8 386.18 585.99 379.37 583.62C367.54 579.5 355.91 574.83 344.25 570.32C329.77 564.71 315.22 559.23 300.85 553.31C288.61 548.27 276.16 543.76 263.81 539C257.23 536.47 250.66 533.93 244.09 531.37C231.81 526.58 219.55 521.77 207.09 517.44C198.66 514.52 190.43 511.01 182.2 507.56C169.86 502.39 157.25 497.91 144.82 492.99C137.05 489.92 129.21 487.04 121.42 484.01C111.46 480.13 101.49 476.29 91.5298 472.41C79.6298 467.77 67.7598 463.06 55.8398 458.46C41.7298 453.03 27.5898 447.7 13.4598 442.31C8.98984 440.6 4.54984 438.81 0.0898438 437.06C0.0898438 400.73 0.0898438 364.4 0.0898438 328.07C4.26984 327.83 7.73984 330.23 11.3598 331.57C29.7398 338.39 47.7298 346.18 66.2698 352.63C75.7398 355.92 85.0398 360.01 94.3298 363.95C104.67 368.33 115.49 371.43 125.82 375.89C135.8 380.21 146.1 383.79 156.27 387.69C163.37 390.41 170.66 392.71 177.54 395.91C189.86 401.64 202.83 405.67 215.5 410.42C228.16 415.17 240.88 419.92 253.25 425.25C265.4 430.49 278.09 434.16 290.16 439.71C304.93 446.5 320.94 450.53 335.95 456.85C359.21 466.64 383.09 474.78 406.37 484.49C409.23 485.68 412.02 487.18 415.04 488.02C423.46 490.36 431.37 494.12 439.59 497.03C450.33 500.83 460.9 505.25 471.55 509.39C481.56 513.28 491.57 517.15 501.56 521.1C514.13 526.07 526.63 531.19 539.23 536.07C547.08 539.11 555.18 541.51 562.93 544.75C572.66 548.81 582.59 552.37 592.31 556.48C605.12 561.9 618.59 565.78 631.31 571.37C644.12 577 657.43 581.25 670.34 586.61C678.49 590 686.85 593.09 695.15 596.24C715.39 603.91 735.56 611.75 755.8 619.43C757.96 620.25 760.31 623.27 762.4 621.03C764.13 619.17 763.08 615.98 762.34 613.38C760.54 607.04 759.64 600.48 758.33 594.04C755.54 580.46 753.36 566.76 750.34 553.19C747.04 538.38 745.7 523.17 742.26 508.31C738.8 493.37 736.96 478.11 733.6 463.09C730.79 450.58 728.87 437.81 726.36 425.18C723.44 410.46 720.68 395.64 718.41 380.83C715.6 362.48 710.88 344.54 708.17 326.19C706.72 316.42 704.22 306.76 702.38 297.06C699.45 281.62 697.11 266.06 694.08 250.62C690.71 233.44 687.48 216.24 684.26 199.03C681.44 183.91 678.74 168.77 675.94 153.65C673.46 140.3 671.01 126.95 668.82 113.55C667.02 102.53 664.22 91.6701 662.07 80.7001C658.86 64.3401 655.71 47.9601 652.76 31.5501C650.88 21.1301 648.35 10.7901 648.06 0.120078C682.39 0.120078 716.72 0.120078 751.05 0.120078C752.59 8.26008 754.14 16.4001 755.68 24.5401C758.85 41.2801 761.93 58.0401 765.23 74.7601C766.96 83.5301 767.88 92.4301 769.87 101.17C771.26 107.3 773.05 113.41 773.86 119.59C775.32 130.78 777.07 142 779.57 152.88C783.09 168.2 785.09 183.77 788.68 199.08C792.03 213.35 793.63 228.04 796.86 242.44C800.33 257.89 802.37 273.63 805.59 289.18C808.33 302.39 810.66 315.73 813.05 329.04C814.39 336.53 814.66 344.28 816.62 351.59C818.68 359.28 820.29 367.12 821.7 374.86C824.99 392.94 828.55 410.97 831.53 429.11C833.16 439.03 836.11 448.68 837.26 458.71C838.09 465.94 839.34 473.13 840.76 480.27C842.3 488.06 844.47 495.72 845.97 503.52C848.25 515.39 849.88 527.4 852.36 539.23C855.34 553.45 857.75 567.79 860.7 582.02C863.83 597.16 865.7 612.56 869.03 627.73C872.33 642.76 874.43 658.05 877.15 673.2C877.8 676.82 878.99 680.34 881.67 683.04C889.35 690.78 896.86 698.65 904.16 706.77C916.68 720.69 930 733.88 942.93 747.43C959.08 764.36 974.45 782.02 991.03 798.55C998.32 805.82 1005 813.67 1012.22 821.02C1022.71 831.71 1032.21 843.38 1042.73 854.04C1059.42 870.96 1075.44 888.51 1091.82 905.72C1105.3 919.89 1118.43 934.39 1132.05 948.43C1149 965.91 1165.04 984.23 1182.18 1001.52C1194.95 1014.41 1207.06 1027.97 1219.5 1041.2C1230.84 1053.26 1242.24 1065.27 1253.59 1077.32C1267.75 1092.36 1281.89 1107.41 1296.02 1122.48C1301.46 1128.28 1306.59 1134.4 1312.31 1139.9C1319.73 1147.05 1325.86 1155.42 1333.7 1162.14C1334.58 1162.89 1335.38 1164.01 1336.67 1163.66C1338.41 1163.18 1337.87 1161.55 1338.04 1160.3C1340.09 1144.6 1341.6 1128.8 1344.34 1113.22C1347.17 1097.12 1348.24 1080.8 1351.64 1064.74C1353.57 1055.65 1354.4 1046.08 1355 1036.66C1355.85 1023.4 1359.19 1010.52 1360.66 997.33C1361.61 988.81 1363.04 980.27 1363.89 971.72C1364.96 960.84 1367.71 950.26 1368.6 939.29C1369.27 931.04 1370.81 922.63 1372.09 914.32C1373.05 908.09 1372.92 901.59 1374.42 895.62C1376.62 886.93 1376.59 878 1378.77 869.3C1381.73 857.5 1380.28 844.95 1383.83 833.08C1384.64 830.36 1384.72 827 1383.5 824.2C1379.19 814.29 1376.94 803.71 1373.19 793.62C1371.3 788.53 1369.61 783.26 1368.29 778.04C1365.61 767.48 1361.28 757.48 1358.61 746.94C1356.2 737.45 1352.4 728.4 1349.42 719.1C1346.36 709.57 1344.16 699.75 1341.09 690.19C1337.26 678.24 1333.53 666.25 1329.66 654.33C1325.59 641.8 1321.77 629.19 1317.74 616.65C1313.59 603.71 1309.27 590.82 1305.17 577.86C1301.15 565.16 1297.31 552.4 1293.41 539.66C1291.13 532.22 1288.97 524.75 1286.62 517.34C1283.12 506.32 1279.47 495.35 1275.94 484.33C1272.57 473.82 1269.29 463.29 1265.93 452.78C1261.6 439.22 1257.13 425.69 1252.92 412.09C1250.63 404.68 1249.32 396.91 1246.55 389.7C1242.43 379 1239.54 367.94 1235.87 357.13C1231.39 343.94 1227.48 330.58 1223.41 317.27C1217.66 298.44 1211.11 279.86 1205.12 261.11C1202.97 254.37 1202.11 247.17 1199.51 240.63C1193.39 225.2 1189.38 209.11 1184.06 193.43C1179.07 178.73 1175.39 163.59 1170.28 148.94C1166.19 137.23 1161.87 125.51 1158.54 113.65C1153.88 97.0601 1148.41 80.7401 1143.48 64.2501C1138.08 46.2001 1131.79 28.4201 1126.25 10.4101C1125.19 6.98008 1122.64 3.96008 1123.06 0.0800781C1159.06 0.0800781 1195.05 0.0800781 1231.05 0.0800781C1231.86 9.44008 1236.79 17.6001 1238.8 26.6001C1241.25 37.5601 1245.42 48.0101 1248.5 58.7901C1250.84 66.9801 1253.93 75.0301 1256.4 83.2501C1259.9 94.9301 1264.29 106.31 1267.32 118.18C1270.04 128.86 1274.4 139.11 1277.73 149.65C1282.03 163.27 1285.85 177.05 1290.19 190.66C1295.3 206.69 1301.23 222.48 1305.83 238.65C1307.95 246.1 1311.04 253.24 1312.37 261.04C1313.54 267.91 1317 274.37 1319.03 281.17C1322.62 293.22 1326.75 305.1 1330.51 317.1C1333.56 326.83 1336.39 336.62 1339.44 346.78C1345.1 341.7 1347.79 335.02 1352.09 329.54C1358.01 322.01 1363.31 314.03 1368.87 306.26C1372.54 301.12 1375.84 295.52 1379.18 290.06C1381.98 285.48 1385.56 281.39 1388.61 276.96C1399.28 261.43 1410.44 246.26 1420.75 230.46C1426.94 220.99 1433.56 211.7 1440.5 202.66C1445.38 196.31 1449.07 188.88 1454.11 182.55C1463.4 170.89 1470.4 157.68 1479.51 145.92C1481.94 142.79 1484.15 139.5 1486.5 136.31C1487.97 134.31 1489.57 133.37 1491.87 135.41C1501.46 143.91 1512.72 150.06 1523.11 157.42C1537.36 167.51 1551.89 177.18 1566.31 187.03C1571.71 190.72 1572.15 191.63 1568.5 197.19C1563.38 204.99 1557.78 212.47 1552.45 220.13C1547.72 226.91 1543.11 233.77 1538.38 240.55C1533.2 248 1527.92 255.38 1522.74 262.83C1516.42 271.91 1509.95 280.88 1503.92 290.15C1496.17 302.06 1487.82 313.53 1479.58 325.1C1474.73 331.91 1470.57 339.21 1465.8 346.08C1460.81 353.28 1455 359.95 1450.39 367.36C1444.46 376.9 1437.48 385.69 1431.53 395.23C1428.68 399.8 1425.79 404.54 1422.26 408.66C1416.43 415.45 1412 423.24 1406.82 430.45C1401.05 438.47 1395.11 446.5 1389.97 455.02C1387.06 459.84 1383.68 464.38 1380.41 468.97C1379.01 470.93 1378.72 472.78 1379.68 475.02C1384.46 486.18 1387.18 498.02 1390.96 509.51C1394.42 520.02 1398.5 530.38 1401.17 541.08C1403.25 549.4 1406.72 557.22 1408.42 565.71C1409.64 571.85 1412.78 577.74 1414.62 583.94C1419.42 600.16 1424.87 616.19 1429.64 632.42C1432.94 643.64 1436.94 654.64 1440.27 665.86C1443.03 675.17 1446.04 684.48 1449.47 693.63C1453.34 703.95 1456.01 714.73 1458.85 725.41C1459.79 728.95 1461.89 731.97 1462.37 735.75C1462.74 738.63 1465.54 738.66 1467.4 736.94C1477.61 727.46 1489.77 720.53 1500.35 711.5C1508.71 704.36 1518.35 698.73 1527 691.91C1538.8 682.61 1550.96 673.78 1563.07 664.94C1575.73 655.7 1588.17 646.14 1600.94 637.02C1610.41 630.26 1619.88 623.34 1628.9 615.86C1637.5 608.73 1647 602.69 1655.97 595.99C1665.4 588.95 1674.28 581.1 1684.12 574.7C1694.58 567.89 1704.04 559.81 1714.24 552.68C1728.29 542.85 1741.57 531.92 1755.29 521.61C1762.6 516.12 1770.45 511.31 1777.49 505.5C1783.47 500.57 1789.72 496.06 1796.01 491.6C1805.19 485.1 1813.71 477.76 1823.13 471.53C1832.79 465.13 1841.67 457.56 1850.96 450.58C1866.41 438.96 1881.94 427.43 1897.39 415.81C1911.55 405.16 1925.65 394.42 1939.81 383.77C1946.01 379.11 1952.31 374.56 1958.58 369.98C1961.66 367.73 1964.14 367.14 1966.83 371.09C1972.66 379.64 1979.2 387.68 1985.05 396.25C1991.44 405.63 1998.82 414.34 2005.8 423.31C2011.78 430.99 2017 439.25 2023.38 446.65C2024.69 448.17 2023.84 449.78 2022.22 450.86C2004.43 462.68 1988.08 476.45 1970.75 488.89C1960.05 496.57 1949.72 504.78 1939.15 512.64C1931.73 518.16 1924.09 523.4 1916.68 528.93C1907.94 535.45 1899.4 542.24 1890.67 548.77C1878.22 558.08 1865.64 567.21 1853.19 576.51C1840.32 586.13 1827.83 596.3 1814.6 605.4C1804.65 612.24 1795.47 620.05 1785.47 626.79C1771.53 636.19 1758.61 646.99 1744.9 656.74C1735.39 663.5 1726.66 671.62 1716.99 678.21C1704.86 686.47 1693.88 696.23 1681.52 704.18C1673.9 709.08 1667.12 715.29 1659.84 720.74C1639.61 735.87 1619.32 750.91 1599.05 765.97C1584.07 777.1 1569.01 788.13 1554.11 799.36C1535.88 813.1 1517.8 827.02 1499.61 840.8C1496.05 843.5 1492.3 845.94 1488.57 848.41C1484.58 851.05 1483.69 854.98 1482.94 859.42C1480.39 874.43 1479.54 889.65 1476.54 904.62C1474.23 916.12 1473.5 927.93 1472.05 939.59C1470.86 949.11 1469.56 958.6 1467.68 968.04C1465.88 977.11 1465.35 986.43 1464.02 995.6C1462.48 1006.24 1461.73 1016.95 1459.53 1027.54C1457.38 1037.89 1456.46 1048.5 1455.07 1059.01C1453.06 1074.26 1451.46 1089.56 1448.48 1104.7C1447.34 1110.5 1446.78 1116.5 1446.18 1122.42C1444.84 1135.77 1441.97 1148.94 1440.6 1162.19C1439.11 1176.54 1436.55 1190.71 1434.91 1205.02C1433.01 1221.6 1430.24 1238.07 1427.91 1254.6C1425.92 1268.7 1424.03 1282.81 1422.05 1296.9C1420.19 1310.1 1418.18 1323.28 1416.37 1336.49C1414.18 1352.56 1412.33 1368.69 1409.94 1384.73C1408.84 1392.1 1407.63 1399.44 1407.05 1406.88C1372.66 1406.91 1338.33 1406.91 1304 1406.91Z" fill="#E9EBD6"/>
<path d="M781.04 1406.91C778.75 1401.43 774.08 1397.73 770.6 1393.15C765.1 1385.91 759.28 1378.91 753.41 1371.96C745.51 1362.6 737.35 1353.47 729.48 1344.09C722.56 1335.85 715.91 1327.38 709.09 1319.06C703.3 1312 697.44 1305.01 691.59 1298C684.17 1289.11 676.86 1280.13 669.27 1271.4C662.53 1263.65 656.09 1255.62 649.53 1247.74C643.2 1240.14 636.8 1232.53 630.48 1224.9C623.51 1216.48 616.83 1207.82 609.38 1199.75C604.07 1194 598.9 1187.86 594.52 1181.34C590.21 1174.93 584.33 1170.06 579.63 1164.08C570.64 1152.63 561.28 1141.47 552.31 1130C550.23 1127.34 547.4 1126.47 544.75 1126.11C534.7 1124.75 525.11 1121.48 515.22 1119.48C494.65 1115.31 474.26 1110.26 453.81 1105.58C441.17 1102.69 428.52 1099.55 415.87 1096.72C405.08 1094.3 394.29 1091.62 383.39 1089.53C375.44 1088 367.47 1085.27 359.47 1083.64C352.21 1082.16 345.07 1080.12 337.73 1078.92C329.8 1077.63 322.1 1074.95 314.24 1073.2C302.78 1070.64 291.16 1068.7 279.79 1065.8C274.03 1064.33 268.23 1063.14 262.47 1061.76C246.38 1057.93 230.23 1054.36 214.11 1050.64C201.08 1047.63 188.01 1044.79 175.03 1041.67C159.6 1037.96 144.13 1034.23 128.67 1030.69C117.14 1028.05 105.61 1025.22 94.0096 1022.78C68.9496 1017.51 44.1396 1011.12 19.1196 1005.62C12.8396 1004.24 6.66961 1001.98 0.0996094 1001.97C0.0996094 966.97 0.0996094 931.98 0.0996094 896.98C9.64961 898.63 19.1796 900.29 28.4996 903.08C34.0296 904.74 39.7496 906.12 45.4696 906.69C49.9496 907.14 54.2296 908.46 58.4196 909.54C69.3296 912.33 80.3796 914.44 91.2996 917.16C103.12 920.11 115.24 921.94 126.92 925.32C140.88 929.36 155.18 932.05 169.27 935.32C182.75 938.46 196.19 942.21 210.01 944.29C222.39 946.15 234.47 950.08 246.64 953.29C253.7 955.15 260.99 955.63 268.05 957.66C280.26 961.17 292.94 962.99 305.19 966.26C319.71 970.14 334.46 972.79 349.02 976.38C371.85 982.01 394.76 987.38 417.76 992.25C429.9 994.82 441.99 997.75 454.09 1000.43C463.66 1002.55 473.6 1003.85 482.82 1007.65C484.19 1008.21 486.11 1008.58 487.1 1007.45C488.54 1005.81 486.14 1005.04 485.59 1003.81C481.83 995.54 478.05 987.27 474.26 979.01C468.47 966.4 462.7 953.79 456.87 941.21C449.69 925.68 442.54 910.14 435.23 894.67C428.32 880.05 421.88 865.22 414.83 850.65C409.66 839.99 404.71 829.14 400.08 818.19C399.76 817.44 399.52 816.6 399 816.02C396.45 813.22 397.24 811.48 400.48 809.99C408.85 806.14 417.13 802.08 425.49 798.19C439.85 791.5 454.23 784.86 468.62 778.25C474.63 775.49 480.74 772.96 486.71 770.12C489.07 768.99 490.47 769.45 491.48 771.71C493.64 776.52 495.65 781.4 497.97 786.13C503.07 796.5 507.48 807.17 512.23 817.69C518.93 832.53 526.74 846.88 533.05 861.87C537.13 871.56 542 880.85 546.18 890.48C554.04 908.59 562.52 926.44 570.79 944.37C578.04 960.09 585.36 975.77 592.63 991.47C599.5 1006.31 606.71 1021 613.1 1036.04C619.08 1050.1 627.55 1062.19 637.79 1073.46C648.45 1085.21 658.02 1097.95 668.19 1110.15C676.44 1120.06 684.91 1129.79 693.22 1139.66C697.8 1145.11 702.22 1150.7 706.76 1156.19C713.29 1164.09 719.92 1171.91 726.41 1179.85C739.58 1195.97 752.75 1212.07 766.33 1227.85C777.32 1240.62 787.79 1253.84 798.75 1266.66C808.61 1278.2 817.8 1290.41 827.66 1301.97C844 1321.14 859.44 1341.06 876.02 1359.99C885.4 1370.7 893.85 1382.17 903.41 1392.74C907.28 1397.01 911.67 1401.35 914.05 1406.94C869.7 1406.91 825.37 1406.91 781.04 1406.91Z" fill="#E9EBD6"/>
<path d="M2499.91 950.97C2490.59 954.82 2482.38 960.67 2473.62 965.52C2462.76 971.53 2452.2 978.14 2441.58 984.5C2430.12 991.36 2418.31 997.72 2407.1 1005.06C2397.17 1011.56 2386.62 1017.11 2376.43 1023.23C2368.93 1027.73 2361.81 1032.91 2354.1 1037C2341.84 1043.51 2330.18 1051 2318.23 1058.02C2299.24 1069.19 2280.39 1080.6 2261.48 1091.89C2237.49 1106.22 2213.7 1120.93 2189.4 1134.71C2176.69 1141.92 2164.73 1150.31 2151.82 1157.16C2141.82 1162.47 2132.13 1168.4 2122.43 1174.24C2118.7 1176.48 2116.09 1180.07 2113.47 1183.47C2104.42 1195.22 2095.18 1206.85 2086.6 1218.94C2079.95 1228.3 2072.44 1236.92 2065.45 1245.98C2055.67 1258.67 2045.85 1271.34 2036.4 1284.28C2025.94 1298.62 2015 1312.62 2004.33 1326.79C1992.99 1341.85 1981.55 1356.9 1969.76 1371.65C1961.53 1381.94 1953.6 1392.46 1945.47 1402.83C1944.49 1404.09 1943.84 1405.31 1943.96 1406.9C1900.63 1406.9 1857.3 1406.9 1813.97 1406.9C1816.37 1401.73 1820.59 1397.86 1823.91 1393.35C1833.46 1380.4 1843.51 1367.83 1853.31 1355.06C1866.55 1337.8 1879.99 1320.69 1892.93 1303.19C1903.76 1288.54 1915.29 1274.4 1926.39 1259.94C1936.37 1246.94 1945.77 1233.48 1956.2 1220.85C1963.43 1212.09 1969.76 1202.68 1977.05 1193.97C1984.77 1184.75 1991.07 1174.35 1998.73 1165.07C2004.45 1158.14 2009.5 1150.75 2015.1 1143.75C2021.58 1135.65 2027.9 1127.42 2033.97 1119C2035.31 1117.14 2035.78 1114.3 2035.82 1111.9C2036 1102.43 2037.13 1092.95 2038.36 1083.69C2040.12 1070.46 2040.76 1057.14 2042.63 1043.93C2044.26 1032.46 2044.84 1020.85 2045.97 1009.31C2047.03 998.35 2048.2 987.4 2049.31 976.44C2050.21 967.54 2051.25 958.66 2051.91 949.74C2052.58 940.65 2052.99 931.46 2054.29 922.52C2056.5 907.32 2057.5 892.05 2059 876.8C2060.11 865.59 2060.76 854.26 2062.33 843.19C2065.19 822.9 2065.86 802.43 2068.82 782.18C2069.63 776.62 2068.89 770.77 2070.16 765.35C2071.81 758.31 2071.94 751.32 2072.04 744.23C2072.08 741.23 2074.3 741.09 2076.62 740.95C2085.32 740.41 2093.81 742.33 2102.37 743.19C2112.25 744.18 2122.2 744.32 2132.04 745.94C2144.63 748.01 2157.47 747.77 2170.1 749.71C2173.5 750.23 2173.93 751.76 2174 754.64C2174.22 763.16 2172.81 771.49 2171.85 779.9C2170.44 792.23 2168.81 804.53 2167.78 816.92C2166.54 831.75 2166.04 846.65 2163.48 861.41C2161.56 872.48 2160.97 883.78 2159.98 895C2158.84 907.87 2158.52 920.85 2156.73 933.62C2154.55 949.14 2153.35 964.73 2151.7 980.29C2150.24 994.11 2150.16 1008.08 2147.3 1021.77C2146.29 1026.6 2146.28 1031.65 2145.98 1036.61C2145.79 1039.74 2146.87 1040.33 2149.85 1038.75C2160.94 1032.88 2171.1 1025.38 2182.19 1019.66C2198.82 1011.09 2214.21 1000.49 2230.5 991.36C2242.82 984.45 2255.12 977.21 2267.11 969.55C2281.41 960.41 2296.58 952.63 2310.95 943.57C2325.79 934.21 2341.11 925.7 2356.16 916.72C2373.49 906.38 2390.86 896.11 2408.17 885.73C2419.93 878.67 2431.49 871.27 2443.36 864.4C2458.66 855.54 2473.45 845.78 2489.24 837.78C2492.86 835.95 2495.19 831.74 2499.92 831.99C2499.91 871.64 2499.91 911.31 2499.91 950.97Z" fill="#E9EBD6"/>
</svg>
