<svg width="29" height="24" viewBox="0 0 29 24" fill="none" xmlns="http://www.w3.org/2000/svg">
<path d="M0.171875 17.7209C0.221875 18.0109 0.281884 18.2909 0.321884 18.5809C6.46188 17.8909 16.9319 15.2609 17.3919 6.13086C16.9519 14.7309 6.29187 17.0809 0.171875 17.7209Z" fill="#A1A78F"/>
<path d="M1.41937 18.4804L0.859375 17.8304C0.899375 17.8004 5.68937 13.9904 7.03937 11.1504C5.61937 14.1604 1.58937 18.3404 1.41937 18.4804Z" fill="#A1A78F"/>
<path d="M15.4622 21.3907C14.3422 19.2907 7.68219 18.0307 5.49219 17.5707L5.77219 16.9707C6.11219 17.0407 13.9222 18.5107 15.4622 21.3907Z" fill="#A1A78F"/>
<path d="M22.4331 17.8395C21.2531 16.5295 13.0631 16.6495 8.56313 16.6495C8.53313 16.6495 8.48312 16.3195 8.45312 16.3195L8.98312 15.7695C10.1831 15.7695 20.6131 15.8095 22.4331 17.8395Z" fill="#A1A78F"/>
<path d="M3.96359 16.97C3.63359 16.97 3.28358 16.9 2.89358 16.76L2.76358 16.71L2.68358 16.59C2.66358 16.55 0.33359 12.9 4.24359 10.1C7.88359 7.5 8.08358 6.72 8.09358 6.69L8.06358 6.5L8.32359 6.25H8.52359C9.10359 6.25 9.85358 8.16 9.86358 8.18C10.3736 9.48 10.9136 11.96 8.81358 13.9C6.23358 16.25 5.11359 16.97 3.96359 16.97ZM3.32359 16C3.56359 16.07 3.77359 16.11 3.96359 16.11C4.83359 16.11 5.90359 15.39 8.22359 13.26C9.02359 12.52 9.44359 11.62 9.46359 10.57C9.49359 9.31 8.96359 8.14 8.58359 7.5C8.12359 8.11 7.07358 9.12 4.73358 10.79C1.83358 12.88 2.99359 15.42 3.32359 16Z" fill="#A1A78F"/>
<path d="M13.5805 13.6599L13.4605 13.3999C13.4105 13.2799 12.1205 10.2799 14.0505 6.79992C15.9205 3.40992 18.8805 1.20992 19.0105 1.11992L19.6105 0.669922L19.6905 1.41992C19.7705 2.27992 20.4805 9.87992 18.8005 11.6899C17.1005 13.5199 14.0105 13.6599 13.8805 13.6599H13.5805ZM18.9105 2.28992C17.9505 3.10992 16.0905 4.87992 14.8005 7.19992C13.4005 9.73992 13.9005 11.9999 14.1505 12.7699C14.9305 12.6899 17.0005 12.3599 18.1705 11.0999C19.2505 9.92992 19.1105 4.91992 18.9105 2.28992Z" fill="#A1A78F"/>
<path d="M18.7122 11.7498L18.2422 11.0398C18.2722 11.0198 22.5122 8.64977 23.2222 6.50977C22.4222 8.92977 18.8322 11.6698 18.7122 11.7498Z" fill="#A1A78F"/>
<path d="M20.0821 10.98C19.8421 10.97 19.7021 10.95 19.7021 10.95L19.3821 10.9L19.3421 10.58C19.3321 10.53 18.7021 5.39 24.9921 2.94L25.4821 2.75L25.5721 3.26C25.5921 3.38 26.0921 6.35 24.7221 8.84C23.5521 10.95 21.0821 11.04 20.0821 10.98ZM24.7821 3.95C20.4721 5.86 20.1521 9.08 20.1721 10.13C21.0321 10.18 23.0521 10.09 23.9721 8.43C24.8621 6.8 24.8521 4.87 24.7821 3.95Z" fill="#A1A78F"/>
<path d="M17.9791 23.7005C11.5991 24.2805 9.92907 18.7505 9.91907 18.7005L9.78906 18.2705L10.2291 18.1705C10.2591 18.1605 10.9891 18.0005 11.9791 17.9105C13.5191 17.7705 15.5991 17.8305 16.7291 18.9005C18.5191 20.5905 19.1791 22.9605 19.2091 23.0605L19.3391 23.5205L18.8691 23.6005C18.5691 23.6305 18.2691 23.6705 17.9791 23.7005ZM10.8991 18.9005C11.3991 20.1005 13.1991 23.2705 17.8991 22.8505C18.0091 22.8405 18.1191 22.8305 18.2291 22.8205C17.9591 22.0805 17.3091 20.6205 16.1391 19.5105C15.4391 18.8405 13.9891 18.5705 12.0491 18.7505C11.6091 18.7905 11.1991 18.8505 10.8991 18.9005Z" fill="#A1A78F"/>
<path d="M24.7509 19.8098C23.8609 19.8098 23.0409 19.7698 22.3209 19.6998C19.8109 19.4398 16.9309 16.9598 16.8209 16.8598L16.4609 16.5498L16.8109 16.2298C17.6009 15.5098 19.0209 15.0898 20.7209 15.0898C21.8009 15.0898 22.9109 15.2698 23.8509 15.5898C26.2109 16.3898 27.7509 18.9598 27.8109 19.0698L28.1509 19.6498L27.4809 19.7098C27.4309 19.6998 26.2609 19.8098 24.7509 19.8098ZM17.7909 16.5598C18.6509 17.2298 20.6809 18.6798 22.4009 18.8498C23.1009 18.9198 23.8809 18.9598 24.7409 18.9598C25.5009 18.9598 26.1809 18.9298 26.6609 18.8998C26.0909 18.1398 24.9809 16.8598 23.5609 16.3798C22.7109 16.0898 21.7009 15.9298 20.7009 15.9298C19.5209 15.9398 18.4809 16.1598 17.7909 16.5598Z" fill="#A1A78F"/>
</svg>
