<svg width="262" height="79" viewBox="0 0 262 79" fill="none" xmlns="http://www.w3.org/2000/svg">
<g clip-path="url(#clip0_90_2)">
<mask id="mask0_90_2" style="mask-type:luminance" maskUnits="userSpaceOnUse" x="0" y="0" width="262" height="79">
<path d="M262 0H0V79H262V0Z" fill="white"/>
</mask>
<g mask="url(#mask0_90_2)">
<mask id="mask1_90_2" style="mask-type:luminance" maskUnits="userSpaceOnUse" x="-96" y="-113" width="428" height="279">
<path d="M331.38 -113H-96V165.4H331.38V-113Z" fill="white"/>
</mask>
<g mask="url(#mask1_90_2)">
<mask id="mask2_90_2" style="mask-type:luminance" maskUnits="userSpaceOnUse" x="-96" y="-113" width="428" height="279">
<path d="M331.38 -113H-96V165.4H331.38V-113Z" fill="white"/>
</mask>
<g mask="url(#mask2_90_2)">
<path d="M2.87973 5.65965L3.47973 6.25965C3.30973 11.0396 2.87973 15.7996 2.19973 20.5296C1.51973 25.2596 1.16973 30.0396 1.16973 34.8796C1.16973 35.5096 1.19973 36.3896 1.25973 37.5296C1.30973 38.6696 1.46973 39.8096 1.72973 40.9496C1.98973 42.0896 2.35973 43.0896 2.83973 43.9396C3.31973 44.7896 4.01973 45.2196 4.92973 45.2196C5.54973 45.2196 6.24973 44.8396 7.01973 44.0696C7.78973 43.2996 8.52973 42.3296 9.23973 41.1696C9.94973 39.9996 10.6498 38.6996 11.3298 37.2396C12.0098 35.7896 12.6098 34.3696 13.1198 32.9696C13.6298 31.5796 14.0398 30.3096 14.3598 29.1696C14.6698 28.0296 14.8298 27.1496 14.8298 26.5196C14.8298 26.0096 14.8098 25.1696 14.7898 23.9996C14.7598 22.8296 14.7498 21.5096 14.7498 20.0296C14.7498 18.0296 14.7798 15.8996 14.8398 13.6196C14.8998 11.3496 15.0398 9.21965 15.2698 7.25965C15.4998 5.28965 15.7898 3.65964 16.1698 2.34964C16.5398 1.03964 17.0698 0.389648 17.7498 0.389648C18.1498 0.389648 18.4598 0.599647 18.6898 1.02964C18.9198 1.45964 19.0898 1.96964 19.1998 2.56964C19.3098 3.16964 19.3798 3.74964 19.4098 4.31964C19.4398 4.88964 19.4498 5.28964 19.4498 5.51964C19.4498 7.22964 19.2598 9.14965 18.8898 11.2896C18.5198 13.4296 18.1198 15.5096 17.6998 17.5296C17.2698 19.5496 16.8898 21.3896 16.5498 23.0396C16.2098 24.6896 16.0398 25.9396 16.0398 26.7996C16.0398 32.1496 16.4698 37.4196 17.3198 42.5996C17.4898 43.6796 17.7798 44.8896 18.1798 46.2296C18.5798 47.5596 18.7798 48.7496 18.7798 49.7796C18.7798 49.8896 18.7398 50.0296 18.6498 50.2096C18.5598 50.3796 18.4398 50.4696 18.2698 50.4696C17.8698 50.4696 17.5298 50.0996 17.2398 49.3596C16.9498 48.6196 16.6798 47.6496 16.4298 46.4596C16.1698 45.2596 15.9598 43.9396 15.7898 42.4896C15.6198 41.0396 15.4798 39.5696 15.3598 38.0896C15.2498 36.6096 15.1498 35.2296 15.0598 33.9496C14.9798 32.6696 14.9298 31.5996 14.9298 30.7496C14.5898 31.7796 14.1298 33.1696 13.5598 34.9296C12.9898 36.6996 12.2798 38.4496 11.4198 40.1796C10.5698 41.9196 9.59973 43.4096 8.50973 44.6596C7.42973 45.9096 6.19973 46.5396 4.83973 46.5396C3.69973 46.5396 2.79973 45.9996 2.14973 44.9196C1.49973 43.8396 1.00973 42.5696 0.699722 41.1196C0.389722 39.6696 0.189724 38.2196 0.0997239 36.7696C0.0197239 35.3096 -0.0302734 34.1896 -0.0302734 33.3896C-0.0302734 28.7796 0.279729 24.2596 0.909729 19.8496C1.53973 15.4396 1.95973 10.9196 2.18973 6.30964L2.87973 5.65965ZM17.8298 2.14965C17.1998 3.34965 16.7898 4.76964 16.5898 6.41964C16.3898 8.06964 16.2598 9.79964 16.1998 11.5896C16.1398 13.3796 16.1298 15.1596 16.1598 16.9296C16.1898 18.6996 16.1398 20.2596 16.0298 21.6296C16.6498 19.1796 17.1798 16.7296 17.6098 14.2796C18.0398 11.8296 18.2498 9.32965 18.2498 6.75965C18.2498 5.95965 18.2198 5.18964 18.1598 4.44964C18.1098 3.71964 17.9998 2.94965 17.8298 2.14965Z" fill="#E7E9E1"/>
</g>
<mask id="mask3_90_2" style="mask-type:luminance" maskUnits="userSpaceOnUse" x="-96" y="-113" width="428" height="279">
<path d="M331.38 -113H-96V165.4H331.38V-113Z" fill="white"/>
</mask>
<g mask="url(#mask3_90_2)">
<path d="M25.5599 42.3496C25.4699 40.6696 25.3599 38.8196 25.2199 36.7996C25.0799 34.7796 24.8899 32.6896 24.6599 30.5196C24.4299 28.3596 24.1799 26.3196 23.8899 24.4096C23.5999 22.4996 23.2799 20.8396 22.9099 19.4096C22.5399 17.9796 22.1299 16.9896 21.6699 16.4196L22.2699 15.9096C22.6699 15.9596 23.0399 16.4196 23.3799 17.2696C23.7199 18.1196 24.0299 19.1896 24.3199 20.4696C24.5999 21.7496 24.8599 23.1496 25.0899 24.6596C25.3199 26.1696 25.4999 27.6196 25.6499 29.0196C25.7899 30.4196 25.9099 31.6396 25.9899 32.6896C26.0799 33.7396 26.1199 34.4396 26.1199 34.7796C26.1799 33.4696 26.2899 31.6896 26.4599 29.4396C26.6299 27.1896 26.9599 24.9696 27.4399 22.7796C27.9199 20.5896 28.6499 18.6196 29.6199 16.8896C30.5899 15.1496 31.9299 14.1396 33.6299 13.8496L34.2299 14.4496L33.7199 15.0496C32.4099 15.2196 31.3399 16.0996 30.5199 17.6996C29.6999 19.2996 29.0299 21.2496 28.5099 23.5496C27.9999 25.8596 27.6299 28.3496 27.3999 31.0196C27.1699 33.6996 26.9899 36.1596 26.8499 38.4096C26.7099 40.6596 26.5799 42.5396 26.4599 44.0496C26.3399 45.5596 26.1699 46.3096 25.9499 46.3096H25.7799C25.7099 45.3496 25.6399 44.0296 25.5599 42.3496Z" fill="#E7E9E1"/>
</g>
<mask id="mask4_90_2" style="mask-type:luminance" maskUnits="userSpaceOnUse" x="-96" y="-113" width="428" height="279">
<path d="M331.38 -113H-96V165.4H331.38V-113Z" fill="white"/>
</mask>
<g mask="url(#mask4_90_2)">
<path d="M40.3804 42.3001C39.9204 42.3001 39.5804 41.6201 39.3604 40.2501C39.1304 38.8801 38.9604 37.0901 38.8504 34.8701C38.7304 32.6501 38.6104 30.1301 38.4604 27.3101C38.3204 24.4901 38.1204 21.6301 37.8604 18.7301C37.6004 15.8301 37.2304 13.0201 36.7504 10.3101C36.2704 7.61016 35.6004 5.23016 34.7404 3.18016L34.6504 2.84016L35.2504 2.16016C35.7004 2.16016 36.0604 2.50016 36.3204 3.19016C36.5804 3.87016 36.7604 4.38016 36.8704 4.73016C37.6104 7.41016 38.1804 10.1901 38.5804 13.1001C38.9804 16.0101 39.2804 18.9501 39.4804 21.9401C39.6804 24.9301 39.8404 27.9101 39.9504 30.8701C40.0604 33.8301 40.2304 36.7101 40.4604 39.5001C40.6304 38.7601 40.8504 37.6801 41.1004 36.2501C41.3604 34.8301 41.6704 33.2501 42.0404 31.5101C42.4104 29.7701 42.8204 28.0101 43.2804 26.2101C43.7304 24.4201 44.2504 22.7801 44.8204 21.3001C45.3904 19.8201 46.0204 18.6101 46.7004 17.6701C47.3804 16.7301 48.1504 16.2601 49.0104 16.2601C50.0904 16.2601 50.9904 16.7001 51.7004 17.5801C52.4104 18.4601 52.9704 19.5001 53.3704 20.7001C53.7704 21.8901 54.0404 23.1201 54.1804 24.3701C54.3204 25.6301 54.3904 26.6501 54.3904 27.4501C54.3904 28.4201 54.2304 29.8701 53.9204 31.8101C53.6104 33.7501 53.1404 35.6801 52.5104 37.6201C51.8804 39.5501 51.1104 41.2501 50.2004 42.7001C49.2904 44.1501 48.2004 44.8801 46.9504 44.8801C46.4404 44.8801 46.0504 44.7401 45.8004 44.4501C45.5404 44.1601 45.3604 43.8101 45.2404 43.3801C45.1304 42.9501 45.0504 42.5001 45.0304 42.0101C45.0004 41.5301 44.9604 41.1101 44.9004 40.7701L45.5804 40.0901L46.0904 40.5201L46.6004 43.4201L47.3704 43.5101C49.3104 41.5201 50.7904 39.1401 51.8104 36.3801C52.8304 33.6201 53.3504 30.8401 53.3504 28.0501C53.3504 27.4801 53.2604 26.6301 53.0904 25.4901C52.9204 24.3501 52.6504 23.2001 52.2804 22.0301C51.9104 20.8601 51.4504 19.8401 50.9104 18.9501C50.3704 18.0701 49.7304 17.6301 48.9904 17.6301C48.3604 17.6301 47.7604 18.1001 47.2004 19.0401C46.6304 19.9801 46.1004 21.1901 45.6204 22.6701C45.1404 24.1501 44.6804 25.7701 44.2504 27.5401C43.8204 29.3101 43.4504 31.0101 43.1404 32.6601C42.8304 34.3201 42.5404 35.7901 42.2904 37.1001C42.0304 38.4101 41.8504 39.3201 41.7304 39.8401C41.6204 40.1201 41.4604 40.6101 41.2604 41.2901C41.0804 41.9601 40.7804 42.3001 40.3804 42.3001Z" fill="#E7E9E1"/>
</g>
<mask id="mask5_90_2" style="mask-type:luminance" maskUnits="userSpaceOnUse" x="-96" y="-113" width="428" height="279">
<path d="M331.38 -113H-96V165.4H331.38V-113Z" fill="white"/>
</mask>
<g mask="url(#mask5_90_2)">
<path d="M56.2695 32.6498C56.2695 31.5698 56.3995 30.0298 56.6495 28.0298C56.9095 26.0398 57.3495 24.0898 57.9695 22.1798C58.5995 20.2698 59.4095 18.6098 60.3995 17.1798C61.3995 15.7598 62.6595 15.0498 64.1995 15.0498C65.1695 15.0498 66.0095 15.3599 66.7195 15.9899C67.4295 16.6199 68.0495 17.2698 68.5595 17.9498C68.5595 17.6698 68.5995 17.4098 68.6895 17.1798C68.7795 16.9498 68.9595 16.7798 69.2395 16.6698L69.8395 17.2699V20.2598C69.8395 21.7398 69.8695 23.4498 69.9195 25.3898C69.9795 27.3298 70.0795 29.3598 70.2195 31.4998C70.3595 33.6398 70.5895 35.5899 70.8995 37.3499C71.2095 39.1199 71.6295 40.5798 72.1395 41.7498C72.6495 42.9198 73.3095 43.4998 74.1095 43.4998L75.6495 42.8199L76.1595 43.4998C76.0495 43.8398 75.7395 44.1698 75.2595 44.4798C74.7695 44.7898 74.3595 44.9498 74.0195 44.9498C72.9895 44.9498 72.1695 44.2999 71.5395 42.9899C70.9095 41.6799 70.4195 40.1699 70.0495 38.4599C69.6795 36.7499 69.4095 35.0599 69.2395 33.3799C69.0695 31.6999 68.9495 30.4698 68.8995 29.6598C68.7295 30.6298 68.3995 31.9098 67.9195 33.4998C67.4395 35.0898 66.8195 36.6898 66.0795 38.2798C65.3395 39.8698 64.4695 41.2399 63.4695 42.3799C62.4695 43.5199 61.3495 44.0898 60.0895 44.0898C59.2395 44.0898 58.5495 43.5899 58.0395 42.5999C57.5295 41.6099 57.1395 40.4598 56.8895 39.1798C56.6295 37.8998 56.4595 36.6198 56.3795 35.3398C56.3095 34.0598 56.2695 33.1598 56.2695 32.6498ZM60.4495 42.4698C61.2495 42.4698 61.9995 42.0699 62.7095 41.2699C63.4195 40.4699 64.0895 39.4498 64.7195 38.1998C65.3495 36.9498 65.8895 35.5498 66.3395 34.0098C66.7995 32.4698 67.1895 30.9798 67.5295 29.5298C67.8695 28.0798 68.1295 26.7598 68.2995 25.5598C68.4695 24.3598 68.5595 23.4498 68.5595 22.8298V19.3298C68.2195 19.3298 67.9195 19.1698 67.6595 18.8598C67.3995 18.5498 67.1295 18.2098 66.8495 17.8398C66.5595 17.4698 66.2395 17.1299 65.8695 16.8199C65.4995 16.5099 65.0295 16.3499 64.4595 16.3499C63.0895 16.3499 61.9695 17.0298 61.0895 18.3998C60.1995 19.7698 59.5095 21.3598 58.9995 23.1798C58.4895 24.9998 58.1195 26.8298 57.8895 28.6498C57.6595 30.4798 57.5495 31.8698 57.5495 32.8298C57.5495 33.2898 57.5695 34.0398 57.5895 35.0898C57.6195 36.1498 57.7195 37.2298 57.8895 38.3398C58.0595 39.4498 58.3395 40.4199 58.7395 41.2399C59.1395 42.0599 59.7095 42.4698 60.4495 42.4698Z" fill="#E7E9E1"/>
</g>
<mask id="mask6_90_2" style="mask-type:luminance" maskUnits="userSpaceOnUse" x="-96" y="-113" width="428" height="279">
<path d="M331.38 -113H-96V165.4H331.38V-113Z" fill="white"/>
</mask>
<g mask="url(#mask6_90_2)">
<path d="M77.2003 19.8402L77.8003 20.4402C78.3103 23.6902 78.6403 26.9302 78.7803 30.1802C78.9203 33.4302 79.4504 36.6502 80.3604 39.8402C80.5904 39.2102 80.8004 38.1702 81.0004 36.7202C81.2004 35.2602 81.4003 33.6402 81.6003 31.8502C81.8003 30.0502 82.0103 28.2102 82.2403 26.3002C82.4703 24.3902 82.7704 22.6602 83.1404 21.0902C83.5104 19.5302 83.9604 18.2302 84.5104 17.2002C85.0504 16.1702 85.7203 15.6602 86.5203 15.6602C87.3203 15.6602 87.9304 16.2402 88.3604 17.4102C88.7904 18.5802 89.1303 20.0702 89.3803 21.8902C89.6303 23.7102 89.8303 25.7402 89.9803 27.9602C90.1203 30.1802 90.3104 32.3502 90.5404 34.4502C90.7704 36.5602 91.0704 38.4502 91.4404 40.1302C91.8104 41.8102 92.3604 43.0502 93.1104 43.8502C93.6204 44.4202 94.1304 44.9602 94.6504 45.4702C95.1604 45.9802 95.7003 46.4602 96.2703 46.9202L95.7604 47.5202C94.0504 47.0102 92.7404 45.9502 91.8304 44.3602C90.9204 42.7602 90.2303 40.9002 89.7803 38.7702C89.3203 36.6302 89.0203 34.3702 88.8803 31.9802C88.7403 29.5902 88.6103 27.3602 88.4903 25.2702C88.3703 23.1902 88.1804 21.4002 87.8904 19.8902C87.6004 18.3802 87.0903 17.4302 86.3503 17.0302C85.7803 17.0302 85.3104 17.5102 84.9404 18.4802C84.5704 19.4502 84.2604 20.6902 84.0004 22.2002C83.7404 23.7102 83.5104 25.4002 83.3204 27.2802C83.1204 29.1602 82.9104 31.0302 82.6804 32.8802C82.4504 34.7302 82.2103 36.4802 81.9503 38.1302C81.6903 39.7802 81.4003 41.1202 81.0503 42.1502L80.7904 42.2402C80.2804 42.2402 79.8304 41.7702 79.4604 40.8302C79.0904 39.8902 78.7603 38.7102 78.4803 37.2802C78.2003 35.8502 77.9504 34.2802 77.7504 32.5402C77.5504 30.8002 77.3803 29.1202 77.2403 27.5002C77.1003 25.8802 76.9704 24.4302 76.8604 23.1402C76.7504 21.8602 76.6604 20.9602 76.6104 20.4502L77.2003 19.8402Z" fill="#E7E9E1"/>
</g>
<mask id="mask7_90_2" style="mask-type:luminance" maskUnits="userSpaceOnUse" x="-96" y="-113" width="428" height="279">
<path d="M331.38 -113H-96V165.4H331.38V-113Z" fill="white"/>
</mask>
<g mask="url(#mask7_90_2)">
<path d="M121.36 1.63965C121.64 1.80965 121.83 2.23965 121.92 2.91965C122.01 3.59965 122.05 4.30965 122.05 5.05965V6.93966C124.5 6.31966 126.96 5.82965 129.44 5.48965C131.92 5.14965 134.44 4.91965 137 4.80965L137.6 5.39966L137.08 5.99966C134.52 6.16966 132.01 6.43965 129.56 6.80965C127.11 7.17965 124.63 7.64966 122.13 8.21966C122.24 14.0296 122.53 19.7996 122.98 25.5196C123.43 31.2396 124.12 36.9496 125.03 42.6496L124.43 43.4196L123.83 42.8196C122.98 37.1296 122.31 31.4296 121.82 25.7396C121.33 20.0396 121.01 14.2896 120.84 8.47966C120.04 8.70966 118.96 9.04966 117.59 9.50966C116.22 9.96966 114.83 10.4196 113.41 10.8796C111.99 11.3396 110.65 11.7596 109.4 12.1596C108.15 12.5596 107.26 12.7896 106.75 12.8496L106.07 12.2496C106.13 11.6796 106.81 11.1296 108.12 10.5896C109.43 10.0496 110.94 9.54965 112.65 9.08965C114.35 8.63965 115.99 8.22966 117.56 7.89966C119.13 7.55966 120.19 7.32965 120.76 7.20965L120.67 2.25966L121.36 1.63965Z" fill="#E7E9E1"/>
</g>
<mask id="mask8_90_2" style="mask-type:luminance" maskUnits="userSpaceOnUse" x="-96" y="-113" width="428" height="279">
<path d="M331.38 -113H-96V165.4H331.38V-113Z" fill="white"/>
</mask>
<g mask="url(#mask8_90_2)">
<path d="M133.57 3.68945L134.17 4.28945C134.17 5.25945 134.16 6.50945 134.13 8.04945C134.1 9.58945 134.07 11.2894 134.05 13.1694C134.02 15.0494 133.99 17.0394 133.96 19.1494C133.93 21.2594 133.92 23.3394 133.92 25.3894C133.92 29.0894 133.98 32.4994 134.09 35.5994C134.21 38.7094 134.43 40.9094 134.78 42.2194C135.06 41.5394 135.38 40.3694 135.72 38.7094C136.06 37.0594 136.43 35.1994 136.83 33.1194C137.23 31.0394 137.67 28.8794 138.15 26.6294C138.64 24.3794 139.15 22.3094 139.69 20.4394C140.23 18.5594 140.8 17.0194 141.4 15.8294C142 14.6294 142.61 14.0294 143.24 14.0294C143.52 14.0294 143.75 14.1694 143.92 14.4594C144.09 14.7494 144.22 15.0694 144.31 15.4494C144.4 15.8194 144.44 16.1894 144.44 16.5594V17.3694C144.44 18.9094 144.35 20.9594 144.18 23.5194C144.01 26.0794 143.92 28.8094 143.92 31.7194C143.92 33.5994 143.99 35.4594 144.13 37.3194C144.27 39.1694 144.53 40.8794 144.9 42.4394C145.27 44.0094 145.8 45.3694 146.48 46.5394C147.16 47.6994 148.05 48.5494 149.13 49.0594L149.56 49.5694L148.87 50.2494C147.45 49.6794 146.33 48.7794 145.54 47.5594C144.75 46.3294 144.15 44.9694 143.75 43.4594C143.35 41.9494 143.11 40.4094 143.02 38.8394C142.94 37.2694 142.89 35.8394 142.89 34.5294C142.89 32.5394 142.96 30.4994 143.1 28.4194C143.24 26.3394 143.31 24.2794 143.31 22.2294C143.31 21.1494 143.28 20.0694 143.23 18.9794C143.17 17.8994 143.03 16.7894 142.8 15.6494C141.72 17.9294 140.89 20.2794 140.32 22.6994C139.75 25.1194 139.25 27.5394 138.83 29.9594C138.4 32.3794 137.93 34.7794 137.42 37.1794C136.91 39.5794 136.19 41.9094 135.28 44.1894L134.77 44.5294C134.26 44.5294 133.87 43.9194 133.62 42.6894C133.36 41.4694 133.17 40.0394 133.02 38.4194C132.88 36.7894 132.79 35.1894 132.77 33.5894C132.74 31.9994 132.72 30.7994 132.72 29.9994C132.72 25.7294 132.75 21.4394 132.8 17.1394C132.86 12.8394 132.89 8.54945 132.89 4.27945L133.57 3.68945Z" fill="#E7E9E1"/>
</g>
<mask id="mask9_90_2" style="mask-type:luminance" maskUnits="userSpaceOnUse" x="-96" y="-113" width="428" height="279">
<path d="M331.38 -113H-96V165.4H331.38V-113Z" fill="white"/>
</mask>
<g mask="url(#mask9_90_2)">
<path d="M146.81 29.58L147.32 29.07C147.32 28.22 147.34 27.05 147.37 25.57C147.4 24.09 147.55 22.62 147.84 21.17C148.13 19.72 148.58 18.45 149.21 17.37C149.83 16.29 150.72 15.75 151.86 15.75C152.66 15.75 153.4 16.06 154.08 16.69C154.76 17.32 155.36 18.07 155.87 18.95C156.38 19.83 156.78 20.76 157.07 21.73C157.35 22.7 157.49 23.53 157.49 24.21C157.49 24.95 157.36 25.79 157.11 26.73C156.86 27.67 156.5 28.57 156.04 29.42C155.58 30.27 155.02 30.99 154.33 31.56C153.65 32.13 152.85 32.41 151.94 32.41C151.31 32.41 150.7 32.25 150.1 31.94C149.5 31.63 149.03 31.25 148.69 30.79C148.8 31.53 149.02 32.61 149.33 34.03C149.64 35.46 150.07 36.86 150.61 38.26C151.15 39.66 151.81 40.87 152.57 41.89C153.34 42.91 154.24 43.43 155.26 43.43C155.83 43.43 156.37 43.25 156.88 42.87C157.39 42.5 157.86 42.03 158.29 41.46C158.72 40.89 159.09 40.31 159.4 39.71C159.71 39.11 159.98 38.58 160.21 38.13L160.81 37.96L161.49 38.47C161.38 39.04 161.11 39.68 160.68 40.39C160.25 41.1 159.75 41.77 159.18 42.4C158.61 43.03 157.98 43.55 157.3 43.98C156.62 44.41 155.96 44.62 155.33 44.62C153.96 44.62 152.8 44.08 151.83 43C150.86 41.92 150.06 40.61 149.44 39.07C148.81 37.53 148.34 35.95 148.03 34.33C147.72 32.71 147.53 31.38 147.47 30.36L147.21 30.27L146.81 29.58ZM151.68 17.27C150.94 17.27 150.36 17.7 149.93 18.55C149.5 19.4 149.19 20.38 148.99 21.5C148.79 22.61 148.66 23.72 148.6 24.83C148.54 25.94 148.51 26.75 148.51 27.26C148.51 28.4 148.74 29.34 149.19 30.08C149.65 30.82 150.5 31.19 151.75 31.19C152.61 31.19 153.3 30.95 153.85 30.47C154.39 29.98 154.83 29.39 155.17 28.67C155.51 27.96 155.74 27.2 155.85 26.41C155.96 25.62 156.02 24.88 156.02 24.19C156.02 23.62 155.94 22.94 155.76 22.14C155.59 21.34 155.33 20.58 154.99 19.83C154.65 19.09 154.19 18.48 153.62 17.99C153.08 17.52 152.42 17.27 151.68 17.27Z" fill="#E7E9E1"/>
</g>
<mask id="mask10_90_2" style="mask-type:luminance" maskUnits="userSpaceOnUse" x="-96" y="-113" width="428" height="279">
<path d="M331.38 -113H-96V165.4H331.38V-113Z" fill="white"/>
</mask>
<g mask="url(#mask10_90_2)">
<path d="M167.19 42.3496C167.1 40.6696 166.99 38.8196 166.85 36.7996C166.71 34.7796 166.52 32.6896 166.29 30.5196C166.06 28.3596 165.8 26.3196 165.52 24.4096C165.24 22.4996 164.91 20.8396 164.54 19.4096C164.17 17.9796 163.76 16.9896 163.3 16.4196L163.9 15.9096C164.3 15.9596 164.67 16.4196 165.01 17.2696C165.35 18.1196 165.66 19.1896 165.95 20.4696C166.23 21.7496 166.49 23.1496 166.72 24.6596C166.95 26.1696 167.13 27.6196 167.28 29.0196C167.42 30.4196 167.54 31.6396 167.62 32.6896C167.71 33.7396 167.75 34.4396 167.75 34.7796C167.81 33.4696 167.92 31.6896 168.09 29.4396C168.26 27.1896 168.59 24.9696 169.07 22.7796C169.56 20.5896 170.28 18.6196 171.25 16.8896C172.22 15.1496 173.56 14.1396 175.26 13.8496L175.86 14.4496L175.35 15.0496C174.04 15.2196 172.97 16.0996 172.15 17.6996C171.32 19.2996 170.65 21.2496 170.14 23.5496C169.63 25.8596 169.26 28.3496 169.03 31.0196C168.8 33.6996 168.61 36.1596 168.47 38.4096C168.33 40.6596 168.2 42.5396 168.08 44.0496C167.97 45.5596 167.8 46.3096 167.57 46.3096H167.4C167.34 45.3496 167.27 44.0296 167.19 42.3496Z" fill="#E7E9E1"/>
</g>
<mask id="mask11_90_2" style="mask-type:luminance" maskUnits="userSpaceOnUse" x="-96" y="-113" width="428" height="279">
<path d="M331.38 -113H-96V165.4H331.38V-113Z" fill="white"/>
</mask>
<g mask="url(#mask11_90_2)">
<path d="M177.57 32.6498C177.57 31.5698 177.7 30.0298 177.96 28.0298C178.22 26.0398 178.66 24.0898 179.28 22.1798C179.91 20.2698 180.72 18.6098 181.71 17.1798C182.71 15.7598 183.98 15.0498 185.51 15.0498C186.48 15.0498 187.32 15.3599 188.03 15.9899C188.74 16.6199 189.36 17.2698 189.86 17.9498C189.86 17.6698 189.9 17.4098 189.99 17.1798C190.08 16.9498 190.26 16.7798 190.55 16.6698L191.15 17.2699V20.2598C191.15 21.7398 191.18 23.4498 191.24 25.3898C191.29 27.3298 191.39 29.3598 191.54 31.4998C191.68 33.6398 191.91 35.5899 192.22 37.3499C192.53 39.1199 192.95 40.5798 193.46 41.7498C193.97 42.9198 194.63 43.4998 195.42 43.4998L196.96 42.8199L197.47 43.4998C197.35 43.8398 197.06 44.1698 196.57 44.4798C196.09 44.7898 195.67 44.9498 195.33 44.9498C194.31 44.9498 193.48 44.2999 192.85 42.9899C192.22 41.6799 191.73 40.1699 191.36 38.4599C190.99 36.7499 190.72 35.0599 190.55 33.3799C190.38 31.6999 190.27 30.4698 190.21 29.6598C190.04 30.6298 189.71 31.9098 189.23 33.5098C188.74 35.0998 188.13 36.6998 187.4 38.2898C186.66 39.8798 185.79 41.2498 184.79 42.3898C183.79 43.5298 182.67 44.0999 181.42 44.0999C180.57 44.0999 179.88 43.5998 179.37 42.6098C178.86 41.6098 178.47 40.4698 178.22 39.1898C177.96 37.9098 177.79 36.6299 177.71 35.3499C177.61 34.0599 177.57 33.1598 177.57 32.6498ZM181.75 42.4698C182.55 42.4698 183.3 42.0699 184.01 41.2699C184.72 40.4699 185.39 39.4498 186.02 38.1998C186.65 36.9498 187.18 35.5498 187.64 34.0098C188.09 32.4698 188.49 30.9798 188.84 29.5298C189.18 28.0798 189.44 26.7598 189.61 25.5598C189.78 24.3598 189.86 23.4498 189.86 22.8298V19.3298C189.52 19.3298 189.22 19.1698 188.97 18.8598C188.71 18.5498 188.44 18.2098 188.16 17.8398C187.88 17.4698 187.54 17.1299 187.18 16.8199C186.81 16.5099 186.34 16.3499 185.77 16.3499C184.4 16.3499 183.28 17.0298 182.4 18.3998C181.52 19.7698 180.82 21.3598 180.31 23.1798C179.8 24.9998 179.43 26.8298 179.2 28.6498C178.97 30.4798 178.86 31.8698 178.86 32.8298C178.86 33.2898 178.88 34.0398 178.91 35.0898C178.94 36.1498 179.04 37.2298 179.21 38.3398C179.38 39.4498 179.67 40.4199 180.06 41.2399C180.44 42.0599 181.01 42.4698 181.75 42.4698Z" fill="#E7E9E1"/>
</g>
<mask id="mask12_90_2" style="mask-type:luminance" maskUnits="userSpaceOnUse" x="-96" y="-113" width="428" height="279">
<path d="M331.38 -113H-96V165.4H331.38V-113Z" fill="white"/>
</mask>
<g mask="url(#mask12_90_2)">
<path d="M201.91 56.1403C201.97 54.8903 201.85 53.4403 201.57 51.7803C201.29 50.1303 201.09 48.7303 200.97 47.6003L197.64 20.2603L197.47 19.9203L198.24 18.9003C198.52 18.9503 198.76 19.3403 198.97 20.0503C199.17 20.7603 199.34 21.6703 199.48 22.7803C199.62 23.8903 199.72 25.1003 199.78 26.4103C199.84 27.7203 199.9 28.9903 200 30.2103C200.08 31.4403 200.18 32.5503 200.3 33.5403C200.42 34.5403 200.58 35.2403 200.81 35.6303C200.86 34.9503 200.96 33.9403 201.11 32.6003C201.25 31.2703 201.45 29.8103 201.7 28.2403C201.96 26.6803 202.29 25.0803 202.69 23.4603C203.09 21.8403 203.57 20.3703 204.14 19.0603C204.71 17.7503 205.38 16.6703 206.15 15.8203C206.92 14.9603 207.78 14.5303 208.75 14.5303C209.66 14.5303 210.43 15.0703 211.06 16.1503C211.68 17.2303 212.18 18.4903 212.55 19.9103C212.92 21.3303 213.18 22.7603 213.32 24.1803C213.46 25.6103 213.53 26.6303 213.53 27.2503C213.53 28.3903 213.43 29.9803 213.23 32.0303C213.03 34.0803 212.63 36.1203 212.04 38.1403C211.44 40.1703 210.61 41.9203 209.56 43.4003C208.51 44.8803 207.15 45.6203 205.5 45.6203C204.87 45.6203 204.19 45.3703 203.45 44.8903C202.71 44.4103 202.31 43.8203 202.26 43.1403L202.94 42.2003C203.4 42.4303 203.89 42.8303 204.44 43.4003C204.98 43.9703 205.45 44.2503 205.85 44.2503C207.1 44.2503 208.14 43.5803 208.97 42.2403C209.79 40.9003 210.45 39.3403 210.93 37.5403C211.42 35.7403 211.76 33.9503 211.96 32.1603C212.16 30.3703 212.26 29.0403 212.26 28.1903C212.26 27.6203 212.22 26.6703 212.13 25.3303C212.05 23.9903 211.87 22.6203 211.62 21.2303C211.36 19.8303 210.98 18.6003 210.47 17.5103C209.96 16.4303 209.3 15.8903 208.51 15.8903L207.57 16.3203C206.38 18.0303 205.42 19.8403 204.71 21.7403C204 23.6503 203.46 25.6103 203.09 27.6303C202.72 29.6503 202.46 31.7003 202.32 33.7803C202.18 35.8603 202.11 37.9003 202.11 39.8903V44.0303C202.11 45.5403 202.14 47.0603 202.2 48.6003C202.26 50.1303 202.37 51.6603 202.54 53.1703C202.71 54.6803 202.94 56.0303 203.23 57.2303H202.97L202.54 57.5703L201.94 57.0603V56.1403H201.91Z" fill="#E7E9E1"/>
</g>
<mask id="mask13_90_2" style="mask-type:luminance" maskUnits="userSpaceOnUse" x="-96" y="-113" width="428" height="279">
<path d="M331.38 -113H-96V165.4H331.38V-113Z" fill="white"/>
</mask>
<g mask="url(#mask13_90_2)">
<path d="M216.26 17.19L216.94 17.79C216.94 18.75 216.93 19.94 216.9 21.33C216.87 22.72 216.86 24.25 216.86 25.9C216.86 27.44 216.87 29.03 216.9 30.68C216.93 32.34 217.01 33.91 217.15 35.42C217.29 36.93 217.48 38.31 217.71 39.57C217.94 40.82 218.25 41.82 218.65 42.56C218.99 42.5 219.43 41.85 219.97 40.6C220.51 39.35 221.08 37.81 221.68 35.98C222.28 34.16 222.89 32.15 223.52 29.96C224.14 27.77 224.73 25.67 225.27 23.68C225.81 21.68 226.29 19.9 226.72 18.34C227.15 16.77 227.48 15.68 227.7 15.05L228.21 14.79C228.55 14.85 228.87 15.36 229.15 16.33C229.43 17.3 229.66 18.58 229.83 20.17C230 21.77 230.14 23.56 230.26 25.55C230.37 27.54 230.44 29.56 230.48 31.61C230.5 33.66 230.53 35.67 230.56 37.63C230.59 39.41 230.6 40.98 230.6 42.36V42.54V42.8V41.86C230.94 41.92 230.69 43.14 230.69 43.14V46.77C230.69 48.45 230.63 50.34 230.52 52.45C230.4 54.56 230.23 56.73 230.01 58.98C229.78 61.23 229.43 63.3 228.94 65.18C228.46 67.06 227.83 68.6 227.06 69.79C226.29 70.99 225.34 71.58 224.2 71.58C223.06 71.58 222.16 71.22 221.51 70.51C220.85 69.8 220.34 68.94 219.97 67.95C219.6 66.95 219.36 65.9 219.24 64.79C219.12 63.68 219.07 62.73 219.07 61.93C219.07 60.34 219.25 58.46 219.63 56.29C220 54.13 220.59 52.02 221.42 49.97C222.24 47.92 223.31 46.11 224.62 44.55C225.93 42.98 227.53 42.03 229.41 41.68V34.59C229.41 31.69 229.33 28.78 229.19 25.88C229.05 22.98 228.69 20.21 228.12 17.59C227.84 18.22 227.49 19.3 227.1 20.84C226.7 22.38 226.25 24.11 225.77 26.05C225.28 27.99 224.76 30.01 224.19 32.11C223.62 34.22 223.02 36.14 222.4 37.88C221.77 39.62 221.15 41.04 220.52 42.15C219.89 43.26 219.29 43.82 218.72 43.82C218.15 43.82 217.68 43.26 217.31 42.15C216.94 41.04 216.64 39.62 216.41 37.88C216.18 36.14 216.01 34.25 215.9 32.2C215.79 30.15 215.72 28.16 215.69 26.22C215.66 24.28 215.64 22.55 215.64 21.01V17.77L216.26 17.19ZM225.14 70.07C226.28 68.42 227.15 66.45 227.74 64.18C228.34 61.9 228.77 59.52 229.02 57.04C229.28 54.56 229.41 52.1 229.41 49.65V42.99C228.49 42.99 227.63 43.36 226.8 44.1C225.97 44.84 225.2 45.78 224.49 46.92C223.78 48.06 223.15 49.34 222.61 50.77C222.07 52.19 221.61 53.6 221.24 55C220.87 56.4 220.59 57.71 220.39 58.93C220.19 60.15 220.09 61.14 220.09 61.87C220.09 62.5 220.15 63.3 220.26 64.27C220.37 65.23 220.59 66.16 220.9 67.04C221.22 67.92 221.64 68.68 222.18 69.3C222.72 69.93 223.45 70.24 224.36 70.24C224.55 70.24 224.8 70.18 225.14 70.07Z" fill="#E7E9E1"/>
</g>
<mask id="mask14_90_2" style="mask-type:luminance" maskUnits="userSpaceOnUse" x="-96" y="-113" width="428" height="279">
<path d="M331.38 -113H-96V165.4H331.38V-113Z" fill="white"/>
</mask>
<g mask="url(#mask14_90_2)">
<path d="M84.6193 71.0494C84.3693 70.7994 84.2993 70.4495 84.4293 70.0095C84.5493 69.5695 84.7393 69.1295 84.9893 68.6895L85.2693 68.2195L85.1793 68.1195H85.1293C85.0993 68.1195 85.0793 68.0895 85.0793 68.0295C84.9193 67.8695 84.9493 67.7495 85.1693 67.6495L86.0193 67.1795L86.1093 66.8995C86.4893 66.3695 86.8593 65.8895 87.2193 65.4595C87.5793 65.0295 87.8993 64.6295 88.1893 64.2595C88.9093 63.4095 89.6593 62.6595 90.4293 62.0195C91.1993 61.3795 91.9193 60.8295 92.5993 60.3695C93.2693 59.9095 93.8693 59.5495 94.3893 59.2795C94.9093 59.0195 95.2993 58.8495 95.5493 58.7795C95.6093 58.7795 95.6693 58.7695 95.7193 58.7295C95.7693 58.6995 95.8393 58.6895 95.9293 58.6895C96.0793 58.6895 96.1893 58.7395 96.2293 58.8495C96.2793 58.9595 96.2993 59.0895 96.2993 59.2495C96.2993 59.4995 96.0493 59.8995 95.5493 60.4495C95.0493 60.9995 94.3893 61.6395 93.5693 62.3595C92.8093 63.0895 91.8793 63.8495 90.7593 64.6495C89.6393 65.4495 88.3493 66.3595 86.8693 67.3595L86.3993 67.6395L86.1193 68.1095C85.2093 69.4895 84.8593 70.3395 85.0793 70.6595C85.2393 70.8495 85.5593 70.8595 86.0493 70.6795C86.5393 70.5095 87.0593 70.1895 87.6293 69.7095C87.6893 69.6195 87.7493 69.5595 87.8193 69.5195C87.8793 69.4895 87.9493 69.4195 88.0093 69.3295L88.2893 69.0395L88.0093 68.7595C88.0093 68.6995 87.9893 68.6395 87.9593 68.5695C87.9293 68.5095 87.9093 68.4395 87.9093 68.3795C87.6293 67.8195 87.6293 67.3495 87.9093 66.9895C88.1893 66.6295 88.5093 66.5295 88.8493 66.6795L89.1293 66.8695L89.2193 66.9595C89.5293 67.4595 89.5293 67.9595 89.2193 68.4695L89.1293 68.8395C89.6593 69.0895 90.4393 69.1295 91.4693 68.9395C92.4893 68.7495 93.7593 68.1595 95.2693 67.1495C95.4593 66.9595 95.6093 66.9895 95.7393 67.2395C95.7993 67.2995 95.8293 67.3695 95.8093 67.4295C95.7893 67.4995 95.7393 67.5595 95.6393 67.6195C94.0693 68.6595 92.7093 69.3094 91.5593 69.5494C90.4093 69.8094 89.4793 69.7595 88.7493 69.4095L87.9993 70.1695C87.7493 70.3895 87.4693 70.5995 87.1693 70.8095C86.8693 71.0195 86.5593 71.1795 86.2293 71.3095C85.8993 71.4395 85.5893 71.4795 85.3093 71.4495C85.0493 71.4495 84.8093 71.2994 84.6193 71.0494ZM93.1993 61.9995C93.6393 61.6195 94.0193 61.2595 94.3293 60.9195C94.6393 60.5795 94.8893 60.3095 95.0793 60.1195C95.1393 59.9995 95.2393 59.8695 95.3593 59.7495L95.5493 59.4595L95.2693 59.5495C94.9493 59.7095 94.5493 59.9295 94.0693 60.2095C93.5793 60.4895 93.0493 60.8495 92.4693 61.2695C91.8893 61.6995 91.2793 62.1995 90.6293 62.7795C89.9893 63.3595 89.3593 64.0095 88.7693 64.7395L88.1093 65.3995L87.5393 66.1495L87.7293 66.0595C88.9193 65.2495 89.9493 64.4995 90.8193 63.8395C91.6893 63.1695 92.4793 62.5595 93.1993 61.9995ZM88.6793 67.2795C88.5893 67.2195 88.4893 67.2695 88.3993 67.4395C88.3093 67.6095 88.3093 67.8695 88.3993 68.2195C88.4593 68.2795 88.4993 68.3295 88.4993 68.3595C88.4993 68.3895 88.5293 68.3995 88.5893 68.3995H88.6793L88.7693 68.3095C88.8693 67.8395 88.8293 67.4995 88.6793 67.2795Z" fill="#E7E9E1"/>
</g>
<mask id="mask15_90_2" style="mask-type:luminance" maskUnits="userSpaceOnUse" x="-96" y="-113" width="428" height="279">
<path d="M331.38 -113H-96V165.4H331.38V-113Z" fill="white"/>
</mask>
<g mask="url(#mask15_90_2)">
<path d="M89.1503 78.78C88.7403 78.43 88.6804 77.87 88.9604 77.08C89.1504 76.61 89.4603 76.15 89.9003 75.69C90.3403 75.24 90.8703 74.79 91.4803 74.34C92.0903 73.9 92.7603 73.47 93.4803 73.04C94.2003 72.62 94.9604 72.2 95.7404 71.79L97.3403 71.04L97.6203 70.66L98.2803 69.06L98.3703 68.78L97.9003 69.16C97.4303 69.54 96.9604 69.8 96.4904 69.96C96.0204 70.12 95.6103 70.07 95.2703 69.82V69.72C94.9903 69.44 94.8904 69 94.9904 68.4L95.1803 68.03L94.1403 68.69C93.8603 68.78 93.6703 68.75 93.5803 68.59C93.5203 68.43 93.5803 68.31 93.7703 68.22C94.1103 68.06 94.4703 67.87 94.8303 67.63C95.1903 67.4 95.4703 67.18 95.6603 66.99L95.7503 66.9C96.0003 66.65 96.2203 66.59 96.4103 66.71C96.6003 66.83 96.5704 67.02 96.3204 67.28H96.2303L96.1403 67.47C95.6003 68.39 95.4503 68.95 95.6703 69.17V69.26L95.7603 69.35C96.1003 69.44 96.5803 69.31 97.2003 68.95C97.8103 68.59 98.3403 68.12 98.7803 67.56V67.46C98.7203 67.53 98.7303 67.51 98.8003 67.41C98.8803 67.32 99.0003 67.3 99.1503 67.37C99.1803 67.4 99.2003 67.43 99.2203 67.46C99.2303 67.49 99.2603 67.53 99.2903 67.56C99.3203 67.59 99.3403 67.62 99.3403 67.65C99.3403 67.84 99.2503 68.17 99.0803 68.64C98.9103 69.11 98.6803 69.66 98.3903 70.29L98.3003 70.66L99.4303 70.19C100.44 69.72 101.42 69.26 102.38 68.82C103.34 68.38 104.15 67.98 104.81 67.64C105.06 67.52 105.19 67.52 105.19 67.64C105.28 67.86 105.28 68.02 105.19 68.11C104.44 68.55 103.46 69.04 102.27 69.57C101.08 70.11 99.8803 70.66 98.6903 71.22L97.8403 71.5L97.6503 72.16C97.2703 72.79 96.8904 73.43 96.4904 74.1C96.1004 74.76 95.6304 75.4 95.1004 76.03C94.4704 76.85 93.7703 77.52 93.0003 78.03C92.2303 78.55 91.5104 78.85 90.8504 78.95C90.5004 79.04 90.1803 79.09 89.8803 79.07C89.5803 79.07 89.3403 78.97 89.1503 78.78ZM90.7503 78.41C91.3203 78.32 91.9603 78.02 92.6903 77.54C93.4103 77.05 94.0603 76.43 94.6203 75.68C94.9603 75.24 95.2603 74.82 95.5203 74.43C95.7703 74.04 96.0404 73.6 96.3204 73.13L96.8903 72L96.2303 72.38C94.6603 73.13 93.2503 73.93 92.0103 74.76C90.7703 75.59 89.9803 76.43 89.6303 77.28C89.4703 77.63 89.4103 77.87 89.4403 78.01C89.4703 78.15 89.5303 78.25 89.6303 78.32C89.7503 78.56 90.1203 78.59 90.7503 78.41Z" fill="#E7E9E1"/>
</g>
<mask id="mask16_90_2" style="mask-type:luminance" maskUnits="userSpaceOnUse" x="-96" y="-113" width="428" height="279">
<path d="M331.38 -113H-96V165.4H331.38V-113Z" fill="white"/>
</mask>
<g mask="url(#mask16_90_2)">
<path d="M115.08 70.8604C114.7 70.6404 114.56 70.3004 114.66 69.8504C114.75 69.3904 114.99 68.9504 115.37 68.5304C115.75 68.1004 116.22 67.7304 116.78 67.4004C117.35 67.0704 117.91 66.9004 118.48 66.9004C118.86 66.9004 119.19 66.9804 119.49 67.1404C119.79 67.2904 119.98 67.4704 120.07 67.6504C120.14 67.7504 120.11 67.8304 120 67.9104C119.89 67.9904 119.79 68.0004 119.69 67.9404C119.53 67.8504 119.38 67.7404 119.24 67.6304C119.1 67.5204 118.84 67.4604 118.47 67.4604C118.09 67.4604 117.68 67.5904 117.24 67.8404C116.8 68.0904 116.42 68.3804 116.09 68.7104C115.76 69.0404 115.52 69.3604 115.38 69.6504C115.24 69.9504 115.26 70.1604 115.45 70.2904C115.74 70.3504 116.11 70.2804 116.58 70.0704C117.05 69.8704 117.55 69.6204 118.07 69.3204C118.59 69.0204 119.09 68.7004 119.58 68.3504C120.07 68.0004 120.49 67.7004 120.83 67.4504C121.14 67.2004 121.36 67.1704 121.47 67.3604C121.58 67.5504 121.56 67.7004 121.4 67.8304C120.99 68.1104 120.72 68.4704 120.57 68.8904C120.43 69.3204 120.47 69.5704 120.69 69.6704C120.91 69.7604 121.27 69.7104 121.78 69.5004C122.28 69.3004 122.8 69.0504 123.33 68.7704C123.87 68.4904 124.37 68.2104 124.84 67.9204C125.31 67.6304 125.61 67.4504 125.74 67.3604C125.93 67.2604 126.08 67.3104 126.19 67.5004C126.3 67.6904 126.28 67.8304 126.12 67.9304C125.9 68.0604 125.56 68.2604 125.08 68.5604C124.61 68.8604 124.1 69.1504 123.55 69.4304C123 69.7104 122.45 69.9504 121.9 70.1404C121.35 70.3304 120.9 70.3704 120.56 70.2804C120.21 70.1904 120 69.9804 119.92 69.6704C119.84 69.3504 119.88 69.0504 120.04 68.7704C119.7 69.0304 119.29 69.3004 118.82 69.5904C118.35 69.8904 117.86 70.1504 117.36 70.3704C116.86 70.5904 116.4 70.7504 115.99 70.8704C115.57 71.0004 115.27 70.9904 115.08 70.8604Z" fill="#E7E9E1"/>
</g>
<mask id="mask17_90_2" style="mask-type:luminance" maskUnits="userSpaceOnUse" x="-96" y="-113" width="428" height="279">
<path d="M331.38 -113H-96V165.4H331.38V-113Z" fill="white"/>
</mask>
<g mask="url(#mask17_90_2)">
<path d="M124.98 69.8199C125.07 69.6599 125.28 69.4399 125.59 69.1599C125.94 68.8699 126.18 68.5998 126.32 68.3398C126.46 68.0698 126.56 67.8098 126.62 67.5598C126.31 67.7798 126.01 67.9698 125.72 68.1198C125.43 68.2798 125.14 68.4398 124.87 68.5898C124.68 68.6798 124.54 68.6398 124.43 68.4498C124.32 68.2598 124.37 68.1198 124.6 68.0298C124.78 67.9298 125 67.8098 125.24 67.6698C125.49 67.5298 125.71 67.3999 125.9 67.2699C126.1 67.1399 126.27 67.0299 126.41 66.9099C126.55 66.7999 126.62 66.6999 126.62 66.5999V66.5098C126.68 66.3498 126.78 66.2698 126.9 66.2498C127.03 66.2298 127.12 66.3198 127.19 66.5098C127.28 66.8598 127.31 67.1399 127.28 67.3799C127.25 67.6099 127.19 67.8599 127.09 68.1099C128.04 67.5799 128.85 67.1398 129.54 66.7898C130.23 66.4498 130.8 66.4198 131.24 66.6998C131.4 66.7898 131.47 66.9399 131.47 67.1299C131.47 67.3199 131.42 67.4898 131.33 67.6398C131.2 68.0198 131.08 68.3698 130.95 68.6798C130.82 68.9898 130.75 69.2598 130.71 69.4798C130.68 69.6998 130.72 69.8598 130.83 69.9498C130.94 70.0398 131.17 70.0598 131.51 69.9998C132.27 69.8498 133.19 69.5198 134.29 69.0298C135.39 68.5398 136.41 67.9799 137.36 67.3599C137.58 67.2299 137.73 67.2698 137.83 67.4498C137.92 67.6398 137.89 67.7599 137.73 67.8299C136.69 68.5499 135.64 69.1598 134.57 69.6398C133.5 70.1298 132.45 70.4698 131.41 70.6498C130.78 70.7498 130.38 70.6699 130.21 70.4099C130.04 70.1599 129.98 69.8499 130.02 69.4699C130.07 69.0899 130.19 68.6898 130.38 68.2598C130.57 67.8398 130.69 67.4998 130.76 67.2498C130.7 67.0598 130.48 67.0299 130.1 67.1599C129.72 67.2799 129.29 67.4798 128.8 67.7498C128.31 68.0198 127.84 68.3098 127.36 68.6198C126.89 68.9298 126.53 69.1899 126.27 69.3799C126.11 69.5699 125.95 69.7498 125.77 69.9198C125.6 70.0898 125.46 70.2098 125.37 70.2798C125.21 70.3398 125.07 70.3398 124.94 70.2798C124.85 70.2298 124.85 70.0799 124.98 69.8199Z" fill="#E7E9E1"/>
</g>
<mask id="mask18_90_2" style="mask-type:luminance" maskUnits="userSpaceOnUse" x="-96" y="-113" width="428" height="279">
<path d="M331.38 -113H-96V165.4H331.38V-113Z" fill="white"/>
</mask>
<g mask="url(#mask18_90_2)">
<path d="M136.67 70.2C136.48 69.95 136.45 69.6501 136.58 69.3001C136.7 68.9501 136.86 68.66 137.05 68.4C136.77 68.59 136.55 68.71 136.39 68.75C136.23 68.8 136.08 68.8701 135.92 68.9601C135.76 69.0501 135.64 69.0301 135.54 68.8601C135.45 68.7101 135.47 68.5801 135.63 68.4901C136.01 68.3401 136.3 68.1901 136.51 68.0701C136.71 67.9401 136.9 67.8201 137.05 67.7201C137.21 67.6101 137.38 67.49 137.57 67.37C137.76 67.24 138.02 67.09 138.37 66.9C138.56 66.81 138.71 66.85 138.82 67.04C138.93 67.23 138.9 67.3701 138.75 67.4601C138.41 67.7101 138.15 67.95 137.99 68.17C137.84 68.39 137.68 68.6301 137.52 68.8801C137.26 69.2901 137.19 69.5601 137.28 69.6901C137.38 69.8101 137.55 69.8801 137.8 69.8801C138.05 69.8801 138.33 69.84 138.65 69.76C138.96 69.68 139.22 69.6101 139.4 69.5501C140.03 69.3601 140.72 69.09 141.48 68.75C142.23 68.4 142.99 68.0401 143.74 67.6601C143.83 67.5701 143.91 67.5301 143.97 67.5501C144.03 67.5701 144.11 67.6001 144.21 67.6601C144.3 67.8501 144.24 68.0101 144.02 68.1301C143.7 68.3201 143.19 68.5901 142.49 68.9601C141.78 69.3201 141.03 69.64 140.25 69.93C139.46 70.21 138.73 70.4101 138.03 70.5201C137.35 70.6201 136.9 70.51 136.67 70.2ZM138.94 65.39C138.88 65.32 138.85 65.25 138.87 65.15C138.89 65.06 138.94 65.01 139.04 65.01C139.23 64.82 139.42 64.63 139.63 64.42C139.83 64.22 140.02 63.9701 140.17 63.6901C140.26 63.4701 140.39 63.4401 140.55 63.6001C140.8 63.7301 140.86 63.85 140.74 63.98C140.33 64.7 139.89 65.2001 139.42 65.4901C139.19 65.6101 139.03 65.58 138.94 65.39Z" fill="#E7E9E1"/>
</g>
<mask id="mask19_90_2" style="mask-type:luminance" maskUnits="userSpaceOnUse" x="-96" y="-113" width="428" height="279">
<path d="M331.38 -113H-96V165.4H331.38V-113Z" fill="white"/>
</mask>
<g mask="url(#mask19_90_2)">
<path d="M142.14 70.3005C142.08 69.9205 142.17 69.5005 142.42 69.0305C142.67 68.5605 143.02 68.1305 143.46 67.7605C143.61 67.6305 143.83 67.4805 144.12 67.2905C144.4 67.1005 144.7 66.9305 145.01 66.7905C145.33 66.6505 145.65 66.5505 145.98 66.4805C146.31 66.4205 146.6 66.4305 146.85 66.5305C147.04 66.6505 147.12 66.8005 147.11 66.9805C147.09 67.1505 147.02 67.3205 146.88 67.4905C146.74 67.6705 146.57 67.8305 146.36 67.9905C146.16 68.1505 145.97 68.2605 145.82 68.3205C145.66 68.4105 145.54 68.3905 145.44 68.2505C145.34 68.1105 145.38 67.9705 145.53 67.8505C145.72 67.7605 145.89 67.6405 146.03 67.5205C146.17 67.4005 146.32 67.2605 146.48 67.1005C146.29 67.0105 145.95 67.0705 145.47 67.2905C144.98 67.5105 144.57 67.7605 144.22 68.0505C143.87 68.3005 143.55 68.6105 143.25 68.9705C142.95 69.3305 142.8 69.7205 142.8 70.1205C142.8 70.3105 143.03 70.4105 143.48 70.4305C143.94 70.4505 144.33 70.4105 144.68 70.3105C145.44 70.1205 146.38 69.7805 147.51 69.2905C148.64 68.8005 150 68.1105 151.56 67.2005C151.63 67.1405 151.7 67.1205 151.8 67.1505C151.89 67.1805 151.97 67.2305 152.04 67.2905C152.04 67.5405 152.01 67.6605 151.95 67.6605C150.35 68.6105 148.96 69.3305 147.78 69.8305C146.6 70.3305 145.63 70.6805 144.88 70.8705C144.38 71.0005 143.83 71.0505 143.23 71.0305C142.63 71.0105 142.27 70.7705 142.14 70.3005Z" fill="#E7E9E1"/>
</g>
<mask id="mask20_90_2" style="mask-type:luminance" maskUnits="userSpaceOnUse" x="-96" y="-113" width="428" height="279">
<path d="M331.38 -113H-96V165.4H331.38V-113Z" fill="white"/>
</mask>
<g mask="url(#mask20_90_2)">
<path d="M148.93 67.84C149.12 67.37 149.43 66.96 149.87 66.61C150.31 66.27 150.75 66.05 151.19 65.95C151.53 65.89 151.86 65.89 152.18 65.97C152.49 66.05 152.67 66.23 152.7 66.51C152.73 66.79 152.61 67.07 152.35 67.33C152.08 67.6 151.75 67.84 151.36 68.06C150.97 68.28 150.58 68.47 150.2 68.62C149.83 68.78 149.57 68.87 149.45 68.9C149.61 69.34 149.94 69.67 150.44 69.89C150.94 70.11 151.52 70.17 152.19 70.08C153.38 69.93 154.56 69.58 155.72 69.07C156.88 68.55 157.89 68.01 158.74 67.44C158.93 67.28 159.08 67.28 159.21 67.44C159.34 67.6 159.31 67.75 159.12 67.91C158.68 68.22 158.16 68.55 157.54 68.88C156.93 69.21 156.28 69.51 155.6 69.78C154.93 70.05 154.24 70.26 153.53 70.44C152.82 70.61 152.14 70.7 151.48 70.7C151.04 70.7 150.63 70.63 150.25 70.49C149.88 70.35 149.55 70.15 149.28 69.9C149.02 69.65 148.84 69.35 148.76 69.01C148.69 68.68 148.74 68.28 148.93 67.84ZM152.04 66.52C151.47 66.39 150.92 66.56 150.39 67.01C149.86 67.46 149.51 67.95 149.36 68.45C149.49 68.39 149.69 68.28 149.97 68.14C150.25 68 150.55 67.84 150.86 67.67C151.18 67.49 151.45 67.31 151.69 67.1C151.93 66.91 152.04 66.71 152.04 66.52Z" fill="#E7E9E1"/>
</g>
<mask id="mask21_90_2" style="mask-type:luminance" maskUnits="userSpaceOnUse" x="-96" y="-113" width="428" height="279">
<path d="M331.38 -113H-96V165.4H331.38V-113Z" fill="white"/>
</mask>
<g mask="url(#mask21_90_2)">
<path d="M154.55 62.7102C154.49 62.8002 154.34 62.9602 154.12 63.1802C153.9 63.3902 153.65 63.6102 153.38 63.8302C153.11 64.0502 152.85 64.2302 152.61 64.3802C152.37 64.5202 152.2 64.5702 152.11 64.5302L152.04 64.2802C152.19 64.1102 152.37 63.9602 152.55 63.8302C152.74 63.7002 152.94 63.5802 153.14 63.4602C153.34 63.3402 153.54 63.2002 153.73 63.0602C153.93 62.9102 154.1 62.7302 154.24 62.5202L154.5 62.4902L154.55 62.7102Z" fill="#E7E9E1"/>
</g>
<mask id="mask22_90_2" style="mask-type:luminance" maskUnits="userSpaceOnUse" x="-96" y="-113" width="428" height="279">
<path d="M331.38 -113H-96V165.4H331.38V-113Z" fill="white"/>
</mask>
<g mask="url(#mask22_90_2)">
<path d="M230.69 42.8099C230.23 42.8099 229.96 42.7999 229.94 42.7999L229.97 41.9499C230.17 41.9599 250.78 42.1499 251.39 30.1299C250.81 41.5899 234.45 42.8099 230.69 42.8099Z" fill="#E7E9E1"/>
</g>
<mask id="mask23_90_2" style="mask-type:luminance" maskUnits="userSpaceOnUse" x="-96" y="-113" width="428" height="279">
<path d="M331.38 -113H-96V165.4H331.38V-113Z" fill="white"/>
</mask>
<g mask="url(#mask23_90_2)">
<path d="M235.42 42.4804L234.86 41.8304C234.9 41.8004 239.69 37.9904 241.04 35.1504C239.62 38.1604 235.59 42.3404 235.42 42.4804Z" fill="#E7E9E1"/>
</g>
<mask id="mask24_90_2" style="mask-type:luminance" maskUnits="userSpaceOnUse" x="-96" y="-113" width="428" height="279">
<path d="M331.38 -113H-96V165.4H331.38V-113Z" fill="white"/>
</mask>
<g mask="url(#mask24_90_2)">
<path d="M249.46 45.3897C248.34 43.2897 241.68 42.0297 239.49 41.5697L239.77 40.9697C240.11 41.0397 247.92 42.5097 249.46 45.3897Z" fill="#E7E9E1"/>
</g>
<mask id="mask25_90_2" style="mask-type:luminance" maskUnits="userSpaceOnUse" x="-96" y="-113" width="428" height="279">
<path d="M331.38 -113H-96V165.4H331.38V-113Z" fill="white"/>
</mask>
<g mask="url(#mask25_90_2)">
<path d="M256.43 41.8395C255.25 40.5295 247.06 40.6495 242.56 40.6495C242.53 40.6495 242.48 40.3195 242.45 40.3195L242.98 39.7695C244.18 39.7695 254.61 39.8095 256.43 41.8395Z" fill="#E7E9E1"/>
</g>
<mask id="mask26_90_2" style="mask-type:luminance" maskUnits="userSpaceOnUse" x="-96" y="-113" width="428" height="279">
<path d="M331.38 -113H-96V165.4H331.38V-113Z" fill="white"/>
</mask>
<g mask="url(#mask26_90_2)">
<path d="M237.96 40.97C237.63 40.97 237.28 40.9 236.89 40.76L236.76 40.71L236.68 40.59C236.66 40.55 234.33 36.9 238.24 34.1C241.88 31.5 242.08 30.72 242.09 30.69L242.06 30.5L242.32 30.25H242.52C243.1 30.25 243.85 32.16 243.86 32.18C244.37 33.48 244.91 35.96 242.81 37.9C240.23 40.25 239.11 40.97 237.96 40.97ZM237.32 40C237.56 40.07 237.77 40.11 237.96 40.11C238.83 40.11 239.9 39.39 242.22 37.26C243.02 36.52 243.44 35.62 243.46 34.57C243.49 33.31 242.96 32.14 242.58 31.5C242.12 32.11 241.07 33.12 238.73 34.79C235.83 36.88 236.99 39.42 237.32 40Z" fill="#E7E9E1"/>
</g>
<mask id="mask27_90_2" style="mask-type:luminance" maskUnits="userSpaceOnUse" x="-96" y="-113" width="428" height="279">
<path d="M331.38 -113H-96V165.4H331.38V-113Z" fill="white"/>
</mask>
<g mask="url(#mask27_90_2)">
<path d="M247.58 37.6599L247.46 37.3999C247.41 37.2799 246.12 34.2799 248.05 30.7999C249.92 27.4099 252.88 25.2099 253.01 25.1199L253.61 24.6699L253.69 25.4199C253.77 26.2799 254.48 33.8799 252.8 35.6899C251.1 37.5199 248.01 37.6599 247.88 37.6599H247.58ZM252.91 26.2899C251.95 27.1099 250.09 28.8799 248.8 31.1999C247.4 33.7399 247.9 36 248.15 36.77C248.93 36.69 251 36.36 252.17 35.1C253.25 33.93 253.11 28.9199 252.91 26.2899Z" fill="#E7E9E1"/>
</g>
<mask id="mask28_90_2" style="mask-type:luminance" maskUnits="userSpaceOnUse" x="-96" y="-113" width="428" height="279">
<path d="M331.38 -113H-96V165.4H331.38V-113Z" fill="white"/>
</mask>
<g mask="url(#mask28_90_2)">
<path d="M252.71 35.7498L252.24 35.0398C252.27 35.0198 256.51 32.6498 257.22 30.5098C256.42 32.9298 252.83 35.6698 252.71 35.7498Z" fill="#E7E9E1"/>
</g>
<mask id="mask29_90_2" style="mask-type:luminance" maskUnits="userSpaceOnUse" x="-96" y="-113" width="428" height="279">
<path d="M331.38 -113H-96V165.4H331.38V-113Z" fill="white"/>
</mask>
<g mask="url(#mask29_90_2)">
<path d="M254.08 34.98C253.84 34.97 253.7 34.95 253.7 34.95L253.38 34.9L253.34 34.58C253.33 34.53 252.7 29.39 258.99 26.94L259.48 26.75L259.57 27.26C259.59 27.38 260.09 30.35 258.72 32.84C257.55 34.95 255.08 35.04 254.08 34.98ZM258.78 27.95C254.47 29.86 254.15 33.08 254.17 34.13C255.03 34.18 257.05 34.09 257.97 32.43C258.86 30.8 258.85 28.87 258.78 27.95Z" fill="#E7E9E1"/>
</g>
<mask id="mask30_90_2" style="mask-type:luminance" maskUnits="userSpaceOnUse" x="-96" y="-113" width="428" height="279">
<path d="M331.38 -113H-96V165.4H331.38V-113Z" fill="white"/>
</mask>
<g mask="url(#mask30_90_2)">
<path d="M251.98 47.6995C245.6 48.2795 243.93 42.7495 243.92 42.6995L243.79 42.2695L244.23 42.1695C244.26 42.1595 244.99 41.9995 245.98 41.9095C247.52 41.7695 249.6 41.8295 250.73 42.8995C252.52 44.5895 253.18 46.9595 253.21 47.0595L253.34 47.5195L252.87 47.5995C252.57 47.6295 252.27 47.6695 251.98 47.6995ZM244.9 42.8995C245.4 44.0995 247.2 47.2695 251.9 46.8495C252.01 46.8395 252.12 46.8295 252.23 46.8195C251.96 46.0795 251.31 44.6195 250.14 43.5095C249.44 42.8395 247.99 42.5695 246.05 42.7495C245.61 42.7895 245.2 42.8495 244.9 42.8995Z" fill="#E7E9E1"/>
</g>
<mask id="mask31_90_2" style="mask-type:luminance" maskUnits="userSpaceOnUse" x="-96" y="-113" width="428" height="279">
<path d="M331.38 -113H-96V165.4H331.38V-113Z" fill="white"/>
</mask>
<g mask="url(#mask31_90_2)">
<path d="M258.75 43.8098C257.86 43.8098 257.04 43.7698 256.32 43.6998C253.81 43.4398 250.93 40.9598 250.82 40.8598L250.46 40.5498L250.81 40.2298C251.6 39.5098 253.02 39.0898 254.72 39.0898C255.8 39.0898 256.91 39.2698 257.85 39.5898C260.21 40.3898 261.75 42.9598 261.81 43.0698L262.15 43.6498L261.48 43.7098C261.43 43.6998 260.26 43.8098 258.75 43.8098ZM251.79 40.5598C252.65 41.2298 254.68 42.6798 256.4 42.8498C257.1 42.9198 257.88 42.9598 258.74 42.9598C259.5 42.9598 260.18 42.9298 260.66 42.8998C260.09 42.1398 258.98 40.8598 257.56 40.3798C256.71 40.0898 255.7 39.9298 254.7 39.9298C253.52 39.9398 252.48 40.1598 251.79 40.5598Z" fill="#E7E9E1"/>
</g>
</g>
</g>
</g>
<defs>
<clipPath id="clip0_90_2">
<rect width="262" height="79" fill="white"/>
</clipPath>
</defs>
</svg>
