<svg width="262" height="79" viewBox="0 0 262 79" fill="none" xmlns="http://www.w3.org/2000/svg">
<g clip-path="url(#clip0_37_2372)">
<mask id="mask0_37_2372" style="mask-type:luminance" maskUnits="userSpaceOnUse" x="-96" y="-113" width="428" height="279">
<path d="M331.38 -113H-96V165.4H331.38V-113Z" fill="white"/>
</mask>
<g mask="url(#mask0_37_2372)">
<mask id="mask1_37_2372" style="mask-type:luminance" maskUnits="userSpaceOnUse" x="-96" y="-113" width="428" height="279">
<path d="M331.38 -113H-96V165.4H331.38V-113Z" fill="white"/>
</mask>
<g mask="url(#mask1_37_2372)">
<path d="M2.87997 5.66002L3.47997 6.26002C3.30997 11.04 2.87997 15.8 2.19997 20.53C1.51997 25.26 1.16997 30.04 1.16997 34.88C1.16997 35.51 1.19997 36.39 1.25997 37.53C1.30997 38.67 1.46997 39.81 1.72997 40.95C1.98997 42.09 2.35997 43.09 2.83997 43.94C3.31997 44.79 4.01997 45.22 4.92997 45.22C5.54997 45.22 6.24997 44.84 7.01997 44.07C7.78997 43.3 8.52997 42.33 9.23997 41.17C9.94997 40 10.65 38.7 11.33 37.24C12.01 35.79 12.61 34.37 13.12 32.97C13.63 31.58 14.04 30.31 14.36 29.17C14.67 28.03 14.83 27.15 14.83 26.52C14.83 26.01 14.81 25.17 14.79 24C14.76 22.83 14.75 21.51 14.75 20.03C14.75 18.03 14.78 15.9 14.84 13.62C14.9 11.35 15.04 9.22002 15.27 7.26002C15.5 5.29002 15.79 3.66001 16.17 2.35001C16.54 1.04001 17.07 0.390015 17.75 0.390015C18.15 0.390015 18.46 0.600014 18.69 1.03001C18.92 1.46001 19.09 1.97001 19.2 2.57001C19.31 3.17001 19.38 3.75001 19.41 4.32001C19.44 4.89001 19.45 5.29001 19.45 5.52001C19.45 7.23001 19.26 9.15002 18.89 11.29C18.52 13.43 18.12 15.51 17.7 17.53C17.27 19.55 16.89 21.39 16.55 23.04C16.21 24.69 16.04 25.94 16.04 26.8C16.04 32.15 16.47 37.42 17.32 42.6C17.49 43.68 17.78 44.89 18.18 46.23C18.58 47.56 18.78 48.75 18.78 49.78C18.78 49.89 18.74 50.03 18.65 50.21C18.56 50.38 18.44 50.47 18.27 50.47C17.87 50.47 17.53 50.1 17.24 49.36C16.95 48.62 16.68 47.65 16.43 46.46C16.17 45.26 15.96 43.94 15.79 42.49C15.62 41.04 15.48 39.57 15.36 38.09C15.25 36.61 15.15 35.23 15.06 33.95C14.98 32.67 14.93 31.6 14.93 30.75C14.59 31.78 14.13 33.17 13.56 34.93C12.99 36.7 12.28 38.45 11.42 40.18C10.57 41.92 9.59997 43.41 8.50997 44.66C7.42997 45.91 6.19997 46.54 4.83997 46.54C3.69997 46.54 2.79997 46 2.14997 44.92C1.49997 43.84 1.00997 42.57 0.699966 41.12C0.389966 39.67 0.189968 38.22 0.099968 36.77C0.019968 35.31 -0.0300293 34.19 -0.0300293 33.39C-0.0300293 28.78 0.279973 24.26 0.909973 19.85C1.53997 15.44 1.95997 10.92 2.18997 6.31001L2.87997 5.66002ZM17.83 2.15002C17.2 3.35002 16.79 4.77001 16.59 6.42001C16.39 8.07001 16.26 9.80001 16.2 11.59C16.14 13.38 16.13 15.16 16.16 16.93C16.19 18.7 16.14 20.26 16.03 21.63C16.65 19.18 17.18 16.73 17.61 14.28C18.04 11.83 18.25 9.33002 18.25 6.76002C18.25 5.96002 18.22 5.19001 18.16 4.45001C18.11 3.72001 18 2.95002 17.83 2.15002Z" fill="#A1A78F"/>
</g>
<mask id="mask2_37_2372" style="mask-type:luminance" maskUnits="userSpaceOnUse" x="-96" y="-113" width="428" height="279">
<path d="M331.38 -113H-96V165.4H331.38V-113Z" fill="white"/>
</mask>
<g mask="url(#mask2_37_2372)">
<path d="M25.5599 42.35C25.4699 40.67 25.3599 38.82 25.2199 36.8C25.0799 34.78 24.8899 32.69 24.6599 30.52C24.4299 28.36 24.1799 26.32 23.8899 24.41C23.5999 22.5 23.2799 20.84 22.9099 19.41C22.5399 17.98 22.1299 16.99 21.6699 16.42L22.2699 15.91C22.6699 15.96 23.0399 16.42 23.3799 17.27C23.7199 18.12 24.0299 19.19 24.3199 20.47C24.5999 21.75 24.8599 23.15 25.0899 24.66C25.3199 26.17 25.4999 27.62 25.6499 29.02C25.7899 30.42 25.9099 31.64 25.9899 32.69C26.0799 33.74 26.1199 34.44 26.1199 34.78C26.1799 33.47 26.2899 31.69 26.4599 29.44C26.6299 27.19 26.9599 24.97 27.4399 22.78C27.9199 20.59 28.6499 18.62 29.6199 16.89C30.5899 15.15 31.9299 14.14 33.6299 13.85L34.2299 14.45L33.7199 15.05C32.4099 15.22 31.3399 16.1 30.5199 17.7C29.6999 19.3 29.0299 21.25 28.5099 23.55C27.9999 25.86 27.6299 28.35 27.3999 31.02C27.1699 33.7 26.9899 36.16 26.8499 38.41C26.7099 40.66 26.5799 42.54 26.4599 44.05C26.3399 45.56 26.1699 46.31 25.9499 46.31H25.7799C25.7099 45.35 25.6399 44.03 25.5599 42.35Z" fill="#A1A78F"/>
</g>
<mask id="mask3_37_2372" style="mask-type:luminance" maskUnits="userSpaceOnUse" x="-96" y="-113" width="428" height="279">
<path d="M331.38 -113H-96V165.4H331.38V-113Z" fill="white"/>
</mask>
<g mask="url(#mask3_37_2372)">
<path d="M40.3799 42.3C39.9199 42.3 39.5799 41.62 39.3599 40.25C39.1299 38.88 38.9599 37.09 38.8499 34.87C38.7299 32.65 38.6099 30.13 38.4599 27.31C38.3199 24.49 38.1199 21.63 37.8599 18.73C37.5999 15.83 37.2299 13.02 36.7499 10.31C36.2699 7.61003 35.5999 5.23003 34.7399 3.18003L34.6499 2.84003L35.2499 2.16003C35.6999 2.16003 36.0599 2.50003 36.3199 3.19003C36.5799 3.87003 36.7599 4.38003 36.8699 4.73003C37.6099 7.41003 38.1799 10.19 38.5799 13.1C38.9799 16.01 39.2799 18.95 39.4799 21.94C39.6799 24.93 39.8399 27.91 39.9499 30.87C40.0599 33.83 40.2299 36.71 40.4599 39.5C40.6299 38.76 40.8499 37.68 41.0999 36.25C41.3599 34.83 41.6699 33.25 42.0399 31.51C42.4099 29.77 42.8199 28.01 43.2799 26.21C43.7299 24.42 44.2499 22.78 44.8199 21.3C45.3899 19.82 46.0199 18.61 46.6999 17.67C47.3799 16.73 48.1499 16.26 49.0099 16.26C50.0899 16.26 50.9899 16.7 51.6999 17.58C52.4099 18.46 52.9699 19.5 53.3699 20.7C53.7699 21.89 54.0399 23.12 54.1799 24.37C54.3199 25.63 54.3899 26.65 54.3899 27.45C54.3899 28.42 54.2299 29.87 53.9199 31.81C53.6099 33.75 53.1399 35.68 52.5099 37.62C51.8799 39.55 51.1099 41.25 50.1999 42.7C49.2899 44.15 48.1999 44.88 46.9499 44.88C46.4399 44.88 46.0499 44.74 45.7999 44.45C45.5399 44.16 45.3599 43.81 45.2399 43.38C45.1299 42.95 45.0499 42.5 45.0299 42.01C44.9999 41.53 44.9599 41.11 44.8999 40.77L45.5799 40.09L46.0899 40.52L46.5999 43.42L47.3699 43.51C49.3099 41.52 50.7899 39.14 51.8099 36.38C52.8299 33.62 53.3499 30.84 53.3499 28.05C53.3499 27.48 53.2599 26.63 53.0899 25.49C52.9199 24.35 52.6499 23.2 52.2799 22.03C51.9099 20.86 51.4499 19.84 50.9099 18.95C50.3699 18.07 49.7299 17.63 48.9899 17.63C48.3599 17.63 47.7599 18.1 47.1999 19.04C46.6299 19.98 46.0999 21.19 45.6199 22.67C45.1399 24.15 44.6799 25.77 44.2499 27.54C43.8199 29.31 43.4499 31.01 43.1399 32.66C42.8299 34.32 42.5399 35.79 42.2899 37.1C42.0299 38.41 41.8499 39.32 41.7299 39.84C41.6199 40.12 41.4599 40.61 41.2599 41.29C41.0799 41.96 40.7799 42.3 40.3799 42.3Z" fill="#A1A78F"/>
</g>
<mask id="mask4_37_2372" style="mask-type:luminance" maskUnits="userSpaceOnUse" x="-96" y="-113" width="428" height="279">
<path d="M331.38 -113H-96V165.4H331.38V-113Z" fill="white"/>
</mask>
<g mask="url(#mask4_37_2372)">
<path d="M56.27 32.65C56.27 31.57 56.4 30.03 56.65 28.03C56.91 26.04 57.35 24.09 57.97 22.18C58.6 20.27 59.41 18.61 60.4 17.18C61.4 15.76 62.66 15.05 64.2 15.05C65.17 15.05 66.01 15.3601 66.72 15.9901C67.43 16.6201 68.05 17.27 68.56 17.95C68.56 17.67 68.6 17.41 68.69 17.18C68.78 16.95 68.96 16.78 69.24 16.67L69.84 17.2701V20.26C69.84 21.74 69.87 23.45 69.92 25.39C69.98 27.33 70.08 29.36 70.22 31.5C70.36 33.64 70.59 35.5901 70.9 37.3501C71.21 39.1201 71.63 40.58 72.14 41.75C72.65 42.92 73.31 43.5 74.11 43.5L75.65 42.8201L76.16 43.5C76.05 43.84 75.74 44.17 75.26 44.48C74.77 44.79 74.36 44.95 74.02 44.95C72.99 44.95 72.17 44.3001 71.54 42.9901C70.91 41.6801 70.42 40.1701 70.05 38.4601C69.68 36.7501 69.41 35.0601 69.24 33.3801C69.07 31.7001 68.95 30.47 68.9 29.66C68.73 30.63 68.4 31.91 67.92 33.5C67.44 35.09 66.82 36.69 66.08 38.28C65.34 39.87 64.47 41.2401 63.47 42.3801C62.47 43.5201 61.35 44.09 60.09 44.09C59.24 44.09 58.55 43.5901 58.04 42.6001C57.53 41.6101 57.14 40.46 56.89 39.18C56.63 37.9 56.46 36.62 56.38 35.34C56.31 34.06 56.27 33.16 56.27 32.65ZM60.45 42.47C61.25 42.47 62 42.0701 62.71 41.2701C63.42 40.4701 64.09 39.45 64.72 38.2C65.35 36.95 65.89 35.55 66.34 34.01C66.8 32.47 67.19 30.98 67.53 29.53C67.87 28.08 68.13 26.76 68.3 25.56C68.47 24.36 68.56 23.45 68.56 22.83V19.33C68.22 19.33 67.92 19.17 67.66 18.86C67.4 18.55 67.13 18.21 66.85 17.84C66.56 17.47 66.24 17.1301 65.87 16.8201C65.5 16.5101 65.03 16.3501 64.46 16.3501C63.09 16.3501 61.97 17.03 61.09 18.4C60.2 19.77 59.51 21.36 59 23.18C58.49 25 58.12 26.83 57.89 28.65C57.66 30.48 57.55 31.87 57.55 32.83C57.55 33.29 57.57 34.04 57.59 35.09C57.62 36.15 57.72 37.23 57.89 38.34C58.06 39.45 58.34 40.4201 58.74 41.2401C59.14 42.0601 59.71 42.47 60.45 42.47Z" fill="#A1A78F"/>
</g>
<mask id="mask5_37_2372" style="mask-type:luminance" maskUnits="userSpaceOnUse" x="-96" y="-113" width="428" height="279">
<path d="M331.38 -113H-96V165.4H331.38V-113Z" fill="white"/>
</mask>
<g mask="url(#mask5_37_2372)">
<path d="M77.1999 19.84L77.7999 20.44C78.3099 23.69 78.6399 26.93 78.7799 30.18C78.9199 33.43 79.4499 36.65 80.3599 39.84C80.5899 39.21 80.7999 38.17 80.9999 36.72C81.1999 35.26 81.3999 33.64 81.5999 31.85C81.7999 30.05 82.0099 28.21 82.2399 26.3C82.4699 24.39 82.7699 22.66 83.1399 21.09C83.5099 19.53 83.9599 18.23 84.5099 17.2C85.0499 16.17 85.7199 15.66 86.5199 15.66C87.3199 15.66 87.9299 16.24 88.3599 17.41C88.7899 18.58 89.1299 20.07 89.3799 21.89C89.6299 23.71 89.8299 25.74 89.9799 27.96C90.1199 30.18 90.3099 32.35 90.5399 34.45C90.7699 36.56 91.0699 38.45 91.4399 40.13C91.8099 41.81 92.3599 43.05 93.1099 43.85C93.6199 44.42 94.1299 44.96 94.6499 45.47C95.1599 45.98 95.6999 46.46 96.2699 46.92L95.7599 47.52C94.0499 47.01 92.7399 45.95 91.8299 44.36C90.9199 42.76 90.2299 40.9 89.7799 38.77C89.3199 36.63 89.0199 34.37 88.8799 31.98C88.7399 29.59 88.6099 27.36 88.4899 25.27C88.3699 23.19 88.1799 21.4 87.8899 19.89C87.5999 18.38 87.0899 17.43 86.3499 17.03C85.7799 17.03 85.3099 17.51 84.9399 18.48C84.5699 19.45 84.2599 20.69 83.9999 22.2C83.7399 23.71 83.5099 25.4 83.3199 27.28C83.1199 29.16 82.9099 31.03 82.6799 32.88C82.4499 34.73 82.2099 36.48 81.9499 38.13C81.6899 39.78 81.3999 41.12 81.0499 42.15L80.7899 42.24C80.2799 42.24 79.8299 41.77 79.4599 40.83C79.0899 39.89 78.7599 38.71 78.4799 37.28C78.1999 35.85 77.9499 34.28 77.7499 32.54C77.5499 30.8 77.3799 29.12 77.2399 27.5C77.0999 25.88 76.9699 24.43 76.8599 23.14C76.7499 21.86 76.6599 20.96 76.6099 20.45L77.1999 19.84Z" fill="#A1A78F"/>
</g>
<mask id="mask6_37_2372" style="mask-type:luminance" maskUnits="userSpaceOnUse" x="-96" y="-113" width="428" height="279">
<path d="M331.38 -113H-96V165.4H331.38V-113Z" fill="white"/>
</mask>
<g mask="url(#mask6_37_2372)">
<path d="M121.36 1.64001C121.64 1.81001 121.83 2.24001 121.92 2.92001C122.01 3.60001 122.05 4.31001 122.05 5.06001V6.94002C124.5 6.32002 126.96 5.83001 129.44 5.49001C131.92 5.15001 134.44 4.92001 137 4.81001L137.6 5.40002L137.08 6.00002C134.52 6.17002 132.01 6.44001 129.56 6.81001C127.11 7.18001 124.63 7.65002 122.13 8.22002C122.24 14.03 122.53 19.8 122.98 25.52C123.43 31.24 124.12 36.95 125.03 42.65L124.43 43.42L123.83 42.82C122.98 37.13 122.31 31.43 121.82 25.74C121.33 20.04 121.01 14.29 120.84 8.48002C120.04 8.71002 118.96 9.05002 117.59 9.51002C116.22 9.97002 114.83 10.42 113.41 10.88C111.99 11.34 110.65 11.76 109.4 12.16C108.15 12.56 107.26 12.79 106.75 12.85L106.07 12.25C106.13 11.68 106.81 11.13 108.12 10.59C109.43 10.05 110.94 9.55001 112.65 9.09001C114.35 8.64001 115.99 8.23002 117.56 7.90002C119.13 7.56002 120.19 7.33001 120.76 7.21001L120.67 2.26002L121.36 1.64001Z" fill="#A1A78F"/>
</g>
<mask id="mask7_37_2372" style="mask-type:luminance" maskUnits="userSpaceOnUse" x="-96" y="-113" width="428" height="279">
<path d="M331.38 -113H-96V165.4H331.38V-113Z" fill="white"/>
</mask>
<g mask="url(#mask7_37_2372)">
<path d="M133.57 3.68994L134.17 4.28994C134.17 5.25994 134.16 6.50994 134.13 8.04994C134.1 9.58994 134.07 11.2899 134.05 13.1699C134.02 15.0499 133.99 17.0399 133.96 19.1499C133.93 21.2599 133.92 23.3399 133.92 25.3899C133.92 29.0899 133.98 32.4999 134.09 35.5999C134.21 38.7099 134.43 40.9099 134.78 42.2199C135.06 41.5399 135.38 40.3699 135.72 38.7099C136.06 37.0599 136.43 35.1999 136.83 33.1199C137.23 31.0399 137.67 28.8799 138.15 26.6299C138.64 24.3799 139.15 22.3099 139.69 20.4399C140.23 18.5599 140.8 17.0199 141.4 15.8299C142 14.6299 142.61 14.0299 143.24 14.0299C143.52 14.0299 143.75 14.1699 143.92 14.4599C144.09 14.7499 144.22 15.0699 144.31 15.4499C144.4 15.8199 144.44 16.1899 144.44 16.5599V17.3699C144.44 18.9099 144.35 20.9599 144.18 23.5199C144.01 26.0799 143.92 28.8099 143.92 31.7199C143.92 33.5999 143.99 35.4599 144.13 37.3199C144.27 39.1699 144.53 40.8799 144.9 42.4399C145.27 44.0099 145.8 45.3699 146.48 46.5399C147.16 47.6999 148.05 48.5499 149.13 49.0599L149.56 49.5699L148.87 50.2499C147.45 49.6799 146.33 48.7799 145.54 47.5599C144.75 46.3299 144.15 44.9699 143.75 43.4599C143.35 41.9499 143.11 40.4099 143.02 38.8399C142.94 37.2699 142.89 35.8399 142.89 34.5299C142.89 32.5399 142.96 30.4999 143.1 28.4199C143.24 26.3399 143.31 24.2799 143.31 22.2299C143.31 21.1499 143.28 20.0699 143.23 18.9799C143.17 17.8999 143.03 16.7899 142.8 15.6499C141.72 17.9299 140.89 20.2799 140.32 22.6999C139.75 25.1199 139.25 27.5399 138.83 29.9599C138.4 32.3799 137.93 34.7799 137.42 37.1799C136.91 39.5799 136.19 41.9099 135.28 44.1899L134.77 44.5299C134.26 44.5299 133.87 43.9199 133.62 42.6899C133.36 41.4699 133.17 40.0399 133.02 38.4199C132.88 36.7899 132.79 35.1899 132.77 33.5899C132.74 31.9999 132.72 30.7999 132.72 29.9999C132.72 25.7299 132.75 21.4399 132.8 17.1399C132.86 12.8399 132.89 8.54994 132.89 4.27994L133.57 3.68994Z" fill="#A1A78F"/>
</g>
<mask id="mask8_37_2372" style="mask-type:luminance" maskUnits="userSpaceOnUse" x="-96" y="-113" width="428" height="279">
<path d="M331.38 -113H-96V165.4H331.38V-113Z" fill="white"/>
</mask>
<g mask="url(#mask8_37_2372)">
<path d="M146.81 29.58L147.32 29.07C147.32 28.22 147.34 27.05 147.37 25.57C147.4 24.09 147.55 22.62 147.84 21.17C148.13 19.72 148.58 18.45 149.21 17.37C149.83 16.29 150.72 15.75 151.86 15.75C152.66 15.75 153.4 16.06 154.08 16.69C154.76 17.32 155.36 18.07 155.87 18.95C156.38 19.83 156.78 20.76 157.07 21.73C157.35 22.7 157.49 23.53 157.49 24.21C157.49 24.95 157.36 25.79 157.11 26.73C156.86 27.67 156.5 28.57 156.04 29.42C155.58 30.27 155.02 30.99 154.33 31.56C153.65 32.13 152.85 32.41 151.94 32.41C151.31 32.41 150.7 32.25 150.1 31.94C149.5 31.63 149.03 31.25 148.69 30.79C148.8 31.53 149.02 32.61 149.33 34.03C149.64 35.46 150.07 36.86 150.61 38.26C151.15 39.66 151.81 40.87 152.57 41.89C153.34 42.91 154.24 43.43 155.26 43.43C155.83 43.43 156.37 43.25 156.88 42.87C157.39 42.5 157.86 42.03 158.29 41.46C158.72 40.89 159.09 40.31 159.4 39.71C159.71 39.11 159.98 38.58 160.21 38.13L160.81 37.96L161.49 38.47C161.38 39.04 161.11 39.68 160.68 40.39C160.25 41.1 159.75 41.77 159.18 42.4C158.61 43.03 157.98 43.55 157.3 43.98C156.62 44.41 155.96 44.62 155.33 44.62C153.96 44.62 152.8 44.08 151.83 43C150.86 41.92 150.06 40.61 149.44 39.07C148.81 37.53 148.34 35.95 148.03 34.33C147.72 32.71 147.53 31.38 147.47 30.36L147.21 30.27L146.81 29.58ZM151.68 17.27C150.94 17.27 150.36 17.7 149.93 18.55C149.5 19.4 149.19 20.38 148.99 21.5C148.79 22.61 148.66 23.72 148.6 24.83C148.54 25.94 148.51 26.75 148.51 27.26C148.51 28.4 148.74 29.34 149.19 30.08C149.65 30.82 150.5 31.19 151.75 31.19C152.61 31.19 153.3 30.95 153.85 30.47C154.39 29.98 154.83 29.39 155.17 28.67C155.51 27.96 155.74 27.2 155.85 26.41C155.96 25.62 156.02 24.88 156.02 24.19C156.02 23.62 155.94 22.94 155.76 22.14C155.59 21.34 155.33 20.58 154.99 19.83C154.65 19.09 154.19 18.48 153.62 17.99C153.08 17.52 152.42 17.27 151.68 17.27Z" fill="#A1A78F"/>
</g>
<mask id="mask9_37_2372" style="mask-type:luminance" maskUnits="userSpaceOnUse" x="-96" y="-113" width="428" height="279">
<path d="M331.38 -113H-96V165.4H331.38V-113Z" fill="white"/>
</mask>
<g mask="url(#mask9_37_2372)">
<path d="M167.19 42.35C167.1 40.67 166.99 38.82 166.85 36.8C166.71 34.78 166.52 32.69 166.29 30.52C166.06 28.36 165.8 26.32 165.52 24.41C165.24 22.5 164.91 20.84 164.54 19.41C164.17 17.98 163.76 16.99 163.3 16.42L163.9 15.91C164.3 15.96 164.67 16.42 165.01 17.27C165.35 18.12 165.66 19.19 165.95 20.47C166.23 21.75 166.49 23.15 166.72 24.66C166.95 26.17 167.13 27.62 167.28 29.02C167.42 30.42 167.54 31.64 167.62 32.69C167.71 33.74 167.75 34.44 167.75 34.78C167.81 33.47 167.92 31.69 168.09 29.44C168.26 27.19 168.59 24.97 169.07 22.78C169.56 20.59 170.28 18.62 171.25 16.89C172.22 15.15 173.56 14.14 175.26 13.85L175.86 14.45L175.35 15.05C174.04 15.22 172.97 16.1 172.15 17.7C171.32 19.3 170.65 21.25 170.14 23.55C169.63 25.86 169.26 28.35 169.03 31.02C168.8 33.7 168.61 36.16 168.47 38.41C168.33 40.66 168.2 42.54 168.08 44.05C167.97 45.56 167.8 46.31 167.57 46.31H167.4C167.34 45.35 167.27 44.03 167.19 42.35Z" fill="#A1A78F"/>
</g>
<mask id="mask10_37_2372" style="mask-type:luminance" maskUnits="userSpaceOnUse" x="-96" y="-113" width="428" height="279">
<path d="M331.38 -113H-96V165.4H331.38V-113Z" fill="white"/>
</mask>
<g mask="url(#mask10_37_2372)">
<path d="M177.57 32.65C177.57 31.57 177.7 30.03 177.96 28.03C178.22 26.04 178.66 24.09 179.28 22.18C179.91 20.27 180.72 18.61 181.71 17.18C182.71 15.76 183.98 15.05 185.51 15.05C186.48 15.05 187.32 15.3601 188.03 15.9901C188.74 16.6201 189.36 17.27 189.86 17.95C189.86 17.67 189.9 17.41 189.99 17.18C190.08 16.95 190.26 16.78 190.55 16.67L191.15 17.2701V20.26C191.15 21.74 191.18 23.45 191.24 25.39C191.29 27.33 191.39 29.36 191.54 31.5C191.68 33.64 191.91 35.5901 192.22 37.3501C192.53 39.1201 192.95 40.58 193.46 41.75C193.97 42.92 194.63 43.5 195.42 43.5L196.96 42.8201L197.47 43.5C197.35 43.84 197.06 44.17 196.57 44.48C196.09 44.79 195.67 44.95 195.33 44.95C194.31 44.95 193.48 44.3001 192.85 42.9901C192.22 41.6801 191.73 40.1701 191.36 38.4601C190.99 36.7501 190.72 35.0601 190.55 33.3801C190.38 31.7001 190.27 30.47 190.21 29.66C190.04 30.63 189.71 31.91 189.23 33.51C188.74 35.1 188.13 36.7 187.4 38.29C186.66 39.88 185.79 41.25 184.79 42.39C183.79 43.53 182.67 44.1001 181.42 44.1001C180.57 44.1001 179.88 43.6 179.37 42.61C178.86 41.61 178.47 40.47 178.22 39.19C177.96 37.91 177.79 36.6301 177.71 35.3501C177.61 34.0601 177.57 33.16 177.57 32.65ZM181.75 42.47C182.55 42.47 183.3 42.0701 184.01 41.2701C184.72 40.4701 185.39 39.45 186.02 38.2C186.65 36.95 187.18 35.55 187.64 34.01C188.09 32.47 188.49 30.98 188.84 29.53C189.18 28.08 189.44 26.76 189.61 25.56C189.78 24.36 189.86 23.45 189.86 22.83V19.33C189.52 19.33 189.22 19.17 188.97 18.86C188.71 18.55 188.44 18.21 188.16 17.84C187.88 17.47 187.54 17.1301 187.18 16.8201C186.81 16.5101 186.34 16.3501 185.77 16.3501C184.4 16.3501 183.28 17.03 182.4 18.4C181.52 19.77 180.82 21.36 180.31 23.18C179.8 25 179.43 26.83 179.2 28.65C178.97 30.48 178.86 31.87 178.86 32.83C178.86 33.29 178.88 34.04 178.91 35.09C178.94 36.15 179.04 37.23 179.21 38.34C179.38 39.45 179.67 40.4201 180.06 41.2401C180.44 42.0601 181.01 42.47 181.75 42.47Z" fill="#A1A78F"/>
</g>
<mask id="mask11_37_2372" style="mask-type:luminance" maskUnits="userSpaceOnUse" x="-96" y="-113" width="428" height="279">
<path d="M331.38 -113H-96V165.4H331.38V-113Z" fill="white"/>
</mask>
<g mask="url(#mask11_37_2372)">
<path d="M201.91 56.14C201.97 54.89 201.85 53.44 201.57 51.78C201.29 50.13 201.09 48.73 200.97 47.6L197.64 20.26L197.47 19.92L198.24 18.9C198.52 18.95 198.76 19.34 198.97 20.05C199.17 20.76 199.34 21.67 199.48 22.78C199.62 23.89 199.72 25.1 199.78 26.41C199.84 27.72 199.9 28.99 200 30.21C200.08 31.44 200.18 32.55 200.3 33.54C200.42 34.54 200.58 35.24 200.81 35.63C200.86 34.95 200.96 33.94 201.11 32.6C201.25 31.27 201.45 29.81 201.7 28.24C201.96 26.68 202.29 25.08 202.69 23.46C203.09 21.84 203.57 20.37 204.14 19.06C204.71 17.75 205.38 16.67 206.15 15.82C206.92 14.96 207.78 14.53 208.75 14.53C209.66 14.53 210.43 15.07 211.06 16.15C211.68 17.23 212.18 18.49 212.55 19.91C212.92 21.33 213.18 22.76 213.32 24.18C213.46 25.61 213.53 26.63 213.53 27.25C213.53 28.39 213.43 29.98 213.23 32.03C213.03 34.08 212.63 36.12 212.04 38.14C211.44 40.17 210.61 41.92 209.56 43.4C208.51 44.88 207.15 45.62 205.5 45.62C204.87 45.62 204.19 45.37 203.45 44.89C202.71 44.41 202.31 43.82 202.26 43.14L202.94 42.2C203.4 42.43 203.89 42.83 204.44 43.4C204.98 43.97 205.45 44.25 205.85 44.25C207.1 44.25 208.14 43.58 208.97 42.24C209.79 40.9 210.45 39.34 210.93 37.54C211.42 35.74 211.76 33.95 211.96 32.16C212.16 30.37 212.26 29.04 212.26 28.19C212.26 27.62 212.22 26.67 212.13 25.33C212.05 23.99 211.87 22.62 211.62 21.23C211.36 19.83 210.98 18.6 210.47 17.51C209.96 16.43 209.3 15.89 208.51 15.89L207.57 16.32C206.38 18.03 205.42 19.84 204.71 21.74C204 23.65 203.46 25.61 203.09 27.63C202.72 29.65 202.46 31.7 202.32 33.78C202.18 35.86 202.11 37.9 202.11 39.89V44.03C202.11 45.54 202.14 47.06 202.2 48.6C202.26 50.13 202.37 51.66 202.54 53.17C202.71 54.68 202.94 56.03 203.23 57.23H202.97L202.54 57.57L201.94 57.06V56.14H201.91Z" fill="#A1A78F"/>
</g>
<mask id="mask12_37_2372" style="mask-type:luminance" maskUnits="userSpaceOnUse" x="-96" y="-113" width="428" height="279">
<path d="M331.38 -113H-96V165.4H331.38V-113Z" fill="white"/>
</mask>
<g mask="url(#mask12_37_2372)">
<path d="M216.26 17.19L216.94 17.79C216.94 18.75 216.93 19.94 216.9 21.33C216.87 22.72 216.86 24.25 216.86 25.9C216.86 27.44 216.87 29.03 216.9 30.68C216.93 32.34 217.01 33.91 217.15 35.42C217.29 36.93 217.48 38.31 217.71 39.57C217.94 40.82 218.25 41.82 218.65 42.56C218.99 42.5 219.43 41.85 219.97 40.6C220.51 39.35 221.08 37.81 221.68 35.98C222.28 34.16 222.89 32.15 223.52 29.96C224.14 27.77 224.73 25.67 225.27 23.68C225.81 21.68 226.29 19.9 226.72 18.34C227.15 16.77 227.48 15.68 227.7 15.05L228.21 14.79C228.55 14.85 228.87 15.36 229.15 16.33C229.43 17.3 229.66 18.58 229.83 20.17C230 21.77 230.14 23.56 230.26 25.55C230.37 27.54 230.44 29.56 230.48 31.61C230.5 33.66 230.53 35.67 230.56 37.63C230.59 39.41 230.6 40.98 230.6 42.36V42.54V42.8V41.86C230.94 41.92 230.69 43.14 230.69 43.14V46.77C230.69 48.45 230.63 50.34 230.52 52.45C230.4 54.56 230.23 56.73 230.01 58.98C229.78 61.23 229.43 63.3 228.94 65.18C228.46 67.06 227.83 68.6 227.06 69.79C226.29 70.99 225.34 71.58 224.2 71.58C223.06 71.58 222.16 71.22 221.51 70.51C220.85 69.8 220.34 68.94 219.97 67.95C219.6 66.95 219.36 65.9 219.24 64.79C219.12 63.68 219.07 62.73 219.07 61.93C219.07 60.34 219.25 58.46 219.63 56.29C220 54.13 220.59 52.02 221.42 49.97C222.24 47.92 223.31 46.11 224.62 44.55C225.93 42.98 227.53 42.03 229.41 41.68V34.59C229.41 31.69 229.33 28.78 229.19 25.88C229.05 22.98 228.69 20.21 228.12 17.59C227.84 18.22 227.49 19.3 227.1 20.84C226.7 22.38 226.25 24.11 225.77 26.05C225.28 27.99 224.76 30.01 224.19 32.11C223.62 34.22 223.02 36.14 222.4 37.88C221.77 39.62 221.15 41.04 220.52 42.15C219.89 43.26 219.29 43.82 218.72 43.82C218.15 43.82 217.68 43.26 217.31 42.15C216.94 41.04 216.64 39.62 216.41 37.88C216.18 36.14 216.01 34.25 215.9 32.2C215.79 30.15 215.72 28.16 215.69 26.22C215.66 24.28 215.64 22.55 215.64 21.01V17.77L216.26 17.19ZM225.14 70.07C226.28 68.42 227.15 66.45 227.74 64.18C228.34 61.9 228.77 59.52 229.02 57.04C229.28 54.56 229.41 52.1 229.41 49.65V42.99C228.49 42.99 227.63 43.36 226.8 44.1C225.97 44.84 225.2 45.78 224.49 46.92C223.78 48.06 223.15 49.34 222.61 50.77C222.07 52.19 221.61 53.6 221.24 55C220.87 56.4 220.59 57.71 220.39 58.93C220.19 60.15 220.09 61.14 220.09 61.87C220.09 62.5 220.15 63.3 220.26 64.27C220.37 65.23 220.59 66.16 220.9 67.04C221.22 67.92 221.64 68.68 222.18 69.3C222.72 69.93 223.45 70.24 224.36 70.24C224.55 70.24 224.8 70.18 225.14 70.07Z" fill="#A1A78F"/>
</g>
<mask id="mask13_37_2372" style="mask-type:luminance" maskUnits="userSpaceOnUse" x="-96" y="-113" width="428" height="279">
<path d="M331.38 -113H-96V165.4H331.38V-113Z" fill="white"/>
</mask>
<g mask="url(#mask13_37_2372)">
<path d="M84.6198 71.0499C84.3698 70.7999 84.2998 70.4499 84.4298 70.0099C84.5498 69.5699 84.7398 69.1299 84.9898 68.6899L85.2698 68.2199L85.1798 68.1199H85.1298C85.0998 68.1199 85.0798 68.0899 85.0798 68.0299C84.9198 67.8699 84.9498 67.7499 85.1698 67.6499L86.0198 67.1799L86.1098 66.8999C86.4898 66.3699 86.8598 65.8899 87.2198 65.4599C87.5798 65.0299 87.8998 64.6299 88.1898 64.2599C88.9098 63.4099 89.6598 62.6599 90.4298 62.0199C91.1998 61.3799 91.9198 60.8299 92.5998 60.3699C93.2698 59.9099 93.8698 59.5499 94.3898 59.2799C94.9098 59.0199 95.2998 58.8499 95.5498 58.7799C95.6098 58.7799 95.6698 58.7699 95.7198 58.7299C95.7698 58.6999 95.8398 58.6899 95.9298 58.6899C96.0798 58.6899 96.1898 58.7399 96.2298 58.8499C96.2798 58.9599 96.2998 59.0899 96.2998 59.2499C96.2998 59.4999 96.0498 59.8999 95.5498 60.4499C95.0498 60.9999 94.3898 61.6399 93.5698 62.3599C92.8098 63.0899 91.8798 63.8499 90.7598 64.6499C89.6398 65.4499 88.3498 66.3599 86.8698 67.3599L86.3998 67.6399L86.1198 68.1099C85.2098 69.4899 84.8598 70.3399 85.0798 70.6599C85.2398 70.8499 85.5598 70.8599 86.0498 70.6799C86.5398 70.5099 87.0598 70.1899 87.6298 69.7099C87.6898 69.6199 87.7498 69.5599 87.8198 69.5199C87.8798 69.4899 87.9498 69.4199 88.0098 69.3299L88.2898 69.0399L88.0098 68.7599C88.0098 68.6999 87.9898 68.6399 87.9598 68.5699C87.9298 68.5099 87.9098 68.4399 87.9098 68.3799C87.6298 67.8199 87.6298 67.3499 87.9098 66.9899C88.1898 66.6299 88.5098 66.5299 88.8498 66.6799L89.1298 66.8699L89.2198 66.9599C89.5298 67.4599 89.5298 67.9599 89.2198 68.4699L89.1298 68.8399C89.6598 69.0899 90.4398 69.1299 91.4698 68.9399C92.4898 68.7499 93.7598 68.1599 95.2698 67.1499C95.4598 66.9599 95.6098 66.9899 95.7398 67.2399C95.7998 67.2999 95.8298 67.3699 95.8098 67.4299C95.7898 67.4999 95.7398 67.5599 95.6398 67.6199C94.0698 68.6599 92.7098 69.3099 91.5598 69.5499C90.4098 69.8099 89.4798 69.7599 88.7498 69.4099L87.9998 70.1699C87.7498 70.3899 87.4698 70.5999 87.1698 70.8099C86.8698 71.0199 86.5598 71.1799 86.2298 71.3099C85.8998 71.4399 85.5898 71.4799 85.3098 71.4499C85.0498 71.4499 84.8098 71.2999 84.6198 71.0499ZM93.1998 61.9999C93.6398 61.6199 94.0198 61.2599 94.3298 60.9199C94.6398 60.5799 94.8898 60.3099 95.0798 60.1199C95.1398 59.9999 95.2398 59.8699 95.3598 59.7499L95.5498 59.4599L95.2698 59.5499C94.9498 59.7099 94.5498 59.9299 94.0698 60.2099C93.5798 60.4899 93.0498 60.8499 92.4698 61.2699C91.8898 61.6999 91.2798 62.1999 90.6298 62.7799C89.9898 63.3599 89.3598 64.0099 88.7698 64.7399L88.1098 65.3999L87.5398 66.1499L87.7298 66.0599C88.9198 65.2499 89.9498 64.4999 90.8198 63.8399C91.6898 63.1699 92.4798 62.5599 93.1998 61.9999ZM88.6798 67.2799C88.5898 67.2199 88.4898 67.2699 88.3998 67.4399C88.3098 67.6099 88.3098 67.8699 88.3998 68.2199C88.4598 68.2799 88.4998 68.3299 88.4998 68.3599C88.4998 68.3899 88.5298 68.3999 88.5898 68.3999H88.6798L88.7698 68.3099C88.8698 67.8399 88.8298 67.4999 88.6798 67.2799Z" fill="#A1A78F"/>
</g>
<mask id="mask14_37_2372" style="mask-type:luminance" maskUnits="userSpaceOnUse" x="-96" y="-113" width="428" height="279">
<path d="M331.38 -113H-96V165.4H331.38V-113Z" fill="white"/>
</mask>
<g mask="url(#mask14_37_2372)">
<path d="M89.1498 78.78C88.7398 78.43 88.6799 77.87 88.9599 77.08C89.1499 76.61 89.4598 76.15 89.8998 75.69C90.3398 75.24 90.8698 74.79 91.4798 74.34C92.0898 73.9 92.7598 73.47 93.4798 73.04C94.1998 72.62 94.9599 72.2 95.7399 71.79L97.3398 71.04L97.6198 70.66L98.2798 69.06L98.3698 68.78L97.8998 69.16C97.4298 69.54 96.9599 69.8 96.4899 69.96C96.0199 70.12 95.6098 70.07 95.2698 69.82V69.72C94.9898 69.44 94.8899 69 94.9899 68.4L95.1798 68.03L94.1398 68.69C93.8598 68.78 93.6698 68.75 93.5798 68.59C93.5198 68.43 93.5798 68.31 93.7698 68.22C94.1098 68.06 94.4698 67.87 94.8298 67.63C95.1898 67.4 95.4698 67.18 95.6598 66.99L95.7498 66.9C95.9998 66.65 96.2198 66.59 96.4098 66.71C96.5998 66.83 96.5699 67.02 96.3199 67.28H96.2298L96.1398 67.47C95.5998 68.39 95.4498 68.95 95.6698 69.17V69.26L95.7598 69.35C96.0998 69.44 96.5798 69.31 97.1998 68.95C97.8098 68.59 98.3398 68.12 98.7798 67.56V67.46C98.7198 67.53 98.7298 67.51 98.7998 67.41C98.8798 67.32 98.9998 67.3 99.1498 67.37C99.1798 67.4 99.1998 67.43 99.2198 67.46C99.2298 67.49 99.2598 67.53 99.2898 67.56C99.3198 67.59 99.3398 67.62 99.3398 67.65C99.3398 67.84 99.2498 68.17 99.0798 68.64C98.9098 69.11 98.6798 69.66 98.3898 70.29L98.2998 70.66L99.4298 70.19C100.44 69.72 101.42 69.26 102.38 68.82C103.34 68.38 104.15 67.98 104.81 67.64C105.06 67.52 105.19 67.52 105.19 67.64C105.28 67.86 105.28 68.02 105.19 68.11C104.44 68.55 103.46 69.04 102.27 69.57C101.08 70.11 99.8798 70.66 98.6898 71.22L97.8398 71.5L97.6498 72.16C97.2698 72.79 96.8899 73.43 96.4899 74.1C96.0999 74.76 95.6299 75.4 95.0999 76.03C94.4699 76.85 93.7698 77.52 92.9998 78.03C92.2298 78.55 91.5099 78.85 90.8499 78.95C90.4999 79.04 90.1798 79.09 89.8798 79.07C89.5798 79.07 89.3398 78.97 89.1498 78.78ZM90.7498 78.41C91.3198 78.32 91.9598 78.02 92.6898 77.54C93.4098 77.05 94.0598 76.43 94.6198 75.68C94.9598 75.24 95.2598 74.82 95.5198 74.43C95.7698 74.04 96.0399 73.6 96.3199 73.13L96.8898 72L96.2298 72.38C94.6598 73.13 93.2498 73.93 92.0098 74.76C90.7698 75.59 89.9798 76.43 89.6298 77.28C89.4698 77.63 89.4098 77.87 89.4398 78.01C89.4698 78.15 89.5298 78.25 89.6298 78.32C89.7498 78.56 90.1198 78.59 90.7498 78.41Z" fill="#A1A78F"/>
</g>
<mask id="mask15_37_2372" style="mask-type:luminance" maskUnits="userSpaceOnUse" x="-96" y="-113" width="428" height="279">
<path d="M331.38 -113H-96V165.4H331.38V-113Z" fill="white"/>
</mask>
<g mask="url(#mask15_37_2372)">
<path d="M115.08 70.86C114.7 70.64 114.56 70.3 114.66 69.85C114.75 69.39 114.99 68.95 115.37 68.53C115.75 68.1 116.22 67.73 116.78 67.4C117.35 67.07 117.91 66.9 118.48 66.9C118.86 66.9 119.19 66.98 119.49 67.14C119.79 67.29 119.98 67.47 120.07 67.65C120.14 67.75 120.11 67.83 120 67.91C119.89 67.99 119.79 68 119.69 67.94C119.53 67.85 119.38 67.74 119.24 67.63C119.1 67.52 118.84 67.46 118.47 67.46C118.09 67.46 117.68 67.59 117.24 67.84C116.8 68.09 116.42 68.38 116.09 68.71C115.76 69.04 115.52 69.36 115.38 69.65C115.24 69.95 115.26 70.16 115.45 70.29C115.74 70.35 116.11 70.28 116.58 70.07C117.05 69.87 117.55 69.62 118.07 69.32C118.59 69.02 119.09 68.7 119.58 68.35C120.07 68 120.49 67.7 120.83 67.45C121.14 67.2 121.36 67.17 121.47 67.36C121.58 67.55 121.56 67.7 121.4 67.83C120.99 68.11 120.72 68.47 120.57 68.89C120.43 69.32 120.47 69.57 120.69 69.67C120.91 69.76 121.27 69.71 121.78 69.5C122.28 69.3 122.8 69.05 123.33 68.77C123.87 68.49 124.37 68.21 124.84 67.92C125.31 67.63 125.61 67.45 125.74 67.36C125.93 67.26 126.08 67.31 126.19 67.5C126.3 67.69 126.28 67.83 126.12 67.93C125.9 68.06 125.56 68.26 125.08 68.56C124.61 68.86 124.1 69.15 123.55 69.43C123 69.71 122.45 69.95 121.9 70.14C121.35 70.33 120.9 70.37 120.56 70.28C120.21 70.19 120 69.98 119.92 69.67C119.84 69.35 119.88 69.05 120.04 68.77C119.7 69.03 119.29 69.3 118.82 69.59C118.35 69.89 117.86 70.15 117.36 70.37C116.86 70.59 116.4 70.75 115.99 70.87C115.57 71 115.27 70.99 115.08 70.86Z" fill="#A1A78F"/>
</g>
<mask id="mask16_37_2372" style="mask-type:luminance" maskUnits="userSpaceOnUse" x="-96" y="-113" width="428" height="279">
<path d="M331.38 -113H-96V165.4H331.38V-113Z" fill="white"/>
</mask>
<g mask="url(#mask16_37_2372)">
<path d="M124.98 69.8201C125.07 69.6601 125.28 69.4401 125.59 69.1601C125.94 68.8701 126.18 68.6 126.32 68.34C126.46 68.07 126.56 67.81 126.62 67.56C126.31 67.78 126.01 67.97 125.72 68.12C125.43 68.28 125.14 68.44 124.87 68.59C124.68 68.68 124.54 68.64 124.43 68.45C124.32 68.26 124.37 68.12 124.6 68.03C124.78 67.93 125 67.81 125.24 67.67C125.49 67.53 125.71 67.4001 125.9 67.2701C126.1 67.1401 126.27 67.0301 126.41 66.9101C126.55 66.8001 126.62 66.7001 126.62 66.6001V66.51C126.68 66.35 126.78 66.27 126.9 66.25C127.03 66.23 127.12 66.32 127.19 66.51C127.28 66.86 127.31 67.1401 127.28 67.3801C127.25 67.6101 127.19 67.8601 127.09 68.1101C128.04 67.5801 128.85 67.14 129.54 66.79C130.23 66.45 130.8 66.42 131.24 66.7C131.4 66.79 131.47 66.9401 131.47 67.1301C131.47 67.3201 131.42 67.49 131.33 67.64C131.2 68.02 131.08 68.37 130.95 68.68C130.82 68.99 130.75 69.26 130.71 69.48C130.68 69.7 130.72 69.86 130.83 69.95C130.94 70.04 131.17 70.06 131.51 70C132.27 69.85 133.19 69.52 134.29 69.03C135.39 68.54 136.41 67.9801 137.36 67.3601C137.58 67.2301 137.73 67.27 137.83 67.45C137.92 67.64 137.89 67.7601 137.73 67.8301C136.69 68.5501 135.64 69.16 134.57 69.64C133.5 70.13 132.45 70.47 131.41 70.65C130.78 70.75 130.38 70.6701 130.21 70.4101C130.04 70.1601 129.98 69.8501 130.02 69.4701C130.07 69.0901 130.19 68.69 130.38 68.26C130.57 67.84 130.69 67.5 130.76 67.25C130.7 67.06 130.48 67.0301 130.1 67.1601C129.72 67.2801 129.29 67.48 128.8 67.75C128.31 68.02 127.84 68.31 127.36 68.62C126.89 68.93 126.53 69.1901 126.27 69.3801C126.11 69.5701 125.95 69.75 125.77 69.92C125.6 70.09 125.46 70.21 125.37 70.28C125.21 70.34 125.07 70.34 124.94 70.28C124.85 70.23 124.85 70.0801 124.98 69.8201Z" fill="#A1A78F"/>
</g>
<mask id="mask17_37_2372" style="mask-type:luminance" maskUnits="userSpaceOnUse" x="-96" y="-113" width="428" height="279">
<path d="M331.38 -113H-96V165.4H331.38V-113Z" fill="white"/>
</mask>
<g mask="url(#mask17_37_2372)">
<path d="M136.67 70.1999C136.48 69.9499 136.45 69.65 136.58 69.3C136.7 68.95 136.86 68.6599 137.05 68.3999C136.77 68.5899 136.55 68.7099 136.39 68.7499C136.23 68.7999 136.08 68.87 135.92 68.96C135.76 69.05 135.64 69.03 135.54 68.86C135.45 68.71 135.47 68.58 135.63 68.49C136.01 68.34 136.3 68.19 136.51 68.07C136.71 67.94 136.9 67.82 137.05 67.72C137.21 67.61 137.38 67.4899 137.57 67.3699C137.76 67.2399 138.02 67.0899 138.37 66.8999C138.56 66.8099 138.71 66.8499 138.82 67.0399C138.93 67.2299 138.9 67.37 138.75 67.46C138.41 67.71 138.15 67.9499 137.99 68.1699C137.84 68.3899 137.68 68.63 137.52 68.88C137.26 69.29 137.19 69.56 137.28 69.69C137.38 69.81 137.55 69.88 137.8 69.88C138.05 69.88 138.33 69.8399 138.65 69.7599C138.96 69.6799 139.22 69.61 139.4 69.55C140.03 69.36 140.72 69.0899 141.48 68.7499C142.23 68.3999 142.99 68.04 143.74 67.66C143.83 67.57 143.91 67.53 143.97 67.55C144.03 67.57 144.11 67.6 144.21 67.66C144.3 67.85 144.24 68.01 144.02 68.13C143.7 68.32 143.19 68.59 142.49 68.96C141.78 69.32 141.03 69.6399 140.25 69.9299C139.46 70.2099 138.73 70.41 138.03 70.52C137.35 70.62 136.9 70.5099 136.67 70.1999ZM138.94 65.3899C138.88 65.3199 138.85 65.2499 138.87 65.1499C138.89 65.0599 138.94 65.0099 139.04 65.0099C139.23 64.8199 139.42 64.6299 139.63 64.4199C139.83 64.2199 140.02 63.97 140.17 63.69C140.26 63.47 140.39 63.44 140.55 63.6C140.8 63.73 140.86 63.8499 140.74 63.9799C140.33 64.6999 139.89 65.2 139.42 65.49C139.19 65.61 139.03 65.5799 138.94 65.3899Z" fill="#A1A78F"/>
</g>
<mask id="mask18_37_2372" style="mask-type:luminance" maskUnits="userSpaceOnUse" x="-96" y="-113" width="428" height="279">
<path d="M331.38 -113H-96V165.4H331.38V-113Z" fill="white"/>
</mask>
<g mask="url(#mask18_37_2372)">
<path d="M142.14 70.3C142.08 69.92 142.17 69.5 142.42 69.03C142.67 68.56 143.02 68.13 143.46 67.76C143.61 67.63 143.83 67.48 144.12 67.29C144.4 67.1 144.7 66.93 145.01 66.79C145.33 66.65 145.65 66.55 145.98 66.48C146.31 66.42 146.6 66.43 146.85 66.53C147.04 66.65 147.12 66.8 147.11 66.98C147.09 67.15 147.02 67.32 146.88 67.49C146.74 67.67 146.57 67.83 146.36 67.99C146.16 68.15 145.97 68.26 145.82 68.32C145.66 68.41 145.54 68.39 145.44 68.25C145.34 68.11 145.38 67.97 145.53 67.85C145.72 67.76 145.89 67.64 146.03 67.52C146.17 67.4 146.32 67.26 146.48 67.1C146.29 67.01 145.95 67.07 145.47 67.29C144.98 67.51 144.57 67.76 144.22 68.05C143.87 68.3 143.55 68.61 143.25 68.97C142.95 69.33 142.8 69.72 142.8 70.12C142.8 70.31 143.03 70.41 143.48 70.43C143.94 70.45 144.33 70.41 144.68 70.31C145.44 70.12 146.38 69.78 147.51 69.29C148.64 68.8 150 68.11 151.56 67.2C151.63 67.14 151.7 67.12 151.8 67.15C151.89 67.18 151.97 67.23 152.04 67.29C152.04 67.54 152.01 67.66 151.95 67.66C150.35 68.61 148.96 69.33 147.78 69.83C146.6 70.33 145.63 70.68 144.88 70.87C144.38 71 143.83 71.05 143.23 71.03C142.63 71.01 142.27 70.77 142.14 70.3Z" fill="#A1A78F"/>
</g>
<mask id="mask19_37_2372" style="mask-type:luminance" maskUnits="userSpaceOnUse" x="-96" y="-113" width="428" height="279">
<path d="M331.38 -113H-96V165.4H331.38V-113Z" fill="white"/>
</mask>
<g mask="url(#mask19_37_2372)">
<path d="M148.93 67.84C149.12 67.37 149.43 66.96 149.87 66.61C150.31 66.27 150.75 66.05 151.19 65.95C151.53 65.89 151.86 65.89 152.18 65.97C152.49 66.05 152.67 66.23 152.7 66.51C152.73 66.79 152.61 67.07 152.35 67.33C152.08 67.6 151.75 67.84 151.36 68.06C150.97 68.28 150.58 68.47 150.2 68.62C149.83 68.78 149.57 68.87 149.45 68.9C149.61 69.34 149.94 69.67 150.44 69.89C150.94 70.11 151.52 70.17 152.19 70.08C153.38 69.93 154.56 69.58 155.72 69.07C156.88 68.55 157.89 68.01 158.74 67.44C158.93 67.28 159.08 67.28 159.21 67.44C159.34 67.6 159.31 67.75 159.12 67.91C158.68 68.22 158.16 68.55 157.54 68.88C156.93 69.21 156.28 69.51 155.6 69.78C154.93 70.05 154.24 70.26 153.53 70.44C152.82 70.61 152.14 70.7 151.48 70.7C151.04 70.7 150.63 70.63 150.25 70.49C149.88 70.35 149.55 70.15 149.28 69.9C149.02 69.65 148.84 69.35 148.76 69.01C148.69 68.68 148.74 68.28 148.93 67.84ZM152.04 66.52C151.47 66.39 150.92 66.56 150.39 67.01C149.86 67.46 149.51 67.95 149.36 68.45C149.49 68.39 149.69 68.28 149.97 68.14C150.25 68 150.55 67.84 150.86 67.67C151.18 67.49 151.45 67.31 151.69 67.1C151.93 66.91 152.04 66.71 152.04 66.52Z" fill="#A1A78F"/>
</g>
<mask id="mask20_37_2372" style="mask-type:luminance" maskUnits="userSpaceOnUse" x="-96" y="-113" width="428" height="279">
<path d="M331.38 -113H-96V165.4H331.38V-113Z" fill="white"/>
</mask>
<g mask="url(#mask20_37_2372)">
<path d="M154.55 62.71C154.49 62.8 154.34 62.96 154.12 63.18C153.9 63.39 153.65 63.61 153.38 63.83C153.11 64.05 152.85 64.23 152.61 64.38C152.37 64.52 152.2 64.57 152.11 64.53L152.04 64.28C152.19 64.11 152.37 63.96 152.55 63.83C152.74 63.7 152.94 63.58 153.14 63.46C153.34 63.34 153.54 63.2 153.73 63.06C153.93 62.91 154.1 62.73 154.24 62.52L154.5 62.49L154.55 62.71Z" fill="#A1A78F"/>
</g>
<mask id="mask21_37_2372" style="mask-type:luminance" maskUnits="userSpaceOnUse" x="-96" y="-113" width="428" height="279">
<path d="M331.38 -113H-96V165.4H331.38V-113Z" fill="white"/>
</mask>
<g mask="url(#mask21_37_2372)">
<path d="M230.69 42.81C230.23 42.81 229.96 42.8 229.94 42.8L229.97 41.95C230.17 41.96 250.78 42.15 251.39 30.13C250.81 41.59 234.45 42.81 230.69 42.81Z" fill="#A1A78F"/>
</g>
<mask id="mask22_37_2372" style="mask-type:luminance" maskUnits="userSpaceOnUse" x="-96" y="-113" width="428" height="279">
<path d="M331.38 -113H-96V165.4H331.38V-113Z" fill="white"/>
</mask>
<g mask="url(#mask22_37_2372)">
<path d="M235.42 42.48L234.86 41.83C234.9 41.8 239.69 37.99 241.04 35.15C239.62 38.16 235.59 42.34 235.42 42.48Z" fill="#A1A78F"/>
</g>
<mask id="mask23_37_2372" style="mask-type:luminance" maskUnits="userSpaceOnUse" x="-96" y="-113" width="428" height="279">
<path d="M331.38 -113H-96V165.4H331.38V-113Z" fill="white"/>
</mask>
<g mask="url(#mask23_37_2372)">
<path d="M249.46 45.39C248.34 43.29 241.68 42.03 239.49 41.57L239.77 40.97C240.11 41.04 247.92 42.51 249.46 45.39Z" fill="#A1A78F"/>
</g>
<mask id="mask24_37_2372" style="mask-type:luminance" maskUnits="userSpaceOnUse" x="-96" y="-113" width="428" height="279">
<path d="M331.38 -113H-96V165.4H331.38V-113Z" fill="white"/>
</mask>
<g mask="url(#mask24_37_2372)">
<path d="M256.43 41.84C255.25 40.53 247.06 40.65 242.56 40.65C242.53 40.65 242.48 40.32 242.45 40.32L242.98 39.77C244.18 39.77 254.61 39.81 256.43 41.84Z" fill="#A1A78F"/>
</g>
<mask id="mask25_37_2372" style="mask-type:luminance" maskUnits="userSpaceOnUse" x="-96" y="-113" width="428" height="279">
<path d="M331.38 -113H-96V165.4H331.38V-113Z" fill="white"/>
</mask>
<g mask="url(#mask25_37_2372)">
<path d="M237.96 40.97C237.63 40.97 237.28 40.9 236.89 40.76L236.76 40.71L236.68 40.59C236.66 40.55 234.33 36.9 238.24 34.1C241.88 31.5 242.08 30.72 242.09 30.69L242.06 30.5L242.32 30.25H242.52C243.1 30.25 243.85 32.16 243.86 32.18C244.37 33.48 244.91 35.96 242.81 37.9C240.23 40.25 239.11 40.97 237.96 40.97ZM237.32 40C237.56 40.07 237.77 40.11 237.96 40.11C238.83 40.11 239.9 39.39 242.22 37.26C243.02 36.52 243.44 35.62 243.46 34.57C243.49 33.31 242.96 32.14 242.58 31.5C242.12 32.11 241.07 33.12 238.73 34.79C235.83 36.88 236.99 39.42 237.32 40Z" fill="#A1A78F"/>
</g>
<mask id="mask26_37_2372" style="mask-type:luminance" maskUnits="userSpaceOnUse" x="-96" y="-113" width="428" height="279">
<path d="M331.38 -113H-96V165.4H331.38V-113Z" fill="white"/>
</mask>
<g mask="url(#mask26_37_2372)">
<path d="M247.58 37.66L247.46 37.4C247.41 37.28 246.12 34.28 248.05 30.8C249.92 27.41 252.88 25.21 253.01 25.12L253.61 24.67L253.69 25.42C253.77 26.28 254.48 33.88 252.8 35.69C251.1 37.52 248.01 37.66 247.88 37.66H247.58ZM252.91 26.29C251.95 27.11 250.09 28.88 248.8 31.2C247.4 33.74 247.9 36.0001 248.15 36.7701C248.93 36.6901 251 36.3601 252.17 35.1001C253.25 33.9301 253.11 28.92 252.91 26.29Z" fill="#A1A78F"/>
</g>
<mask id="mask27_37_2372" style="mask-type:luminance" maskUnits="userSpaceOnUse" x="-96" y="-113" width="428" height="279">
<path d="M331.38 -113H-96V165.4H331.38V-113Z" fill="white"/>
</mask>
<g mask="url(#mask27_37_2372)">
<path d="M252.71 35.75L252.24 35.04C252.27 35.02 256.51 32.65 257.22 30.51C256.42 32.93 252.83 35.67 252.71 35.75Z" fill="#A1A78F"/>
</g>
<mask id="mask28_37_2372" style="mask-type:luminance" maskUnits="userSpaceOnUse" x="-96" y="-113" width="428" height="279">
<path d="M331.38 -113H-96V165.4H331.38V-113Z" fill="white"/>
</mask>
<g mask="url(#mask28_37_2372)">
<path d="M254.08 34.98C253.84 34.97 253.7 34.95 253.7 34.95L253.38 34.9L253.34 34.58C253.33 34.53 252.7 29.39 258.99 26.94L259.48 26.75L259.57 27.26C259.59 27.38 260.09 30.35 258.72 32.84C257.55 34.95 255.08 35.04 254.08 34.98ZM258.78 27.95C254.47 29.86 254.15 33.08 254.17 34.13C255.03 34.18 257.05 34.09 257.97 32.43C258.86 30.8 258.85 28.87 258.78 27.95Z" fill="#A1A78F"/>
</g>
<mask id="mask29_37_2372" style="mask-type:luminance" maskUnits="userSpaceOnUse" x="-96" y="-113" width="428" height="279">
<path d="M331.38 -113H-96V165.4H331.38V-113Z" fill="white"/>
</mask>
<g mask="url(#mask29_37_2372)">
<path d="M251.98 47.7C245.6 48.28 243.93 42.75 243.92 42.7L243.79 42.27L244.23 42.17C244.26 42.16 244.99 42 245.98 41.91C247.52 41.77 249.6 41.83 250.73 42.9C252.52 44.59 253.18 46.96 253.21 47.06L253.34 47.52L252.87 47.6C252.57 47.63 252.27 47.67 251.98 47.7ZM244.9 42.9C245.4 44.1 247.2 47.27 251.9 46.85C252.01 46.84 252.12 46.83 252.23 46.82C251.96 46.08 251.31 44.62 250.14 43.51C249.44 42.84 247.99 42.57 246.05 42.75C245.61 42.79 245.2 42.85 244.9 42.9Z" fill="#A1A78F"/>
</g>
<mask id="mask30_37_2372" style="mask-type:luminance" maskUnits="userSpaceOnUse" x="-96" y="-113" width="428" height="279">
<path d="M331.38 -113H-96V165.4H331.38V-113Z" fill="white"/>
</mask>
<g mask="url(#mask30_37_2372)">
<path d="M258.75 43.81C257.86 43.81 257.04 43.77 256.32 43.7C253.81 43.44 250.93 40.96 250.82 40.86L250.46 40.55L250.81 40.23C251.6 39.51 253.02 39.09 254.72 39.09C255.8 39.09 256.91 39.27 257.85 39.59C260.21 40.39 261.75 42.96 261.81 43.07L262.15 43.65L261.48 43.71C261.43 43.7 260.26 43.81 258.75 43.81ZM251.79 40.56C252.65 41.23 254.68 42.68 256.4 42.85C257.1 42.92 257.88 42.96 258.74 42.96C259.5 42.96 260.18 42.93 260.66 42.9C260.09 42.14 258.98 40.86 257.56 40.38C256.71 40.09 255.7 39.93 254.7 39.93C253.52 39.94 252.48 40.16 251.79 40.56Z" fill="#A1A78F"/>
</g>
</g>
</g>
<defs>
<clipPath id="clip0_37_2372">
<rect width="262" height="79" fill="white"/>
</clipPath>
</defs>
</svg>
