<svg width="319" height="109" viewBox="0 0 319 109" fill="none" xmlns="http://www.w3.org/2000/svg">
<path d="M130.74 30.52C129.66 29.21 128.28 28.55 126.77 28.59C122.18 28.74 118.41 34.92 114.96 48C115.01 40.38 115.06 32.37 115.09 29.47H110.52C110.45 35.62 110.17 62.71 110.55 69.95H115.09C115.09 66.36 115.87 60.21 117.58 53.66C122.16 36.1 126.53 33.61 126.91 33.59C126.99 33.58 127.11 33.58 127.35 33.87C129.51 36.5 130.52 48.7 127.9 70.04L132.42 70.71C133.19 64.42 134.1 55.18 134.02 46.86C133.94 38.45 132.87 33.11 130.74 30.52Z" fill="#5C6D5B"/>
<path d="M100.29 39.07C99.0601 56.66 91.2801 65.88 88.8101 65.88C88.5401 65.88 88.2101 65.85 87.8901 65.44C87.4301 64.86 86.4601 62.85 87.2901 56.77C90.3801 34.22 104.02 33.84 104.6 33.84V31.34L104.61 28.84C104.42 28.82 99.8501 28.85 94.8801 32.33C86.7801 38 83.8301 48.35 82.7801 56.03C81.9501 62.09 82.4901 66.24 84.4301 68.71C85.2101 69.71 86.6101 70.89 88.8101 70.89C92.4801 70.89 96.6901 66.64 99.9001 59.71C99.9501 62.95 100.06 66.41 100.25 69.94H104.82C103.93 53.97 104.82 39.58 104.83 39.43L100.29 39.07Z" fill="#5C6D5B"/>
<path d="M75.41 28.92C73.78 28.4 72.12 28.7 70.61 29.79C67.52 32.02 64.86 37.83 62.51 47.47C62.57 31.53 63.1 14.02 63.11 13.74H58.54C58.44 17.07 57.27 56.89 58.49 69.94H63.18C63.45 67.74 63.53 61.82 65.03 54.58C68.17 39.32 71.98 34.79 73.13 33.97C73.61 33.62 73.9001 33.65 74.1401 33.72C76.6801 34.53 77.45 41.76 75.86 49.85C74.03 59.18 69.84 66.36 66.5 65.83L65.85 70.79C66.2 70.84 66.55 70.87 66.9 70.87C73.45 70.87 78.33 61.07 80.33 50.91C82.06 42.05 81.82 30.97 75.41 28.92Z" fill="#5C6D5B"/>
<path d="M32.9199 13.36C31.6399 11.19 29.7199 11.1 28.3799 11.97C27.7699 12.37 25.9199 13.5699 24.3299 21.0199C23.3599 25.5799 22.7599 31.32 22.6299 37.17C22.5199 42.03 22.6999 49.33 24.0599 57.35C23.6299 58.41 23.1799 59.43 22.6999 60.39C20.9299 63.97 18.0299 68.23 14.3099 68.23C12.6799 68.23 11.2699 67.38 10.0099 65.63C3.63993 56.78 3.31993 28.37 9.28993 0.949951H4.59992C1.94992 13.5 0.349931 27.4899 0.419931 39.7999C0.489931 52.2499 2.27993 62.98 6.41993 68.73C8.53993 71.68 11.2699 73.2399 14.2999 73.2399C18.5999 73.2399 22.3999 70.4 25.6299 64.78C26.5699 68.37 27.7799 72 29.3399 75.53H34.4599C31.6299 69.82 29.8699 63.6699 28.7799 57.8599C34.3699 42.6699 36.2999 19.1 32.9199 13.36ZM27.3899 46.28C27.1899 43.14 27.1499 40.3499 27.1799 38.1199C27.3099 28.5599 28.6299 21.88 29.7299 18.54C30.4199 23.8 29.7999 35.44 27.3899 46.28Z" fill="#5C6D5B"/>
<path d="M49.31 30.96C46.98 34.24 45.21 38.21 43.87 42.34C43.98 35.61 44.16 30.48 44.2 29.47H39.63C39.51 32.68 38.77 54.75 39.63 69.95H44.23C44.26 68.25 44.58 61.68 45.74 54.17C47.67 41.67 52.02 33.59 56.61 29.48L52.8 27C51.51 28.15 50.35 29.49 49.31 30.96Z" fill="#5C6D5B"/>
<path d="M275.64 67.12C278.67 64.44 282.31 59.1 282.43 48.85C282.68 28.25 266.88 27.1 266.72 27.09L264.33 29.28C264 32.23 264.26 76.33 264.31 84.77H268.88C268.85 79.74 268.82 76.19 268.8 70.53C269.55 70.42 272.57 69.83 275.64 67.12ZM268.79 32.62C269.83 32.97 271.1 33.55 272.34 34.49C276.09 37.33 277.94 42.14 277.86 48.79C277.7 62.06 270.87 64.89 268.77 65.45C268.73 51.63 268.72 38.29 268.79 32.62Z" fill="#5C6D5B"/>
<path d="M253.5 39.07C252.27 56.66 244.49 65.88 242.02 65.88C241.75 65.88 241.42 65.85 241.1 65.44C240.64 64.86 239.67 62.85 240.5 56.77C243.59 34.22 257.23 33.84 257.81 33.84V31.34L257.82 28.84C257.63 28.82 253.06 28.85 248.09 32.33C239.99 38 237.04 48.35 235.99 56.03C235.16 62.09 235.7 66.24 237.64 68.71C238.42 69.71 239.82 70.89 242.02 70.89C245.69 70.89 249.9 66.64 253.11 59.71C253.16 62.95 253.27 66.41 253.46 69.94H258.03C257.14 53.97 258.03 39.58 258.04 39.43L253.5 39.07Z" fill="#5C6D5B"/>
<path d="M318.51 65.55C315.14 66.41 312.01 67.37 309.12 68.4C309.38 67.22 309.62 66.01 309.84 64.78C310.96 58.46 311.41 52.34 311.51 47.02C311.68 37.27 310.66 30.2 310.43 29.47L305.93 29.58C305.92 29.67 304.73 39.98 302.42 49.07C298.25 65.46 294.8 66.04 294.42 66.05C294.33 66.06 294.22 66.06 293.98 65.77C291.82 63.14 290.87 50.8 293.49 29.47H288.84C287.33 41.94 285.65 63.11 290.59 69.12C291.67 70.43 293.03 71.09 294.55 71.05C299.26 70.9 303.08 64.65 306.54 51.44C306.57 51.11 306.66 50.78 306.79 50.48C306.58 54.73 306.12 59.36 305.28 64.06C304.89 66.27 304.43 68.39 303.91 70.42C290.89 75.97 283.42 82.97 279.18 88.66C272.39 97.77 272.09 105.63 272.09 105.96L274.9 108.27C291.01 104.59 302.24 92.75 307.74 73.83C311.36 72.4 315.01 71.24 318.5 70.3V65.55H318.51ZM277.26 102.86C277.97 100.08 279.55 95.79 283.08 91.13C288.02 84.63 294.86 79.82 302.15 76.28C297.31 90.17 288.98 99.08 277.26 102.86Z" fill="#5C6D5B"/>
<path d="M211.92 54.15C216.88 47.97 218.78 40.42 217.41 32.3C217.14 30.72 216.2 28.81 214.4 28.64C211.7 28.39 208.28 30 205.67 32.75C202.76 35.82 199.4 41.68 199.85 52.17C200.18 59.7 204.31 70.96 214.34 71.13L214.41 66.12C210.21 66.05 207.67 63 206.2 59.6C207.75 58.48 209.89 56.68 211.92 54.15ZM204.73 54.65C204.54 53.6 204.44 52.66 204.41 51.94C204.03 43.32 206.61 38.71 208.83 36.36C210.34 34.77 211.9 34 213 33.73C214.65 44.83 208.51 51.6 204.73 54.65Z" fill="#5C6D5B"/>
<path d="M240.13 29.47L236.32 27C235.03 28.15 233.87 29.49 232.83 30.96C230.5 34.24 228.73 38.21 227.39 42.34C227.5 35.61 227.68 30.48 227.72 29.47H223.15C223.03 32.68 222.29 54.75 223.15 69.95H227.75C227.78 68.25 228.1 61.68 229.26 54.17C231.18 41.67 235.53 33.58 240.13 29.47Z" fill="#5C6D5B"/>
<path d="M189.91 28.59C184.66 28.59 180 35.5 175.65 49.71C175.4 50.53 175.15 51.36 174.92 52.18C174.86 42 175.11 31.89 175.44 23.26L175.65 18.25C175.66 17.99 175.67 17.74 175.68 17.49C178.47 17.56 181.29 17.71 184.09 17.98V17.96V13.37C181.36 13.11 178.61 12.96 175.9 12.89C176.18 7.38997 176.45 3.16997 176.6 0.939972H172.02C171.86 3.30997 171.6 7.47997 171.33 12.84C167.79 12.86 164.35 13.01 161.11 13.23C161.5 5.51997 161.96 0.389971 161.97 0.219971H157.35C157.22 1.73997 156.81 6.70997 156.46 13.61C148.56 14.35 142.42 15.43 139.94 15.9V20.63C140.06 20.61 146.77 19.23 156.25 18.29C155.97 25.15 155.8 33.29 155.98 41.61C156.26 54.59 157.4 68 160.32 77.6H165.15C160.11 62.69 160.18 35.72 160.91 17.89C164.14 17.65 167.58 17.49 171.12 17.46C171.11 17.72 171.1 17.98 171.08 18.25L170.87 23.26C170.35 36.99 170.04 54.42 170.82 69.95H175.43C175.81 67.94 177.46 59.54 180 51.26C182.46 43.24 186.12 34.71 189.3 33.69C190.54 36.98 190.62 51.91 188.61 70.89L193.11 71.1C193.99 62.76 194.63 53.65 194.74 46.84C194.94 34.52 193.64 31.31 192.48 29.89C191.78 29.05 190.87 28.59 189.91 28.59Z" fill="#5C6D5B"/>
</svg>
